<?xml version="1.0" standalone="no"?>
<!DOCTYPE svg PUBLIC "-//W3C//DTD SVG 1.1//EN" "http://www.w3.org/Graphics/SVG/1.1/DTD/svg11.dtd" >
<svg>
	<defs>
		<font
			id="DIN_1451_Engschrift"
			horiz-adv-x="250">
			<font-face
				units-per-em="100"
				ascent="80"
				descent="-20" >
				<font-face-src>
					<font-face-name name="DIN 1451 Engschrift" />
				</font-face-src>
			</font-face>
			<glyph
				unicode=" "
				horiz-adv-x="17"
				d="" />
			<glyph
				unicode="!"
				horiz-adv-x="21"
				d="M8.600000000000000 16.699999999999999 C7.700000000000045 29.199999999999989 5.899999999999977 54.199999999999989 5.000000000000000 66.699999999999989 C7.950000000000045 66.699999999999989 13.850000000000023 66.699999999999989 16.799999999999955 66.699999999999989 C15.899999999999977 54.199999999999989 14.100000000000023 29.199999999999989 13.200000000000045 16.699999999999989 C12.049999999999955 16.699999999999989 9.750000000000000 16.699999999999989 8.600000000000023 16.699999999999989 zM6.100000000000000 0.000000000000000 C6.100000000000023 2.375000000000000 6.100000000000023 7.125000000000000 6.100000000000023 9.500000000000000 C8.475000000000023 9.500000000000000 13.225000000000023 9.500000000000000 15.600000000000023 9.500000000000000 C15.600000000000023 7.125000000000000 15.600000000000023 2.375000000000000 15.600000000000023 0.000000000000000 C13.225000000000023 0.000000000000000 8.475000000000023 0.000000000000000 6.100000000000023 0.000000000000000 z" />
			<glyph
				unicode="&#x22;"
				horiz-adv-x="36"
				d="M4.200000000000000 66.700000000000003 C6.975000000000023 66.699999999999989 12.524999999999977 66.699999999999989 15.299999999999955 66.699999999999989 C14.850000000000023 60.024999999999977 13.950000000000045 46.675000000000011 13.500000000000000 40.000000000000000 C11.625000000000000 40.000000000000000 7.875000000000000 40.000000000000000 6.000000000000000 40.000000000000000 C5.549999999999955 46.675000000000011 4.649999999999977 60.024999999999977 4.200000000000045 66.699999999999989 zM21.199999999999999 66.700000000000003 C23.975000000000023 66.699999999999989 29.524999999999977 66.699999999999989 32.299999999999955 66.699999999999989 C31.850000000000023 60.024999999999977 30.950000000000045 46.675000000000011 30.500000000000000 40.000000000000000 C28.600000000000023 40.000000000000000 24.799999999999955 40.000000000000000 22.899999999999977 40.000000000000000 C22.475000000000023 46.675000000000011 21.625000000000000 60.024999999999977 21.200000000000045 66.699999999999989 z" />
			<glyph
				unicode="#"
				horiz-adv-x="50"
				d="M13.100000000000000 37.500000000000000 C10.475000000000023 37.500000000000000 5.225000000000023 37.500000000000000 2.600000000000023 37.500000000000000 C3.375000000000000 39.425000000000011 4.924999999999955 43.274999999999977 5.700000000000045 45.199999999999989 C8.325000000000045 45.199999999999989 13.575000000000045 45.199999999999989 16.200000000000045 45.199999999999989 C17.299999999999955 47.975000000000023 19.500000000000000 53.524999999999977 20.600000000000023 56.300000000000011 C22.725000000000023 56.300000000000011 26.975000000000023 56.300000000000011 29.100000000000023 56.300000000000011 C28.000000000000000 53.524999999999977 25.799999999999955 47.975000000000023 24.700000000000045 45.199999999999989 C27.200000000000045 45.199999999999989 32.200000000000045 45.199999999999989 34.700000000000045 45.199999999999989 C35.774999999999977 47.975000000000023 37.924999999999955 53.524999999999977 39.000000000000000 56.300000000000011 C41.075000000000045 56.300000000000011 45.225000000000023 56.300000000000011 47.299999999999955 56.300000000000011 C46.174999999999955 53.524999999999977 43.924999999999955 47.975000000000023 42.799999999999955 45.199999999999989 C45.424999999999955 45.199999999999989 50.674999999999955 45.199999999999989 53.299999999999955 45.199999999999989 C52.549999999999955 43.274999999999977 51.049999999999955 39.425000000000011 50.299999999999955 37.500000000000000 C47.649999999999977 37.500000000000000 42.350000000000023 37.500000000000000 39.700000000000045 37.500000000000000 C38.799999999999955 35.149999999999977 37.000000000000000 30.449999999999989 36.100000000000023 28.100000000000023 C38.674999999999955 28.100000000000023 43.825000000000045 28.100000000000023 46.399999999999977 28.100000000000023 C45.649999999999977 26.149999999999977 44.149999999999977 22.250000000000000 43.399999999999977 20.300000000000011 C40.799999999999955 20.300000000000011 35.600000000000023 20.300000000000011 33.000000000000000 20.300000000000011 C31.825000000000045 17.524999999999977 29.475000000000023 11.975000000000023 28.299999999999955 9.199999999999989 C26.274999999999977 9.225000000000023 22.225000000000023 9.275000000000034 20.200000000000045 9.300000000000011 C21.299999999999955 12.050000000000011 23.500000000000000 17.550000000000011 24.600000000000023 20.300000000000011 C22.125000000000000 20.300000000000011 17.174999999999955 20.300000000000011 14.700000000000045 20.300000000000011 C13.625000000000000 17.550000000000011 11.475000000000023 12.050000000000011 10.399999999999977 9.300000000000011 C8.250000000000000 9.300000000000011 3.950000000000045 9.300000000000011 1.799999999999955 9.300000000000011 C2.924999999999955 12.050000000000011 5.174999999999955 17.550000000000011 6.299999999999955 20.300000000000011 C3.674999999999955 20.300000000000011 -1.575000000000045 20.300000000000011 -4.200000000000045 20.300000000000011 C-3.424999999999955 22.250000000000000 -1.875000000000000 26.149999999999977 -1.100000000000023 28.100000000000023 C1.524999999999977 28.100000000000023 6.774999999999977 28.100000000000023 9.399999999999977 28.100000000000023 C10.325000000000045 30.449999999999989 12.174999999999955 35.149999999999977 13.100000000000023 37.500000000000000 zM31.600000000000001 37.500000000000000 C29.100000000000023 37.500000000000000 24.100000000000023 37.500000000000000 21.600000000000023 37.500000000000000 C20.625000000000000 35.149999999999977 18.674999999999955 30.449999999999989 17.700000000000045 28.100000000000023 C20.225000000000023 28.100000000000023 25.274999999999977 28.100000000000023 27.799999999999955 28.100000000000023 C28.750000000000000 30.449999999999989 30.649999999999977 35.149999999999977 31.600000000000023 37.500000000000000 z" />
			<glyph
				unicode="$"
				horiz-adv-x="50"
				d="M26.699999999999999 -6.800000000000000 C25.549999999999955 -6.800000000000011 23.250000000000000 -6.800000000000011 22.100000000000023 -6.800000000000011 C22.100000000000023 -5.199999999999989 22.100000000000023 -2.000000000000000 22.100000000000023 -0.399999999999977 Q15.000000000000000 0.600000000000023 11.450000000000045 5.649999999999977 Q7.899999999999977 10.699999999999989 7.899999999999977 16.600000000000023 C7.899999999999977 17.399999999999977 7.899999999999977 18.399999999999977 7.899999999999977 19.000000000000000 C10.299999999999955 19.000000000000000 15.100000000000023 19.000000000000000 17.500000000000000 19.000000000000000 C17.500000000000000 18.399999999999977 17.500000000000000 17.199999999999989 17.500000000000000 16.600000000000023 Q17.500000000000000 14.699999999999989 17.649999999999977 13.750000000000000 Q17.799999999999955 12.800000000000011 19.100000000000023 10.800000000000011 Q20.500000000000000 8.899999999999977 24.100000000000023 8.899999999999977 Q26.100000000000023 8.899999999999977 27.799999999999955 9.750000000000000 Q29.500000000000000 10.600000000000023 30.299999999999955 11.899999999999977 Q31.100000000000023 13.300000000000011 31.149999999999977 14.750000000000000 Q31.200000000000045 16.199999999999989 31.200000000000045 16.699999999999989 C31.200000000000045 18.266666666666652 31.200000000000045 20.225000000000023 31.200000000000045 21.399999999999977 Q31.200000000000045 23.399999999999977 31.049999999999955 24.399999999999977 Q30.899999999999977 25.399999999999977 29.799999999999955 26.500000000000000 Q28.799999999999955 27.699999999999989 26.850000000000023 28.649999999999977 Q24.899999999999977 29.600000000000023 20.000000000000000 31.399999999999977 Q15.200000000000045 33.199999999999989 11.899999999999977 37.050000000000011 Q8.600000000000023 40.899999999999977 8.600000000000023 47.600000000000023 C8.600000000000023 48.600000000000023 8.600000000000023 49.850000000000023 8.600000000000023 50.600000000000023 Q8.600000000000023 56.699999999999989 12.450000000000045 61.449999999999989 Q16.299999999999955 66.199999999999989 22.100000000000023 67.100000000000023 C22.100000000000023 69.166666666666629 22.100000000000023 71.750000000000000 22.100000000000023 73.300000000000011 C23.250000000000000 73.300000000000011 25.549999999999955 73.300000000000011 26.700000000000045 73.300000000000011 C26.700000000000045 71.750000000000000 26.700000000000045 68.649999999999977 26.700000000000045 67.100000000000023 Q32.899999999999977 66.300000000000011 36.799999999999955 61.649999999999977 Q40.700000000000045 57.000000000000000 40.700000000000045 50.600000000000023 C40.700000000000045 49.600000000000023 40.700000000000045 48.350000000000023 40.700000000000045 47.600000000000023 C38.325000000000045 47.600000000000023 33.575000000000045 47.600000000000023 31.200000000000045 47.600000000000023 C31.200000000000045 48.350000000000023 31.200000000000045 49.850000000000023 31.200000000000045 50.600000000000023 Q31.200000000000045 52.000000000000000 31.000000000000000 53.000000000000000 Q30.799999999999955 54.000000000000000 29.399999999999977 55.899999999999977 Q28.000000000000000 57.800000000000011 24.700000000000045 57.800000000000011 Q21.799999999999955 57.800000000000011 19.950000000000045 55.750000000000000 Q18.100000000000023 53.699999999999989 18.100000000000023 50.600000000000023 C18.100000000000023 49.600000000000023 18.100000000000023 48.350000000000023 18.100000000000023 47.600000000000023 Q18.100000000000023 45.699999999999989 18.250000000000000 44.850000000000023 Q18.399999999999977 44.000000000000000 19.299999999999955 42.899999999999977 Q20.200000000000045 41.800000000000011 21.899999999999977 41.000000000000000 Q23.600000000000023 40.199999999999989 28.399999999999977 38.399999999999977 Q33.299999999999955 36.699999999999989 37.000000000000000 32.750000000000000 Q40.700000000000045 28.800000000000011 40.700000000000045 22.000000000000000 C40.700000000000045 20.199999999999989 40.700000000000045 17.949999999999989 40.700000000000045 16.600000000000023 Q40.700000000000045 13.300000000000011 40.049999999999955 10.800000000000011 Q39.399999999999977 8.300000000000011 36.299999999999955 4.300000000000011 Q33.299999999999955 0.399999999999977 26.700000000000045 -0.399999999999977 C26.700000000000045 -2.533333333333360 26.700000000000045 -5.199999999999989 26.700000000000045 -6.800000000000011 z" />
			<glyph
				unicode="%"
				horiz-adv-x="55"
				d="M6.500000000000000 -1.500000000000000 C15.649999999999977 15.649999999999977 33.950000000000045 49.949999999999989 43.100000000000023 67.100000000000023 C44.450000000000045 67.100000000000023 47.149999999999977 67.100000000000023 48.500000000000000 67.100000000000023 C39.325000000000045 49.949999999999989 20.975000000000023 15.649999999999977 11.799999999999955 -1.500000000000000 C10.475000000000023 -1.500000000000000 7.825000000000045 -1.500000000000000 6.500000000000000 -1.500000000000000 zM5.700000000000000 62.799999999999997 Q8.700000000000045 66.600000000000023 13.200000000000045 66.600000000000023 Q17.600000000000023 66.600000000000023 20.299999999999955 63.699999999999989 Q23.000000000000000 60.800000000000011 23.000000000000000 56.699999999999989 C23.000000000000000 52.366666666666674 23.000000000000000 46.949999999999989 23.000000000000000 43.699999999999989 Q23.000000000000000 40.000000000000000 21.299999999999955 37.750000000000000 Q19.600000000000023 35.500000000000000 17.700000000000045 34.399999999999977 Q15.799999999999955 33.399999999999977 13.500000000000000 33.399999999999977 Q10.600000000000023 33.399999999999977 8.200000000000045 34.800000000000011 Q5.799999999999955 36.199999999999989 4.899999999999977 38.100000000000023 Q4.000000000000000 40.000000000000000 3.799999999999955 41.199999999999989 Q3.600000000000023 42.399999999999977 3.600000000000023 43.699999999999989 C3.600000000000023 48.033333333333360 3.600000000000023 53.449999999999989 3.600000000000023 56.699999999999989 Q3.600000000000023 58.800000000000011 4.000000000000000 60.100000000000023 Q4.399999999999977 61.399999999999977 5.700000000000045 62.800000000000011 zM34.500000000000000 28.500000000000000 Q37.500000000000000 32.300000000000011 42.000000000000000 32.300000000000011 Q46.399999999999977 32.300000000000011 49.100000000000023 29.399999999999977 Q51.799999999999955 26.500000000000000 51.799999999999955 22.399999999999977 C51.799999999999955 18.066666666666663 51.799999999999955 12.649999999999977 51.799999999999955 9.399999999999977 Q51.799999999999955 5.699999999999989 50.100000000000023 3.449999999999989 Q48.399999999999977 1.199999999999989 46.500000000000000 0.100000000000023 Q44.600000000000023 -0.899999999999977 42.299999999999955 -0.899999999999977 Q39.399999999999977 -0.899999999999977 37.000000000000000 0.500000000000000 Q34.600000000000023 1.899999999999977 33.700000000000045 3.800000000000011 Q32.799999999999955 5.699999999999989 32.600000000000023 6.899999999999977 Q32.399999999999977 8.100000000000023 32.399999999999977 9.399999999999977 C32.399999999999977 13.733333333333348 32.399999999999977 19.149999999999977 32.399999999999977 22.399999999999977 Q32.399999999999977 24.500000000000000 32.799999999999955 25.800000000000011 Q33.200000000000045 27.100000000000023 34.500000000000000 28.500000000000000 zM13.300000000000001 60.299999999999997 Q11.799999999999955 60.300000000000011 10.899999999999977 59.199999999999989 Q10.000000000000000 58.100000000000023 10.000000000000000 56.699999999999989 C10.000000000000000 52.366666666666674 10.000000000000000 46.949999999999989 10.000000000000000 43.699999999999989 Q10.000000000000000 39.899999999999977 13.399999999999977 39.899999999999977 Q15.000000000000000 39.899999999999977 15.750000000000000 41.050000000000011 Q16.500000000000000 42.199999999999989 16.500000000000000 43.699999999999989 C16.500000000000000 48.033333333333360 16.500000000000000 53.449999999999989 16.500000000000000 56.699999999999989 Q16.500000000000000 58.199999999999989 15.649999999999977 59.250000000000000 Q14.799999999999955 60.300000000000011 13.299999999999955 60.300000000000011 zM42.100000000000001 26.000000000000000 Q40.600000000000023 26.000000000000000 39.700000000000045 24.899999999999977 Q38.799999999999955 23.800000000000011 38.799999999999955 22.399999999999977 C38.799999999999955 18.066666666666663 38.799999999999955 12.649999999999977 38.799999999999955 9.399999999999977 Q38.799999999999955 5.600000000000023 42.200000000000045 5.600000000000023 Q43.799999999999955 5.600000000000023 44.549999999999955 6.750000000000000 Q45.299999999999955 7.899999999999977 45.299999999999955 9.399999999999977 C45.299999999999955 13.733333333333348 45.299999999999955 19.149999999999977 45.299999999999955 22.399999999999977 Q45.299999999999955 23.899999999999977 44.450000000000045 24.949999999999989 Q43.600000000000023 26.000000000000000 42.100000000000023 26.000000000000000 z" />
			<glyph
				unicode="&#x26;"
				horiz-adv-x="49"
				d="M36.600000000000001 36.000000000000000 C36.625000000000000 36.324999999999989 36.674999999999955 36.975000000000023 36.700000000000045 37.300000000000011 C38.674999999999955 37.300000000000011 42.625000000000000 37.300000000000011 44.600000000000023 37.300000000000011 Q44.600000000000023 31.300000000000011 43.350000000000023 25.149999999999977 Q42.100000000000023 19.000000000000000 39.799999999999955 12.800000000000011 C41.766666666666652 8.500000000000000 44.225000000000023 3.125000000000000 45.700000000000045 -0.100000000000023 C43.000000000000000 -0.100000000000023 37.600000000000023 -0.100000000000023 34.899999999999977 -0.100000000000023 C34.500000000000000 0.899999999999977 33.700000000000045 2.899999999999977 33.299999999999955 3.899999999999977 Q30.899999999999977 1.699999999999989 28.100000000000023 0.399999999999977 Q25.299999999999955 -0.899999999999977 22.299999999999955 -0.899999999999977 Q13.700000000000045 -0.899999999999977 9.100000000000023 4.699999999999989 Q4.500000000000000 10.300000000000011 4.500000000000000 19.100000000000023 Q4.500000000000000 25.800000000000011 7.549999999999955 30.850000000000023 Q10.600000000000023 35.899999999999977 16.500000000000000 40.699999999999989 Q13.799999999999955 45.899999999999977 12.950000000000045 49.050000000000011 Q12.100000000000023 52.199999999999989 12.100000000000023 55.100000000000023 Q12.100000000000023 60.699999999999989 15.899999999999977 64.199999999999989 Q19.700000000000045 67.699999999999989 25.299999999999955 67.699999999999989 Q30.899999999999977 67.699999999999989 34.649999999999977 64.250000000000000 Q38.399999999999977 60.800000000000011 38.399999999999977 55.300000000000011 Q38.399999999999977 50.500000000000000 35.750000000000000 46.600000000000023 Q33.100000000000023 42.699999999999989 28.299999999999955 38.100000000000023 C30.366666666666674 33.533333333333303 32.950000000000045 27.824999999999989 34.500000000000000 24.399999999999977 Q35.399999999999977 26.899999999999977 35.799999999999955 29.350000000000023 Q36.200000000000045 31.800000000000011 36.600000000000023 36.000000000000000 zM25.399999999999999 59.799999999999997 Q23.600000000000023 59.800000000000011 22.500000000000000 58.500000000000000 Q21.399999999999977 57.199999999999989 21.399999999999977 55.300000000000011 Q21.399999999999977 53.100000000000023 22.149999999999977 51.050000000000011 Q22.899999999999977 49.000000000000000 24.200000000000045 46.699999999999989 Q26.700000000000045 48.600000000000023 28.200000000000045 50.750000000000000 Q29.700000000000045 52.899999999999977 29.700000000000045 55.500000000000000 Q29.700000000000045 57.300000000000011 28.450000000000045 58.550000000000011 Q27.200000000000045 59.800000000000011 25.399999999999977 59.800000000000011 zM22.300000000000001 8.800000000000001 Q24.399999999999977 8.800000000000011 26.149999999999977 10.100000000000023 Q27.899999999999977 11.399999999999977 29.000000000000000 13.500000000000000 C26.366666666666674 19.666666666666686 23.075000000000045 27.375000000000000 21.100000000000023 32.000000000000000 Q18.200000000000045 29.500000000000000 16.200000000000045 26.199999999999989 Q14.200000000000045 22.899999999999977 14.200000000000045 19.399999999999977 Q14.200000000000045 15.100000000000023 16.200000000000045 11.949999999999989 Q18.200000000000045 8.800000000000011 22.299999999999955 8.800000000000011 z" />
			<glyph
				unicode="'"
				horiz-adv-x="19"
				d="M4.200000000000000 66.700000000000003 C7.049999999999955 66.699999999999989 12.750000000000000 66.699999999999989 15.600000000000023 66.699999999999989 C15.149999999999977 60.024999999999977 14.250000000000000 46.675000000000011 13.799999999999955 40.000000000000000 C11.850000000000023 40.000000000000000 7.950000000000045 40.000000000000000 6.000000000000000 40.000000000000000 C5.549999999999955 46.675000000000011 4.649999999999977 60.024999999999977 4.200000000000045 66.699999999999989 z" />
			<glyph
				unicode="("
				horiz-adv-x="26"
				d="M16.100000000000001 39.000000000000000 Q16.100000000000023 28.199999999999989 17.700000000000045 15.800000000000011 Q19.299999999999955 3.399999999999977 22.000000000000000 -5.500000000000000 C20.733333333333348 -5.500000000000000 19.149999999999977 -5.500000000000000 18.200000000000045 -5.500000000000000 Q11.799999999999955 4.100000000000023 8.399999999999977 15.500000000000000 Q5.000000000000000 26.899999999999977 5.000000000000000 38.600000000000023 Q5.000000000000000 50.800000000000011 8.049999999999955 61.949999999999989 Q11.100000000000023 73.100000000000023 17.399999999999977 83.300000000000011 C18.633333333333326 83.300000000000011 20.174999999999955 83.300000000000011 21.100000000000023 83.300000000000011 Q18.600000000000023 73.100000000000023 17.350000000000023 61.649999999999977 Q16.100000000000023 50.199999999999989 16.100000000000023 39.000000000000000 z" />
			<glyph
				unicode=")"
				horiz-adv-x="24"
				d="M10.100000000000000 38.600000000000001 Q10.100000000000023 49.399999999999977 8.500000000000000 61.800000000000011 Q6.899999999999977 74.199999999999989 4.200000000000045 83.100000000000023 C5.466666666666697 83.100000000000023 7.049999999999955 83.100000000000023 8.000000000000000 83.100000000000023 Q14.399999999999977 73.500000000000000 17.799999999999955 62.100000000000023 Q21.200000000000045 50.699999999999989 21.200000000000045 39.000000000000000 Q21.200000000000045 26.800000000000011 18.149999999999977 15.649999999999977 Q15.100000000000023 4.500000000000000 8.799999999999955 -5.699999999999989 C7.566666666666720 -5.699999999999989 6.024999999999977 -5.699999999999989 5.100000000000023 -5.699999999999989 Q7.600000000000023 4.500000000000000 8.850000000000023 15.949999999999989 Q10.100000000000023 27.399999999999977 10.100000000000023 38.600000000000023 z" />
			<glyph
				unicode="*"
				horiz-adv-x="33"
				d="M10.699999999999999 53.600000000000001 C9.125000000000000 54.625000000000000 5.975000000000023 56.675000000000011 4.399999999999977 57.699999999999989 C5.274999999999977 59.074999999999989 7.024999999999977 61.824999999999989 7.899999999999977 63.199999999999989 C9.274999999999977 62.324999999999989 12.024999999999977 60.574999999999989 13.399999999999977 59.699999999999989 C13.399999999999977 61.449999999999989 13.399999999999977 64.949999999999989 13.399999999999977 66.699999999999989 C15.049999999999955 66.699999999999989 18.350000000000023 66.699999999999989 20.000000000000000 66.699999999999989 C20.000000000000000 64.949999999999989 20.000000000000000 61.449999999999989 20.000000000000000 59.699999999999989 C21.375000000000000 60.574999999999989 24.125000000000000 62.324999999999989 25.500000000000000 63.199999999999989 C26.375000000000000 61.824999999999989 28.125000000000000 59.074999999999989 29.000000000000000 57.699999999999989 C27.450000000000045 56.699999999999989 24.350000000000023 54.699999999999989 22.799999999999955 53.699999999999989 C24.399999999999977 52.725000000000023 27.600000000000023 50.774999999999977 29.200000000000045 49.800000000000011 C28.325000000000045 48.425000000000011 26.575000000000045 45.675000000000011 25.700000000000045 44.300000000000011 C24.274999999999977 45.149999999999977 21.424999999999955 46.850000000000023 20.000000000000000 47.699999999999989 C20.000000000000000 46.000000000000000 20.000000000000000 42.600000000000023 20.000000000000000 40.899999999999977 C18.350000000000023 40.899999999999977 15.049999999999955 40.899999999999977 13.399999999999977 40.899999999999977 C13.399999999999977 42.600000000000023 13.399999999999977 46.000000000000000 13.399999999999977 47.699999999999989 C12.024999999999977 46.800000000000011 9.274999999999977 45.000000000000000 7.899999999999977 44.100000000000023 C7.000000000000000 45.500000000000000 5.200000000000045 48.300000000000011 4.299999999999955 49.699999999999989 C5.899999999999977 50.675000000000011 9.100000000000023 52.625000000000000 10.700000000000045 53.600000000000023 z" />
			<glyph
				unicode="+"
				horiz-adv-x="50"
				d="M22.199999999999999 56.700000000000003 C23.549999999999955 56.699999999999989 26.250000000000000 56.699999999999989 27.600000000000023 56.699999999999989 C27.600000000000023 51.824999999999989 27.600000000000023 42.074999999999989 27.600000000000023 37.199999999999989 C32.725000000000023 37.199999999999989 42.975000000000023 37.199999999999989 48.100000000000023 37.199999999999989 C48.100000000000023 35.899999999999977 48.100000000000023 33.300000000000011 48.100000000000023 32.000000000000000 C42.975000000000023 32.000000000000000 32.725000000000023 32.000000000000000 27.600000000000023 32.000000000000000 C27.600000000000023 27.125000000000000 27.600000000000023 17.375000000000000 27.600000000000023 12.500000000000000 C26.250000000000000 12.500000000000000 23.549999999999955 12.500000000000000 22.200000000000045 12.500000000000000 C22.200000000000045 17.375000000000000 22.200000000000045 27.125000000000000 22.200000000000045 32.000000000000000 C17.100000000000023 32.000000000000000 6.899999999999977 32.000000000000000 1.799999999999955 32.000000000000000 C1.799999999999955 33.300000000000011 1.799999999999955 35.899999999999977 1.799999999999955 37.199999999999989 C6.899999999999977 37.199999999999989 17.100000000000023 37.199999999999989 22.200000000000045 37.199999999999989 C22.200000000000045 42.074999999999989 22.200000000000045 51.824999999999989 22.200000000000045 56.699999999999989 z" />
			<glyph
				unicode=","
				horiz-adv-x="19"
				d="M4.900000000000000 -7.100000000000000 C4.899999999999977 -2.949999999999989 4.899999999999977 5.350000000000023 4.899999999999977 9.500000000000000 C7.274999999999977 9.500000000000000 12.024999999999977 9.500000000000000 14.399999999999977 9.500000000000000 C14.399999999999977 7.125000000000000 14.399999999999977 2.375000000000000 14.399999999999977 0.000000000000000 C12.024999999999977 -1.774999999999977 7.274999999999977 -5.324999999999989 4.899999999999977 -7.100000000000023 z" />
			<glyph
				unicode="-"
				horiz-adv-x="38"
				d="M5.100000000000000 21.500000000000000 C5.100000000000023 23.875000000000000 5.100000000000023 28.625000000000000 5.100000000000023 31.000000000000000 C12.225000000000023 31.000000000000000 26.475000000000023 31.000000000000000 33.600000000000023 31.000000000000000 C33.600000000000023 28.625000000000000 33.600000000000023 23.875000000000000 33.600000000000023 21.500000000000000 C26.475000000000023 21.500000000000000 12.225000000000023 21.500000000000000 5.100000000000023 21.500000000000000 z" />
			<glyph
				unicode="."
				horiz-adv-x="19"
				d="M4.800000000000000 0.000000000000000 C4.799999999999955 2.375000000000000 4.799999999999955 7.125000000000000 4.799999999999955 9.500000000000000 C7.174999999999955 9.500000000000000 11.924999999999955 9.500000000000000 14.299999999999955 9.500000000000000 C14.299999999999955 7.125000000000000 14.299999999999955 2.375000000000000 14.299999999999955 0.000000000000000 C11.924999999999955 0.000000000000000 7.174999999999955 0.000000000000000 4.799999999999955 0.000000000000000 z" />
			<glyph
				unicode="/"
				horiz-adv-x="31"
				d="M6.200000000000000 0.000000000000000 C9.424999999999955 16.675000000000011 15.875000000000000 50.024999999999977 19.100000000000023 66.699999999999989 C20.750000000000000 66.699999999999989 24.049999999999955 66.699999999999989 25.700000000000045 66.699999999999989 C22.475000000000023 50.024999999999977 16.024999999999977 16.675000000000011 12.799999999999955 0.000000000000000 C11.149999999999977 0.000000000000000 7.850000000000023 0.000000000000000 6.200000000000045 0.000000000000000 z" />
			<glyph
				unicode="0"
				horiz-adv-x="32"
				d="M14.400000000000000 -0.200000000000000 Q3.899999999999977 1.800000000000011 2.200000000000045 12.100000000000023 Q2.200000000000045 22.800000000000011 2.200000000000045 33.550000000000011 Q2.200000000000045 44.300000000000011 2.200000000000045 55.100000000000023 Q3.500000000000000 62.899999999999977 9.100000000000023 65.600000000000023 Q14.700000000000045 68.300000000000011 21.899999999999977 66.699999999999989 Q25.500000000000000 64.500000000000000 27.700000000000045 62.050000000000011 Q29.899999999999977 59.600000000000023 30.700000000000045 55.100000000000023 Q30.700000000000045 44.300000000000011 30.700000000000045 33.600000000000023 Q30.700000000000045 22.899999999999977 30.700000000000045 12.300000000000011 Q29.299999999999955 2.600000000000023 20.299999999999955 -0.100000000000023 Q19.200000000000045 -0.100000000000023 18.450000000000045 -0.149999999999977 Q17.700000000000045 -0.199999999999989 14.399999999999977 -0.199999999999989 zM15.400000000000000 9.400000000000000 Q19.799999999999955 9.399999999999977 21.000000000000000 13.300000000000011 Q21.000000000000000 23.399999999999977 21.000000000000000 33.449999999999989 Q21.000000000000000 43.500000000000000 21.000000000000000 53.600000000000023 Q20.399999999999977 55.399999999999977 19.700000000000045 56.600000000000023 Q16.799999999999955 58.800000000000011 14.799999999999955 57.550000000000011 Q12.799999999999955 56.300000000000011 11.899999999999977 53.600000000000023 Q11.899999999999977 43.600000000000023 11.899999999999977 33.550000000000011 Q11.899999999999977 23.500000000000000 11.899999999999977 13.500000000000000 Q12.500000000000000 10.399999999999977 15.399999999999977 9.399999999999977 z" />
			<glyph
				unicode="1"
				horiz-adv-x="35"
				d="M15.300000000000001 0.000000000000000 C15.299999999999955 14.175000000000011 15.299999999999955 42.524999999999977 15.299999999999955 56.699999999999989 C12.924999999999955 54.925000000000011 8.174999999999955 51.375000000000000 5.799999999999955 49.600000000000023 C5.799999999999955 52.125000000000000 5.799999999999955 57.175000000000011 5.799999999999955 59.699999999999989 C8.174999999999955 61.449999999999989 12.924999999999955 64.949999999999989 15.299999999999955 66.699999999999989 C17.674999999999955 66.699999999999989 22.424999999999955 66.699999999999989 24.799999999999955 66.699999999999989 C24.799999999999955 50.024999999999977 24.799999999999955 16.675000000000011 24.799999999999955 0.000000000000000 C22.424999999999955 0.000000000000000 17.674999999999955 0.000000000000000 15.299999999999955 0.000000000000000 z" />
			<glyph
				unicode="2"
				horiz-adv-x="35"
				d="M32.200000000000003 0.000000000000000 C25.100000000000023 0.000000000000000 10.899999999999977 0.000000000000000 3.799999999999955 0.000000000000000 C3.799999999999955 2.199999999999989 3.799999999999955 6.600000000000023 3.799999999999955 8.800000000000011 C8.225000000000023 17.399999999999977 17.075000000000045 34.600000000000023 21.500000000000000 43.199999999999989 Q22.700000000000045 45.600000000000023 22.700000000000045 48.100000000000023 C22.700000000000045 49.766666666666652 22.700000000000045 51.850000000000023 22.700000000000045 53.100000000000023 Q22.700000000000045 55.100000000000023 21.299999999999955 56.500000000000000 Q19.899999999999977 57.899999999999977 17.899999999999977 57.899999999999977 Q16.100000000000023 57.899999999999977 14.649999999999977 56.649999999999977 Q13.200000000000045 55.399999999999977 13.200000000000045 53.500000000000000 C13.200000000000045 51.533333333333303 13.200000000000045 49.074999999999989 13.200000000000045 47.600000000000023 C10.799999999999955 47.600000000000023 6.000000000000000 47.600000000000023 3.600000000000023 47.600000000000023 C3.600000000000023 48.800000000000011 3.600000000000023 51.199999999999989 3.600000000000023 52.399999999999977 Q3.600000000000023 56.300000000000011 6.549999999999955 61.800000000000011 Q9.500000000000000 67.300000000000011 18.399999999999977 67.300000000000011 Q24.000000000000000 67.300000000000011 28.100000000000023 63.000000000000000 Q32.200000000000045 58.699999999999989 32.200000000000045 53.100000000000023 C32.200000000000045 51.066666666666663 32.200000000000045 48.524999999999977 32.200000000000045 47.000000000000000 Q32.200000000000045 44.899999999999977 31.649999999999977 42.899999999999977 Q31.100000000000023 40.899999999999977 30.000000000000000 38.800000000000011 C25.000000000000000 29.033333333333303 18.750000000000000 16.824999999999989 15.000000000000000 9.500000000000000 C19.299999999999955 9.500000000000000 27.899999999999977 9.500000000000000 32.200000000000045 9.500000000000000 C32.200000000000045 7.125000000000000 32.200000000000045 2.375000000000000 32.200000000000045 0.000000000000000 z" />
			<glyph
				unicode="3"
				horiz-adv-x="35"
				d="M32.299999999999997 15.300000000000001 C32.299999999999955 15.000000000000000 32.299999999999955 14.399999999999977 32.299999999999955 14.100000000000023 Q32.299999999999955 13.399999999999977 32.250000000000000 12.550000000000011 Q32.200000000000045 11.699999999999989 31.899999999999977 10.199999999999989 Q30.500000000000000 5.399999999999977 26.600000000000023 2.399999999999977 Q22.700000000000045 -0.600000000000023 17.700000000000045 -0.600000000000023 Q13.700000000000045 -0.600000000000023 10.200000000000045 1.800000000000011 Q6.700000000000045 4.199999999999989 5.600000000000023 6.699999999999989 Q4.500000000000000 9.300000000000011 4.149999999999977 10.850000000000023 Q3.799999999999955 12.399999999999977 3.799999999999955 15.300000000000011 C3.799999999999955 16.600000000000023 3.799999999999955 18.225000000000023 3.799999999999955 19.199999999999989 C6.174999999999955 19.199999999999989 10.924999999999955 19.199999999999989 13.299999999999955 19.199999999999989 C13.299999999999955 18.425000000000011 13.299999999999955 16.875000000000000 13.299999999999955 16.100000000000023 Q13.299999999999955 14.899999999999977 13.350000000000023 13.750000000000000 Q13.399999999999977 12.600000000000023 14.399999999999977 10.800000000000011 Q15.399999999999977 9.100000000000023 18.000000000000000 9.100000000000023 Q20.600000000000023 9.100000000000023 21.700000000000045 10.850000000000023 Q22.799999999999955 12.600000000000023 22.799999999999955 15.300000000000011 C22.799999999999955 18.733333333333348 22.799999999999955 23.024999999999977 22.799999999999955 25.600000000000023 Q22.799999999999955 28.100000000000023 21.600000000000023 29.100000000000023 Q20.399999999999977 30.100000000000023 19.200000000000045 30.300000000000011 Q18.100000000000023 30.500000000000000 16.799999999999955 30.500000000000000 C16.233333333333348 30.500000000000000 15.524999999999977 30.500000000000000 15.100000000000023 30.500000000000000 C15.100000000000023 32.600000000000023 15.100000000000023 36.800000000000011 15.100000000000023 38.899999999999977 C15.524999999999977 38.899999999999977 16.375000000000000 38.899999999999977 16.799999999999955 38.899999999999977 Q22.799999999999955 38.899999999999977 22.799999999999955 44.500000000000000 C22.799999999999955 47.166666666666686 22.799999999999955 50.500000000000000 22.799999999999955 52.500000000000000 Q22.799999999999955 53.899999999999977 22.649999999999977 54.550000000000011 Q22.500000000000000 55.199999999999989 21.399999999999977 56.500000000000000 Q20.399999999999977 57.899999999999977 18.200000000000045 57.899999999999977 Q15.700000000000045 57.899999999999977 14.500000000000000 56.399999999999977 Q13.299999999999955 54.899999999999977 13.299999999999955 52.500000000000000 C13.299999999999955 50.866666666666674 13.299999999999955 48.824999999999989 13.299999999999955 47.600000000000023 C10.924999999999955 47.600000000000023 6.174999999999955 47.600000000000023 3.799999999999955 47.600000000000023 C3.799999999999955 48.824999999999989 3.799999999999955 51.274999999999977 3.799999999999955 52.500000000000000 Q3.799999999999955 58.800000000000011 7.850000000000023 63.050000000000011 Q11.899999999999977 67.300000000000011 18.200000000000045 67.300000000000011 Q21.700000000000045 67.300000000000011 24.950000000000045 65.500000000000000 Q28.200000000000045 63.699999999999989 29.700000000000045 61.300000000000011 Q31.299999999999955 58.899999999999977 31.799999999999955 56.850000000000023 Q32.299999999999955 54.800000000000011 32.299999999999955 52.500000000000000 C32.299999999999955 49.899999999999977 32.299999999999955 46.649999999999977 32.299999999999955 44.699999999999989 Q32.299999999999955 38.199999999999989 26.600000000000023 34.800000000000011 Q29.799999999999955 32.600000000000023 31.049999999999955 30.350000000000023 Q32.299999999999955 28.100000000000023 32.299999999999955 24.300000000000011 C32.299999999999955 21.300000000000011 32.299999999999955 17.550000000000011 32.299999999999955 15.300000000000011 z" />
			<glyph
				unicode="4"
				horiz-adv-x="35"
				d="M20.899999999999999 0.000000000000000 C20.899999999999977 2.550000000000011 20.899999999999977 7.649999999999977 20.899999999999977 10.199999999999989 C16.149999999999977 10.199999999999989 6.649999999999977 10.199999999999989 1.899999999999977 10.199999999999989 C1.899999999999977 12.425000000000011 1.899999999999977 16.875000000000000 1.899999999999977 19.100000000000023 C5.350000000000023 31.000000000000000 12.250000000000000 54.800000000000011 15.700000000000045 66.699999999999989 C18.225000000000023 66.699999999999989 23.274999999999977 66.699999999999989 25.799999999999955 66.699999999999989 C22.225000000000023 54.800000000000011 15.075000000000045 31.000000000000000 11.500000000000000 19.100000000000023 C13.850000000000023 19.100000000000023 18.549999999999955 19.100000000000023 20.899999999999977 19.100000000000023 C20.899999999999977 23.850000000000023 20.899999999999977 33.350000000000023 20.899999999999977 38.100000000000023 C23.299999999999955 38.100000000000023 28.100000000000023 38.100000000000023 30.500000000000000 38.100000000000023 C30.500000000000000 33.350000000000023 30.500000000000000 23.850000000000023 30.500000000000000 19.100000000000023 C31.649999999999977 19.100000000000023 33.950000000000045 19.100000000000023 35.100000000000023 19.100000000000023 C35.100000000000023 16.875000000000000 35.100000000000023 12.425000000000011 35.100000000000023 10.199999999999989 C33.950000000000045 10.199999999999989 31.649999999999977 10.199999999999989 30.500000000000000 10.199999999999989 C30.500000000000000 7.649999999999977 30.500000000000000 2.550000000000011 30.500000000000000 0.000000000000000 C28.100000000000023 0.000000000000000 23.299999999999955 0.000000000000000 20.899999999999977 0.000000000000000 z" />
			<glyph
				unicode="5"
				horiz-adv-x="35"
				d="M20.199999999999999 42.899999999999999 Q22.700000000000045 42.899999999999977 25.250000000000000 41.500000000000000 Q27.799999999999955 40.100000000000023 29.000000000000000 38.199999999999989 Q30.299999999999955 36.399999999999977 30.750000000000000 34.350000000000023 Q31.200000000000045 32.300000000000011 31.200000000000045 30.000000000000000 C31.200000000000045 25.000000000000000 31.200000000000045 18.750000000000000 31.200000000000045 15.000000000000000 Q31.200000000000045 12.800000000000011 31.049999999999955 11.300000000000011 Q30.899999999999977 9.800000000000011 29.899999999999977 7.100000000000023 Q28.899999999999977 4.399999999999977 25.049999999999955 1.899999999999977 Q21.200000000000045 -0.600000000000023 16.799999999999955 -0.600000000000023 Q13.399999999999977 -0.600000000000023 10.350000000000023 1.050000000000011 Q7.299999999999955 2.699999999999989 5.600000000000023 5.100000000000023 Q3.899999999999977 7.500000000000000 3.299999999999955 9.949999999999989 Q2.700000000000045 12.399999999999977 2.700000000000045 15.000000000000000 C2.700000000000045 15.566666666666663 2.700000000000045 16.274999999999977 2.700000000000045 16.699999999999989 C5.125000000000000 16.699999999999989 9.975000000000023 16.699999999999989 12.399999999999977 16.699999999999989 C12.399999999999977 16.274999999999977 12.399999999999977 15.425000000000011 12.399999999999977 15.000000000000000 Q12.399999999999977 14.000000000000000 12.450000000000045 13.000000000000000 Q12.500000000000000 12.000000000000000 13.500000000000000 10.500000000000000 Q14.500000000000000 9.000000000000000 17.000000000000000 9.000000000000000 Q19.700000000000045 9.000000000000000 20.600000000000023 10.449999999999989 Q21.500000000000000 11.899999999999977 21.600000000000023 12.699999999999989 Q21.700000000000045 13.600000000000023 21.700000000000045 14.600000000000023 C21.700000000000045 14.966666666666640 21.700000000000045 15.425000000000011 21.700000000000045 15.699999999999989 C21.700000000000045 18.949999999999989 21.700000000000045 25.449999999999989 21.700000000000045 28.699999999999989 Q21.700000000000045 29.600000000000023 21.649999999999977 30.600000000000023 Q21.600000000000023 31.600000000000023 20.500000000000000 33.100000000000023 Q19.500000000000000 34.600000000000023 17.100000000000023 34.600000000000023 Q13.600000000000023 34.600000000000023 12.399999999999977 31.100000000000023 C9.566666666666720 31.100000000000023 6.024999999999977 31.100000000000023 3.899999999999977 31.100000000000023 C3.899999999999977 40.000000000000000 3.899999999999977 57.800000000000011 3.899999999999977 66.699999999999989 C10.725000000000023 66.699999999999989 24.375000000000000 66.699999999999989 31.200000000000045 66.699999999999989 C31.200000000000045 64.475000000000023 31.200000000000045 60.024999999999977 31.200000000000045 57.800000000000011 C26.500000000000000 57.800000000000011 17.100000000000023 57.800000000000011 12.399999999999977 57.800000000000011 C12.399999999999977 53.324999999999989 12.399999999999977 44.375000000000000 12.399999999999977 39.899999999999977 Q15.899999999999977 42.899999999999977 20.200000000000045 42.899999999999977 z" />
			<glyph
				unicode="6"
				horiz-adv-x="35"
				d="M30.300000000000001 34.100000000000001 Q31.100000000000023 32.800000000000011 31.350000000000023 31.300000000000011 Q31.600000000000023 29.800000000000011 31.600000000000023 27.600000000000023 C31.600000000000023 23.333333333333314 31.600000000000023 18.000000000000000 31.600000000000023 14.800000000000011 Q31.600000000000023 12.300000000000011 31.149999999999977 10.250000000000000 Q30.700000000000045 8.199999999999989 28.100000000000023 4.100000000000023 Q25.600000000000023 0.000000000000000 18.299999999999955 -0.600000000000023 Q13.799999999999955 -0.600000000000023 10.200000000000045 1.350000000000023 Q6.600000000000023 3.300000000000011 5.100000000000023 6.000000000000000 Q3.700000000000045 8.800000000000011 3.350000000000023 10.649999999999977 Q3.000000000000000 12.500000000000000 3.000000000000000 14.800000000000011 C3.000000000000000 18.300000000000011 3.000000000000000 22.675000000000011 3.000000000000000 25.300000000000011 Q3.000000000000000 27.500000000000000 3.100000000000023 28.449999999999989 Q3.200000000000045 29.399999999999977 3.799999999999955 31.000000000000000 C8.200000000000045 42.899999999999977 13.700000000000045 57.774999999999977 17.000000000000000 66.699999999999989 C19.700000000000045 66.699999999999989 25.100000000000023 66.699999999999989 27.799999999999955 66.699999999999989 C25.100000000000023 59.699999999999989 19.700000000000045 45.699999999999989 17.000000000000000 38.699999999999989 Q19.000000000000000 39.399999999999977 21.299999999999955 39.399999999999977 C21.600000000000023 39.399999999999977 21.975000000000023 39.399999999999977 22.200000000000045 39.399999999999977 Q27.600000000000023 38.699999999999989 30.299999999999955 34.100000000000023 zM21.199999999999999 29.100000000000001 Q19.700000000000045 31.100000000000023 17.200000000000045 31.100000000000023 Q15.899999999999977 31.100000000000023 14.750000000000000 30.300000000000011 Q13.600000000000023 29.500000000000000 13.100000000000023 28.399999999999977 Q12.600000000000023 27.300000000000011 12.600000000000023 25.300000000000011 C12.600000000000023 21.800000000000011 12.600000000000023 17.425000000000011 12.600000000000023 14.800000000000011 Q12.600000000000023 12.600000000000023 13.799999999999955 10.699999999999989 Q15.000000000000000 8.800000000000011 17.899999999999977 9.100000000000023 Q20.500000000000000 9.100000000000023 21.299999999999955 10.850000000000023 Q22.100000000000023 12.600000000000023 22.100000000000023 14.800000000000011 C22.100000000000023 18.300000000000011 22.100000000000023 22.675000000000011 22.100000000000023 25.300000000000011 Q22.100000000000023 26.600000000000023 21.950000000000045 27.449999999999989 Q21.799999999999955 28.300000000000011 21.200000000000045 29.100000000000023 z" />
			<glyph
				unicode="7"
				horiz-adv-x="35"
				d="M12.100000000000000 50.000000000000000 C10.000000000000000 50.000000000000000 5.799999999999955 50.000000000000000 3.700000000000045 50.000000000000000 C3.700000000000045 54.175000000000011 3.700000000000045 62.524999999999977 3.700000000000045 66.699999999999989 C10.825000000000045 66.699999999999989 25.075000000000045 66.699999999999989 32.200000000000045 66.699999999999989 C32.200000000000045 64.524999999999977 32.200000000000045 60.175000000000011 32.200000000000045 58.000000000000000 C28.299999999999955 43.500000000000000 20.500000000000000 14.500000000000000 16.600000000000023 0.000000000000000 C14.075000000000045 0.000000000000000 9.024999999999977 0.000000000000000 6.500000000000000 0.000000000000000 C10.549999999999955 14.449999999999989 18.649999999999977 43.350000000000023 22.700000000000045 57.800000000000011 C20.049999999999955 57.800000000000011 14.750000000000000 57.800000000000011 12.100000000000023 57.800000000000011 C12.100000000000023 55.850000000000023 12.100000000000023 51.949999999999989 12.100000000000023 50.000000000000000 z" />
			<glyph
				unicode="8"
				horiz-adv-x="35"
				d="M31.600000000000001 13.699999999999999 Q31.600000000000023 10.699999999999989 30.100000000000023 7.399999999999977 Q28.600000000000023 4.100000000000023 25.200000000000045 1.699999999999989 Q21.799999999999955 -0.600000000000023 17.799999999999955 -0.600000000000023 Q13.500000000000000 -0.600000000000023 9.899999999999977 1.600000000000023 Q6.299999999999955 3.800000000000011 5.000000000000000 6.500000000000000 Q3.700000000000045 9.300000000000011 3.399999999999977 11.100000000000023 Q3.100000000000023 12.899999999999977 3.100000000000023 14.800000000000011 C3.100000000000023 18.699999999999989 3.100000000000023 23.574999999999989 3.100000000000023 26.500000000000000 Q3.100000000000023 29.199999999999989 4.350000000000023 31.350000000000023 Q5.600000000000023 33.500000000000000 7.899999999999977 35.199999999999989 Q3.100000000000023 38.800000000000011 3.100000000000023 45.100000000000023 C3.100000000000023 48.100000000000023 3.100000000000023 51.850000000000023 3.100000000000023 54.100000000000023 Q3.100000000000023 56.000000000000000 3.850000000000023 57.949999999999989 Q4.600000000000023 59.899999999999977 7.399999999999977 63.600000000000023 Q10.299999999999955 67.300000000000011 17.600000000000023 67.300000000000011 Q20.399999999999977 67.300000000000011 22.899999999999977 66.149999999999977 Q25.399999999999977 65.000000000000000 28.500000000000000 61.699999999999989 Q31.600000000000023 58.500000000000000 31.600000000000023 53.000000000000000 C31.600000000000023 50.133333333333326 31.600000000000023 46.550000000000011 31.600000000000023 44.399999999999977 Q31.600000000000023 38.600000000000023 26.799999999999955 35.199999999999989 Q31.600000000000023 31.899999999999977 31.600000000000023 25.800000000000011 C31.600000000000023 21.766666666666652 31.600000000000023 16.725000000000023 31.600000000000023 13.699999999999989 zM17.399999999999999 57.799999999999997 Q15.299999999999955 57.800000000000011 13.899999999999977 56.399999999999977 Q12.500000000000000 55.000000000000000 12.500000000000000 53.000000000000000 C12.500000000000000 50.133333333333326 12.500000000000000 46.550000000000011 12.500000000000000 44.399999999999977 Q12.500000000000000 42.100000000000023 13.750000000000000 40.449999999999989 Q15.000000000000000 38.800000000000011 17.299999999999955 38.800000000000011 Q19.799999999999955 38.800000000000011 20.950000000000045 40.350000000000023 Q22.100000000000023 41.899999999999977 22.100000000000023 44.399999999999977 C22.100000000000023 47.266666666666652 22.100000000000023 50.850000000000023 22.100000000000023 53.000000000000000 Q22.100000000000023 54.899999999999977 20.750000000000000 56.350000000000023 Q19.399999999999977 57.800000000000011 17.399999999999977 57.800000000000011 zM17.399999999999999 31.600000000000001 Q15.200000000000045 31.600000000000023 13.850000000000023 30.149999999999977 Q12.500000000000000 28.699999999999989 12.500000000000000 26.500000000000000 C12.500000000000000 22.600000000000023 12.500000000000000 17.725000000000023 12.500000000000000 14.800000000000011 Q12.500000000000000 12.199999999999989 13.700000000000045 10.600000000000023 Q14.899999999999977 9.000000000000000 17.600000000000023 9.000000000000000 Q20.200000000000045 9.000000000000000 21.149999999999977 10.699999999999989 Q22.100000000000023 12.399999999999977 22.100000000000023 14.800000000000011 C22.100000000000023 18.699999999999989 22.100000000000023 23.574999999999989 22.100000000000023 26.500000000000000 Q22.100000000000023 28.699999999999989 20.850000000000023 30.149999999999977 Q19.600000000000023 31.600000000000023 17.399999999999977 31.600000000000023 z" />
			<glyph
				unicode="9"
				horiz-adv-x="35"
				d="M4.100000000000000 33.700000000000003 Q3.399999999999977 35.100000000000023 3.250000000000000 36.350000000000023 Q3.100000000000023 37.600000000000023 3.100000000000023 40.100000000000023 C3.100000000000023 44.633333333333326 3.100000000000023 50.300000000000011 3.100000000000023 53.699999999999989 Q3.100000000000023 55.699999999999989 3.850000000000023 57.600000000000023 Q4.600000000000023 59.500000000000000 7.299999999999955 63.399999999999977 Q10.100000000000023 67.300000000000011 17.200000000000045 67.300000000000011 Q23.899999999999977 67.300000000000011 27.750000000000000 62.750000000000000 Q31.600000000000023 58.199999999999989 31.600000000000023 52.399999999999977 C31.600000000000023 48.766666666666652 31.600000000000023 44.225000000000023 31.600000000000023 41.500000000000000 Q31.600000000000023 37.699999999999989 30.000000000000000 33.699999999999989 C25.799999999999955 22.466666666666697 20.549999999999955 8.425000000000011 17.399999999999977 0.000000000000000 C14.700000000000045 0.000000000000000 9.299999999999955 0.000000000000000 6.600000000000023 0.000000000000000 C9.375000000000000 7.024999999999977 14.924999999999955 21.074999999999989 17.700000000000045 28.100000000000023 Q15.100000000000023 27.500000000000000 13.700000000000045 27.500000000000000 Q10.600000000000023 27.500000000000000 7.950000000000045 29.250000000000000 Q5.299999999999955 31.000000000000000 4.100000000000023 33.699999999999989 zM17.500000000000000 57.899999999999999 Q15.100000000000023 57.899999999999977 13.899999999999977 56.300000000000011 Q12.700000000000045 54.699999999999989 12.700000000000045 52.399999999999977 C12.700000000000045 48.766666666666652 12.700000000000045 44.225000000000023 12.700000000000045 41.500000000000000 Q12.700000000000045 39.000000000000000 14.000000000000000 37.399999999999977 Q15.299999999999955 35.800000000000011 17.799999999999955 35.800000000000011 Q20.000000000000000 35.800000000000011 21.049999999999955 37.350000000000023 Q22.100000000000023 38.899999999999977 22.100000000000023 41.500000000000000 C22.100000000000023 45.133333333333326 22.100000000000023 49.675000000000011 22.100000000000023 52.399999999999977 Q22.100000000000023 54.899999999999977 21.049999999999955 56.399999999999977 Q20.000000000000000 57.899999999999977 17.500000000000000 57.899999999999977 z" />
			<glyph
				unicode=":"
				horiz-adv-x="32"
				d="M11.699999999999999 29.699999999999999 C11.700000000000045 32.074999999999989 11.700000000000045 36.824999999999989 11.700000000000045 39.199999999999989 C14.075000000000045 39.199999999999989 18.825000000000045 39.199999999999989 21.200000000000045 39.199999999999989 C21.200000000000045 36.824999999999989 21.200000000000045 32.074999999999989 21.200000000000045 29.699999999999989 C18.825000000000045 29.699999999999989 14.075000000000045 29.699999999999989 11.700000000000045 29.699999999999989 zM11.699999999999999 8.600000000000000 C11.700000000000045 10.975000000000023 11.700000000000045 15.725000000000023 11.700000000000045 18.100000000000023 C14.075000000000045 18.100000000000023 18.825000000000045 18.100000000000023 21.200000000000045 18.100000000000023 C21.200000000000045 15.725000000000023 21.200000000000045 10.975000000000023 21.200000000000045 8.600000000000023 C18.825000000000045 8.600000000000023 14.075000000000045 8.600000000000023 11.700000000000045 8.600000000000023 z" />
			<glyph
				unicode=";"
				horiz-adv-x="33"
				d="M11.800000000000001 -7.100000000000000 C11.799999999999955 -2.949999999999989 11.799999999999955 5.350000000000023 11.799999999999955 9.500000000000000 C14.149999999999977 9.500000000000000 18.850000000000023 9.500000000000000 21.200000000000045 9.500000000000000 C21.200000000000045 7.125000000000000 21.200000000000045 2.375000000000000 21.200000000000045 0.000000000000000 C18.850000000000023 -1.774999999999977 14.149999999999977 -5.324999999999989 11.799999999999955 -7.100000000000023 zM11.699999999999999 16.699999999999999 C11.700000000000045 19.074999999999989 11.700000000000045 23.824999999999989 11.700000000000045 26.199999999999989 C14.075000000000045 26.199999999999989 18.825000000000045 26.199999999999989 21.200000000000045 26.199999999999989 C21.200000000000045 23.824999999999989 21.200000000000045 19.074999999999989 21.200000000000045 16.699999999999989 C18.825000000000045 16.699999999999989 14.075000000000045 16.699999999999989 11.700000000000045 16.699999999999989 z" />
			<glyph
				unicode="&#x3c;"
				horiz-adv-x="50"
				d="M14.300000000000001 33.500000000000000 C22.375000000000000 29.649999999999977 38.524999999999977 21.949999999999989 46.600000000000023 18.100000000000023 C46.600000000000023 15.550000000000011 46.600000000000023 10.449999999999989 46.600000000000023 7.899999999999977 C35.774999999999977 13.225000000000023 14.125000000000000 23.875000000000000 3.299999999999955 29.199999999999989 C3.299999999999955 31.399999999999977 3.299999999999955 35.800000000000011 3.299999999999955 38.000000000000000 C14.125000000000000 43.300000000000011 35.774999999999977 53.900000000000034 46.600000000000023 59.199999999999989 C46.600000000000023 56.625000000000000 46.600000000000023 51.475000000000023 46.600000000000023 48.899999999999977 C38.524999999999977 45.050000000000011 22.375000000000000 37.350000000000023 14.299999999999955 33.500000000000000 z" />
			<glyph
				unicode="="
				horiz-adv-x="50"
				d="M48.100000000000001 39.299999999999997 C36.524999999999977 39.300000000000011 13.375000000000000 39.300000000000011 1.799999999999955 39.300000000000011 C1.799999999999955 40.574999999999989 1.799999999999955 43.125000000000000 1.799999999999955 44.399999999999977 C13.375000000000000 44.399999999999977 36.524999999999977 44.399999999999977 48.100000000000023 44.399999999999977 C48.100000000000023 43.125000000000000 48.100000000000023 40.574999999999989 48.100000000000023 39.300000000000011 zM48.100000000000001 24.899999999999999 C36.524999999999977 24.899999999999977 13.375000000000000 24.899999999999977 1.799999999999955 24.899999999999977 C1.799999999999955 26.175000000000011 1.799999999999955 28.725000000000023 1.799999999999955 30.000000000000000 C13.375000000000000 30.000000000000000 36.524999999999977 30.000000000000000 48.100000000000023 30.000000000000000 C48.100000000000023 28.725000000000023 48.100000000000023 26.175000000000011 48.100000000000023 24.899999999999977 z" />
			<glyph
				unicode="&#x3e;"
				horiz-adv-x="50"
				d="M35.700000000000003 33.600000000000001 C27.625000000000000 37.449999999999989 11.475000000000023 45.149999999999977 3.399999999999977 49.000000000000000 C3.399999999999977 51.550000000000011 3.399999999999977 56.649999999999977 3.399999999999977 59.199999999999989 C14.225000000000023 53.875000000000000 35.875000000000000 43.225000000000023 46.700000000000045 37.899999999999977 C46.700000000000045 35.699999999999989 46.700000000000045 31.300000000000011 46.700000000000045 29.100000000000023 C35.875000000000000 23.800000000000011 14.225000000000023 13.199999999999989 3.399999999999977 7.899999999999977 C3.399999999999977 10.475000000000023 3.399999999999977 15.625000000000000 3.399999999999977 18.199999999999989 C11.475000000000023 22.050000000000011 27.625000000000000 29.750000000000000 35.700000000000045 33.600000000000023 z" />
			<glyph
				unicode="?"
				horiz-adv-x="37"
				d="M16.800000000000001 33.799999999999997 C18.049999999999955 35.850000000000023 20.549999999999955 39.949999999999989 21.799999999999955 42.000000000000000 Q23.399999999999977 44.500000000000000 23.399999999999977 48.100000000000023 C23.399999999999977 49.833333333333314 23.399999999999977 52.000000000000000 23.399999999999977 53.300000000000011 Q23.399999999999977 55.300000000000011 22.000000000000000 56.500000000000000 Q20.600000000000023 57.699999999999989 18.500000000000000 57.699999999999989 Q16.100000000000023 57.699999999999989 15.049999999999955 56.199999999999989 Q14.000000000000000 54.699999999999989 14.000000000000000 52.199999999999989 C14.000000000000000 50.666666666666686 14.000000000000000 48.750000000000000 14.000000000000000 47.600000000000023 C11.625000000000000 47.600000000000023 6.875000000000000 47.600000000000023 4.500000000000000 47.600000000000023 C4.500000000000000 48.750000000000000 4.500000000000000 51.050000000000011 4.500000000000000 52.199999999999989 Q4.500000000000000 58.600000000000023 8.649999999999977 62.949999999999989 Q12.799999999999955 67.300000000000011 19.200000000000045 67.300000000000011 Q24.700000000000045 67.300000000000011 28.799999999999955 63.100000000000023 Q32.899999999999977 58.899999999999977 32.899999999999977 53.300000000000011 C32.899999999999977 51.399999999999977 32.899999999999977 49.024999999999977 32.899999999999977 47.600000000000023 Q32.899999999999977 42.699999999999989 30.600000000000023 38.600000000000023 C28.633333333333326 35.166666666666686 26.174999999999955 30.875000000000000 24.700000000000045 28.300000000000011 Q23.399999999999977 25.800000000000011 23.399999999999977 22.000000000000000 C23.399999999999977 20.233333333333348 23.399999999999977 18.024999999999977 23.399999999999977 16.699999999999989 C21.000000000000000 16.699999999999989 16.200000000000045 16.699999999999989 13.799999999999955 16.699999999999989 C13.799999999999955 18.024999999999977 13.799999999999955 20.675000000000011 13.799999999999955 22.000000000000000 Q13.799999999999955 25.899999999999977 14.350000000000023 28.350000000000023 Q14.899999999999977 30.800000000000011 16.799999999999955 33.800000000000011 zM13.800000000000001 0.000000000000000 C13.799999999999955 2.375000000000000 13.799999999999955 7.125000000000000 13.799999999999955 9.500000000000000 C16.200000000000045 9.500000000000000 21.000000000000000 9.500000000000000 23.399999999999977 9.500000000000000 C23.399999999999977 7.125000000000000 23.399999999999977 2.375000000000000 23.399999999999977 0.000000000000000 C21.000000000000000 0.000000000000000 16.200000000000045 0.000000000000000 13.799999999999955 0.000000000000000 z" />
			<glyph
				unicode="@"
				horiz-adv-x="80"
				d="M53.500000000000000 52.200000000000003 C53.500000000000000 44.750000000000000 53.500000000000000 29.850000000000023 53.500000000000000 22.399999999999977 Q53.500000000000000 20.699999999999989 55.100000000000023 20.699999999999989 Q58.600000000000023 20.699999999999989 63.350000000000023 26.550000000000011 Q68.100000000000023 32.399999999999977 68.100000000000023 40.100000000000023 Q68.100000000000023 49.600000000000023 62.299999999999955 54.000000000000000 Q56.500000000000000 58.399999999999977 51.899999999999977 60.000000000000000 Q47.399999999999977 61.699999999999989 42.899999999999977 61.699999999999989 Q36.600000000000023 61.699999999999989 31.149999999999977 59.449999999999989 Q25.700000000000045 57.199999999999989 21.299999999999955 53.000000000000000 Q17.000000000000000 48.800000000000011 14.649999999999977 43.300000000000011 Q12.299999999999955 37.800000000000011 12.299999999999955 31.600000000000023 Q12.299999999999955 25.399999999999977 14.750000000000000 19.750000000000000 Q17.200000000000045 14.100000000000023 21.500000000000000 10.100000000000023 Q25.799999999999955 6.100000000000023 31.500000000000000 4.000000000000000 Q37.200000000000045 1.899999999999977 42.899999999999977 1.899999999999977 Q48.200000000000045 1.899999999999977 52.799999999999955 3.250000000000000 Q57.399999999999977 4.600000000000023 60.700000000000045 6.800000000000011 Q64.000000000000000 9.100000000000023 65.500000000000000 10.800000000000011 Q67.000000000000000 12.500000000000000 69.000000000000000 15.300000000000011 C71.233333333333348 15.300000000000011 74.024999999999977 15.300000000000011 75.700000000000045 15.300000000000011 Q73.600000000000023 10.600000000000023 71.399999999999977 7.399999999999977 Q69.200000000000045 4.199999999999989 65.100000000000023 1.100000000000023 Q61.000000000000000 -1.899999999999977 55.149999999999977 -3.750000000000000 Q49.299999999999955 -5.600000000000023 43.200000000000045 -5.600000000000023 Q35.799999999999955 -5.600000000000023 28.950000000000045 -3.250000000000000 Q22.100000000000023 -0.899999999999977 16.500000000000000 4.100000000000023 Q10.899999999999977 9.199999999999989 7.700000000000045 16.399999999999977 Q4.500000000000000 23.600000000000023 4.500000000000000 31.600000000000023 Q4.500000000000000 39.100000000000023 7.350000000000023 45.899999999999977 Q10.200000000000045 52.699999999999989 15.299999999999955 57.899999999999977 Q20.399999999999977 63.199999999999989 27.149999999999977 66.149999999999977 Q33.899999999999977 69.100000000000023 41.500000000000000 69.100000000000023 Q48.600000000000023 69.100000000000023 54.600000000000023 67.300000000000011 Q60.600000000000023 65.500000000000000 65.500000000000000 61.300000000000011 Q70.399999999999977 57.199999999999989 73.149999999999977 51.600000000000023 Q75.899999999999977 46.000000000000000 75.899999999999977 39.800000000000011 Q75.899999999999977 28.699999999999989 70.600000000000023 22.750000000000000 Q65.299999999999955 16.800000000000011 60.299999999999955 14.000000000000000 Q55.399999999999977 11.199999999999989 51.100000000000023 11.199999999999989 Q48.500000000000000 11.199999999999989 47.250000000000000 12.949999999999989 Q46.000000000000000 14.699999999999989 45.500000000000000 15.600000000000023 Q44.100000000000023 13.600000000000023 42.200000000000045 12.399999999999977 Q40.299999999999955 11.199999999999989 37.899999999999977 11.199999999999989 Q35.700000000000045 11.199999999999989 33.500000000000000 12.500000000000000 Q31.299999999999955 13.800000000000011 30.500000000000000 15.300000000000011 Q29.700000000000045 16.800000000000011 29.500000000000000 18.050000000000011 Q29.299999999999955 19.300000000000011 29.299999999999955 20.600000000000023 C29.299999999999955 28.366666666666674 29.299999999999955 38.074999999999989 29.299999999999955 43.899999999999977 Q29.299999999999955 47.399999999999977 31.750000000000000 50.050000000000011 Q34.200000000000045 52.699999999999989 37.700000000000045 52.699999999999989 Q40.200000000000045 52.699999999999989 42.200000000000045 51.500000000000000 Q44.200000000000045 50.300000000000011 45.500000000000000 48.199999999999989 C45.500000000000000 49.533333333333360 45.500000000000000 51.199999999999989 45.500000000000000 52.199999999999989 C47.500000000000000 52.199999999999989 51.500000000000000 52.199999999999989 53.500000000000000 52.199999999999989 zM41.299999999999997 44.600000000000001 Q39.500000000000000 44.600000000000023 38.450000000000045 43.250000000000000 Q37.399999999999977 41.899999999999977 37.399999999999977 40.100000000000023 C37.399999999999977 34.933333333333337 37.399999999999977 28.475000000000023 37.399999999999977 24.600000000000023 Q37.399999999999977 22.100000000000023 38.250000000000000 20.699999999999989 Q39.100000000000023 19.300000000000011 41.399999999999977 19.300000000000011 Q43.899999999999977 19.300000000000011 44.600000000000023 20.600000000000023 Q45.299999999999955 21.899999999999977 45.399999999999977 22.800000000000011 Q45.500000000000000 23.800000000000011 45.500000000000000 24.600000000000023 C45.500000000000000 29.766666666666652 45.500000000000000 36.225000000000023 45.500000000000000 40.100000000000023 Q45.500000000000000 42.000000000000000 44.399999999999977 43.300000000000011 Q43.299999999999955 44.600000000000023 41.299999999999955 44.600000000000023 z" />
			<glyph
				unicode="A"
				horiz-adv-x="37"
				d="M0.100000000000000 0.000000000000000 C3.825000000000045 16.675000000000011 11.274999999999977 50.024999999999977 15.000000000000000 66.699999999999989 C17.075000000000045 66.699999999999989 21.225000000000023 66.699999999999989 23.299999999999955 66.699999999999989 C27.024999999999977 50.024999999999977 34.475000000000023 16.675000000000011 38.200000000000045 0.000000000000000 C35.649999999999977 0.000000000000000 30.549999999999955 0.000000000000000 28.000000000000000 0.000000000000000 C27.325000000000045 3.574999999999989 25.975000000000023 10.725000000000023 25.299999999999955 14.300000000000011 C22.200000000000045 14.300000000000011 16.000000000000000 14.300000000000011 12.899999999999977 14.300000000000011 C12.225000000000023 10.725000000000023 10.875000000000000 3.574999999999989 10.200000000000045 0.000000000000000 C7.674999999999955 0.000000000000000 2.625000000000000 0.000000000000000 0.100000000000023 0.000000000000000 zM14.600000000000000 23.199999999999999 C16.850000000000023 23.199999999999989 21.350000000000023 23.199999999999989 23.600000000000023 23.199999999999989 C22.475000000000023 29.274999999999977 20.225000000000023 41.425000000000011 19.100000000000023 47.500000000000000 C17.975000000000023 41.425000000000011 15.725000000000023 29.274999999999977 14.600000000000023 23.199999999999989 z" />
			<glyph
				unicode="B"
				horiz-adv-x="40"
				d="M20.899999999999999 66.700000000000003 Q23.799999999999955 66.699999999999989 26.700000000000045 65.399999999999977 Q29.600000000000023 64.100000000000023 32.799999999999955 60.899999999999977 Q36.000000000000000 57.699999999999989 36.000000000000000 51.000000000000000 C36.000000000000000 49.300000000000011 36.000000000000000 47.175000000000011 36.000000000000000 45.899999999999977 Q36.000000000000000 38.300000000000011 30.000000000000000 35.100000000000023 Q36.000000000000000 31.600000000000023 36.000000000000000 24.000000000000000 C36.000000000000000 21.399999999999977 36.000000000000000 18.149999999999977 36.000000000000000 16.199999999999989 Q36.000000000000000 9.199999999999989 31.500000000000000 4.600000000000023 Q27.000000000000000 0.000000000000000 19.899999999999977 0.000000000000000 C15.000000000000000 0.000000000000000 8.875000000000000 0.000000000000000 5.200000000000045 0.000000000000000 C5.200000000000045 16.675000000000011 5.200000000000045 50.024999999999977 5.200000000000045 66.699999999999989 C9.125000000000000 66.699999999999989 16.975000000000023 66.699999999999989 20.899999999999977 66.699999999999989 zM26.600000000000001 46.899999999999999 C26.600000000000023 47.925000000000011 26.600000000000023 49.975000000000023 26.600000000000023 51.000000000000000 Q26.600000000000023 54.100000000000023 24.799999999999955 55.899999999999977 Q23.000000000000000 57.699999999999989 20.000000000000000 57.699999999999989 C18.200000000000045 57.699999999999989 15.950000000000045 57.699999999999989 14.600000000000023 57.699999999999989 C14.600000000000023 53.100000000000023 14.600000000000023 43.899999999999977 14.600000000000023 39.300000000000011 C16.024999999999977 39.300000000000011 18.875000000000000 39.300000000000011 20.299999999999955 39.300000000000011 Q23.600000000000023 39.300000000000011 25.100000000000023 41.350000000000023 Q26.600000000000023 43.399999999999977 26.600000000000023 46.899999999999977 zM26.600000000000001 16.199999999999999 C26.600000000000023 18.149999999999977 26.600000000000023 22.050000000000011 26.600000000000023 24.000000000000000 Q26.600000000000023 27.199999999999989 24.850000000000023 29.050000000000011 Q23.100000000000023 30.899999999999977 20.000000000000000 30.899999999999977 C18.200000000000045 30.899999999999977 15.950000000000045 30.899999999999977 14.600000000000023 30.899999999999977 C14.600000000000023 25.550000000000011 14.600000000000023 14.850000000000023 14.600000000000023 9.500000000000000 C15.975000000000023 9.500000000000000 18.725000000000023 9.500000000000000 20.100000000000023 9.500000000000000 Q23.000000000000000 9.500000000000000 24.799999999999955 11.399999999999977 Q26.600000000000023 13.300000000000011 26.600000000000023 16.199999999999989 z" />
			<glyph
				unicode="C"
				horiz-adv-x="38"
				d="M35.399999999999999 16.800000000000001 Q35.399999999999977 13.600000000000023 35.049999999999955 11.350000000000023 Q34.700000000000045 9.100000000000023 33.000000000000000 6.399999999999977 Q31.399999999999977 3.699999999999989 27.850000000000023 1.550000000000011 Q24.299999999999955 -0.600000000000023 20.600000000000023 -0.600000000000023 Q16.200000000000045 -0.600000000000023 12.549999999999955 1.300000000000011 Q8.899999999999977 3.199999999999989 7.200000000000045 6.100000000000023 Q5.500000000000000 9.000000000000000 5.049999999999955 11.449999999999989 Q4.600000000000023 13.899999999999977 4.600000000000023 16.800000000000011 C4.600000000000023 28.266666666666652 4.600000000000023 42.600000000000023 4.600000000000023 51.199999999999989 Q4.600000000000023 54.000000000000000 5.149999999999977 56.199999999999989 Q5.700000000000045 58.399999999999977 7.500000000000000 61.000000000000000 Q9.299999999999955 63.600000000000023 12.549999999999955 65.449999999999989 Q15.799999999999955 67.300000000000011 19.399999999999977 67.300000000000011 Q26.299999999999955 67.300000000000011 30.850000000000023 62.750000000000000 Q35.399999999999977 58.199999999999989 35.399999999999977 51.199999999999989 C35.399999999999977 50.000000000000000 35.399999999999977 48.500000000000000 35.399999999999977 47.600000000000023 C33.049999999999955 47.600000000000023 28.350000000000023 47.600000000000023 26.000000000000000 47.600000000000023 C26.000000000000000 48.500000000000000 26.000000000000000 50.300000000000011 26.000000000000000 51.199999999999989 Q26.000000000000000 54.000000000000000 24.450000000000045 55.850000000000023 Q22.899999999999977 57.699999999999989 19.899999999999977 57.699999999999989 Q17.100000000000023 57.699999999999989 15.549999999999955 55.850000000000023 Q14.000000000000000 54.000000000000000 14.000000000000000 51.199999999999989 C14.000000000000000 39.733333333333348 14.000000000000000 25.399999999999977 14.000000000000000 16.800000000000011 Q14.000000000000000 15.500000000000000 14.049999999999955 14.199999999999989 Q14.100000000000023 12.899999999999977 15.399999999999977 10.899999999999977 Q16.700000000000045 8.899999999999977 20.000000000000000 8.899999999999977 Q23.500000000000000 8.899999999999977 24.549999999999955 10.649999999999977 Q25.600000000000023 12.399999999999977 25.799999999999955 13.199999999999989 Q26.000000000000000 14.100000000000023 26.000000000000000 15.600000000000023 C26.000000000000000 16.000000000000000 26.000000000000000 16.500000000000000 26.000000000000000 16.800000000000011 C26.000000000000000 17.350000000000023 26.000000000000000 18.449999999999989 26.000000000000000 19.000000000000000 C28.350000000000023 19.000000000000000 33.049999999999955 19.000000000000000 35.399999999999977 19.000000000000000 C35.399999999999977 18.449999999999989 35.399999999999977 17.350000000000023 35.399999999999977 16.800000000000011 z" />
			<glyph
				unicode="D"
				horiz-adv-x="40"
				d="M20.300000000000001 66.700000000000003 Q26.700000000000045 66.699999999999989 31.350000000000023 62.149999999999977 Q36.000000000000000 57.600000000000023 36.000000000000000 51.199999999999989 C36.000000000000000 39.633333333333326 36.000000000000000 25.175000000000011 36.000000000000000 16.500000000000000 Q36.000000000000000 9.300000000000011 31.549999999999955 4.649999999999977 Q27.100000000000023 0.000000000000000 20.000000000000000 0.000000000000000 C15.066666666666720 0.000000000000000 8.899999999999977 0.000000000000000 5.200000000000045 0.000000000000000 C5.200000000000045 16.675000000000011 5.200000000000045 50.024999999999977 5.200000000000045 66.699999999999989 C8.975000000000023 66.699999999999989 16.524999999999977 66.699999999999989 20.299999999999955 66.699999999999989 zM26.600000000000001 16.500000000000000 C26.600000000000023 25.175000000000011 26.600000000000023 42.524999999999977 26.600000000000023 51.199999999999989 Q26.600000000000023 54.000000000000000 24.549999999999955 55.850000000000023 Q22.500000000000000 57.699999999999989 19.600000000000023 57.699999999999989 C17.933333333333280 57.699999999999989 15.850000000000023 57.699999999999989 14.600000000000023 57.699999999999989 C14.600000000000023 45.500000000000000 14.600000000000023 21.100000000000023 14.600000000000023 8.899999999999977 C15.774999999999977 8.899999999999977 18.125000000000000 8.899999999999977 19.299999999999955 8.899999999999977 Q26.600000000000023 8.899999999999977 26.600000000000023 16.500000000000000 z" />
			<glyph
				unicode="E"
				horiz-adv-x="37"
				d="M33.700000000000003 9.600000000000000 C33.700000000000045 7.199999999999989 33.700000000000045 2.399999999999977 33.700000000000045 0.000000000000000 C26.575000000000045 0.000000000000000 12.325000000000045 0.000000000000000 5.200000000000045 0.000000000000000 C5.200000000000045 16.675000000000011 5.200000000000045 50.024999999999977 5.200000000000045 66.699999999999989 C12.325000000000045 66.699999999999989 26.575000000000045 66.699999999999989 33.700000000000045 66.699999999999989 C33.700000000000045 64.500000000000000 33.700000000000045 60.100000000000023 33.700000000000045 57.899999999999977 C28.924999999999955 57.899999999999977 19.375000000000000 57.899999999999977 14.600000000000023 57.899999999999977 C14.600000000000023 52.975000000000023 14.600000000000023 43.125000000000000 14.600000000000023 38.199999999999989 C18.799999999999955 38.199999999999989 27.200000000000045 38.199999999999989 31.399999999999977 38.199999999999989 C31.399999999999977 35.949999999999989 31.399999999999977 31.449999999999989 31.399999999999977 29.199999999999989 C27.200000000000045 29.199999999999989 18.799999999999955 29.199999999999989 14.600000000000023 29.199999999999989 C14.600000000000023 24.300000000000011 14.600000000000023 14.500000000000000 14.600000000000023 9.600000000000023 C19.375000000000000 9.600000000000023 28.924999999999955 9.600000000000023 33.700000000000045 9.600000000000023 z" />
			<glyph
				unicode="F"
				horiz-adv-x="36"
				d="M5.200000000000000 0.000000000000000 C5.200000000000045 16.675000000000011 5.200000000000045 50.024999999999977 5.200000000000045 66.699999999999989 C12.299999999999955 66.699999999999989 26.500000000000000 66.699999999999989 33.600000000000023 66.699999999999989 C33.600000000000023 64.449999999999989 33.600000000000023 59.949999999999989 33.600000000000023 57.699999999999989 C28.850000000000023 57.699999999999989 19.350000000000023 57.699999999999989 14.600000000000023 57.699999999999989 C14.600000000000023 52.699999999999989 14.600000000000023 42.699999999999989 14.600000000000023 37.699999999999989 C18.774999999999977 37.699999999999989 27.125000000000000 37.699999999999989 31.299999999999955 37.699999999999989 C31.299999999999955 35.475000000000023 31.299999999999955 31.024999999999977 31.299999999999955 28.800000000000011 C27.125000000000000 28.800000000000011 18.774999999999977 28.800000000000011 14.600000000000023 28.800000000000011 C14.600000000000023 21.600000000000023 14.600000000000023 7.199999999999989 14.600000000000023 0.000000000000000 C12.250000000000000 0.000000000000000 7.549999999999955 0.000000000000000 5.200000000000045 0.000000000000000 z" />
			<glyph
				unicode="G"
				horiz-adv-x="40"
				d="M34.200000000000003 7.000000000000000 Q32.000000000000000 3.399999999999977 28.399999999999977 1.399999999999977 Q24.799999999999955 -0.600000000000023 20.500000000000000 -0.600000000000023 Q16.700000000000045 -0.600000000000023 13.200000000000045 1.199999999999989 Q9.700000000000045 3.000000000000000 7.700000000000045 5.600000000000023 Q5.799999999999955 8.300000000000011 5.149999999999977 10.949999999999989 Q4.500000000000000 13.600000000000023 4.500000000000000 17.000000000000000 C4.500000000000000 28.133333333333326 4.500000000000000 42.050000000000011 4.500000000000000 50.399999999999977 Q4.500000000000000 53.100000000000023 5.049999999999955 55.350000000000023 Q5.600000000000023 57.600000000000023 8.700000000000045 62.399999999999977 Q11.799999999999955 67.300000000000011 20.799999999999955 67.300000000000011 Q24.799999999999955 67.300000000000011 28.299999999999955 65.399999999999977 Q31.799999999999955 63.500000000000000 33.600000000000023 60.699999999999989 Q35.399999999999977 58.000000000000000 35.950000000000045 55.600000000000023 Q36.500000000000000 53.199999999999989 36.500000000000000 50.399999999999977 C36.500000000000000 49.466666666666697 36.500000000000000 48.300000000000011 36.500000000000000 47.600000000000023 C34.149999999999977 47.600000000000023 29.450000000000045 47.600000000000023 27.100000000000023 47.600000000000023 C27.100000000000023 48.300000000000011 27.100000000000023 49.699999999999989 27.100000000000023 50.399999999999977 Q27.100000000000023 52.100000000000023 26.950000000000045 53.050000000000011 Q26.799999999999955 54.000000000000000 25.399999999999977 55.899999999999977 Q24.100000000000023 57.800000000000011 20.700000000000045 57.800000000000011 Q16.799999999999955 57.800000000000011 15.549999999999955 55.750000000000000 Q14.299999999999955 53.699999999999989 14.100000000000023 52.699999999999989 Q13.899999999999977 51.699999999999989 13.899999999999977 50.399999999999977 C13.899999999999977 39.266666666666652 13.899999999999977 25.350000000000023 13.899999999999977 17.000000000000000 Q13.899999999999977 15.100000000000023 14.049999999999955 14.149999999999977 Q14.200000000000045 13.199999999999989 15.500000000000000 11.100000000000023 Q16.899999999999977 9.000000000000000 20.600000000000023 9.000000000000000 Q24.600000000000023 9.000000000000000 25.649999999999977 11.100000000000023 Q26.700000000000045 13.199999999999989 26.899999999999977 14.199999999999989 Q27.100000000000023 15.199999999999989 27.100000000000023 17.000000000000000 C27.100000000000023 20.899999999999977 27.100000000000023 25.774999999999977 27.100000000000023 28.699999999999989 C25.174999999999955 28.699999999999989 21.325000000000045 28.699999999999989 19.399999999999977 28.699999999999989 C19.399999999999977 30.774999999999977 19.399999999999977 34.925000000000011 19.399999999999977 37.000000000000000 C23.674999999999955 37.000000000000000 32.225000000000023 37.000000000000000 36.500000000000000 37.000000000000000 C36.500000000000000 32.000000000000000 36.500000000000000 22.000000000000000 36.500000000000000 17.000000000000000 Q36.500000000000000 12.800000000000011 36.000000000000000 10.949999999999989 Q35.500000000000000 9.100000000000023 34.200000000000045 7.000000000000000 z" />
			<glyph
				unicode="H"
				horiz-adv-x="41"
				d="M5.200000000000000 0.000000000000000 C5.200000000000045 16.675000000000011 5.200000000000045 50.024999999999977 5.200000000000045 66.699999999999989 C7.549999999999955 66.699999999999989 12.250000000000000 66.699999999999989 14.600000000000023 66.699999999999989 C14.600000000000023 59.574999999999989 14.600000000000023 45.324999999999989 14.600000000000023 38.199999999999989 C17.649999999999977 38.199999999999989 23.750000000000000 38.199999999999989 26.799999999999955 38.199999999999989 C26.799999999999955 45.324999999999989 26.799999999999955 59.574999999999989 26.799999999999955 66.699999999999989 C29.149999999999977 66.699999999999989 33.850000000000023 66.699999999999989 36.200000000000045 66.699999999999989 C36.200000000000045 50.024999999999977 36.200000000000045 16.675000000000011 36.200000000000045 0.000000000000000 C33.850000000000023 0.000000000000000 29.149999999999977 0.000000000000000 26.799999999999955 0.000000000000000 C26.799999999999955 7.449999999999989 26.799999999999955 22.350000000000023 26.799999999999955 29.800000000000011 C23.750000000000000 29.800000000000011 17.649999999999977 29.800000000000011 14.600000000000023 29.800000000000011 C14.600000000000023 22.350000000000023 14.600000000000023 7.449999999999989 14.600000000000023 0.000000000000000 C12.250000000000000 0.000000000000000 7.549999999999955 0.000000000000000 5.200000000000045 0.000000000000000 z" />
			<glyph
				unicode="I"
				horiz-adv-x="19"
				d="M5.200000000000000 0.000000000000000 C5.200000000000045 16.675000000000011 5.200000000000045 50.024999999999977 5.200000000000045 66.699999999999989 C7.549999999999955 66.699999999999989 12.250000000000000 66.699999999999989 14.600000000000023 66.699999999999989 C14.600000000000023 50.024999999999977 14.600000000000023 16.675000000000011 14.600000000000023 0.000000000000000 C12.250000000000000 0.000000000000000 7.549999999999955 0.000000000000000 5.200000000000045 0.000000000000000 z" />
			<glyph
				unicode="J"
				horiz-adv-x="32"
				d="M25.600000000000001 6.700000000000000 Q23.399999999999977 3.399999999999977 19.899999999999977 1.399999999999977 Q16.399999999999977 -0.600000000000023 12.500000000000000 -0.600000000000023 Q8.799999999999955 -0.600000000000023 5.450000000000045 1.050000000000011 Q2.100000000000023 2.699999999999989 -0.500000000000000 5.600000000000023 C1.966666666666697 7.566666666666663 5.049999999999955 10.024999999999977 6.899999999999977 11.500000000000000 Q9.299999999999955 9.100000000000023 12.299999999999955 9.100000000000023 Q16.500000000000000 9.100000000000023 17.549999999999955 11.300000000000011 Q18.600000000000023 13.500000000000000 18.700000000000045 14.399999999999977 Q18.799999999999955 15.300000000000011 18.799999999999955 16.500000000000000 C18.799999999999955 17.233333333333348 18.799999999999955 18.149999999999977 18.799999999999955 18.699999999999989 C18.799999999999955 30.699999999999989 18.799999999999955 54.699999999999989 18.799999999999955 66.699999999999989 C21.149999999999977 66.699999999999989 25.850000000000023 66.699999999999989 28.200000000000045 66.699999999999989 C28.200000000000045 54.375000000000000 28.200000000000045 29.725000000000023 28.200000000000045 17.399999999999977 Q28.200000000000045 12.699999999999989 27.649999999999977 10.850000000000023 Q27.100000000000023 9.000000000000000 25.600000000000023 6.699999999999989 z" />
			<glyph
				unicode="K"
				horiz-adv-x="42"
				d="M30.800000000000001 0.000000000000000 C28.125000000000000 7.449999999999989 22.774999999999977 22.350000000000023 20.100000000000023 29.800000000000011 C18.774999999999977 27.324999999999989 16.125000000000000 22.375000000000000 14.799999999999955 19.899999999999977 C14.799999999999955 14.925000000000011 14.799999999999955 4.975000000000023 14.799999999999955 0.000000000000000 C12.450000000000045 0.000000000000000 7.750000000000000 0.000000000000000 5.399999999999977 0.000000000000000 C5.399999999999977 16.675000000000011 5.399999999999977 50.024999999999977 5.399999999999977 66.699999999999989 C7.774999999999977 66.699999999999989 12.524999999999977 66.699999999999989 14.899999999999977 66.699999999999989 C14.899999999999977 59.024999999999977 14.899999999999977 43.675000000000011 14.899999999999977 36.000000000000000 C18.475000000000023 43.675000000000011 25.625000000000000 59.024999999999977 29.200000000000045 66.699999999999989 C31.549999999999955 66.699999999999989 36.250000000000000 66.699999999999989 38.600000000000023 66.699999999999989 C35.350000000000023 60.050000000000011 28.850000000000023 46.750000000000000 25.600000000000023 40.100000000000023 C29.424999999999955 30.074999999999989 37.075000000000045 10.024999999999977 40.899999999999977 0.000000000000000 C38.375000000000000 0.000000000000000 33.325000000000045 0.000000000000000 30.799999999999955 0.000000000000000 z" />
			<glyph
				unicode="L"
				horiz-adv-x="35"
				d="M33.700000000000003 0.000000000000000 C26.600000000000023 0.000000000000000 12.399999999999977 0.000000000000000 5.299999999999955 0.000000000000000 C5.299999999999955 16.675000000000011 5.299999999999955 50.024999999999977 5.299999999999955 66.699999999999989 C7.674999999999955 66.699999999999989 12.424999999999955 66.699999999999989 14.799999999999955 66.699999999999989 C14.799999999999955 52.425000000000011 14.799999999999955 23.875000000000000 14.799999999999955 9.600000000000023 C19.524999999999977 9.600000000000023 28.975000000000023 9.600000000000023 33.700000000000045 9.600000000000023 C33.700000000000045 7.199999999999989 33.700000000000045 2.399999999999977 33.700000000000045 0.000000000000000 z" />
			<glyph
				unicode="M"
				horiz-adv-x="53"
				d="M38.500000000000000 0.000000000000000 C38.500000000000000 10.149999999999977 38.500000000000000 30.449999999999989 38.500000000000000 40.600000000000023 C36.125000000000000 33.475000000000023 31.375000000000000 19.225000000000023 29.000000000000000 12.100000000000023 C27.799999999999955 12.100000000000023 25.399999999999977 12.100000000000023 24.200000000000045 12.100000000000023 C21.825000000000045 19.225000000000023 17.075000000000045 33.475000000000023 14.700000000000045 40.600000000000023 C14.700000000000045 30.449999999999989 14.700000000000045 10.149999999999977 14.700000000000045 0.000000000000000 C12.325000000000045 0.000000000000000 7.575000000000045 0.000000000000000 5.200000000000045 0.000000000000000 C5.200000000000045 16.675000000000011 5.200000000000045 50.024999999999977 5.200000000000045 66.699999999999989 C7.424999999999955 66.699999999999989 11.875000000000000 66.699999999999989 14.100000000000023 66.699999999999989 C17.274999999999977 57.824999999999989 23.625000000000000 40.074999999999989 26.799999999999955 31.199999999999989 C29.899999999999977 40.074999999999989 36.100000000000023 57.824999999999989 39.200000000000045 66.699999999999989 C41.399999999999977 66.699999999999989 45.799999999999955 66.699999999999989 48.000000000000000 66.699999999999989 C48.000000000000000 50.024999999999977 48.000000000000000 16.675000000000011 48.000000000000000 0.000000000000000 C45.625000000000000 0.000000000000000 40.875000000000000 0.000000000000000 38.500000000000000 0.000000000000000 z" />
			<glyph
				unicode="N"
				horiz-adv-x="43"
				d="M29.600000000000001 0.000000000000000 C25.875000000000000 10.125000000000000 18.424999999999955 30.375000000000000 14.700000000000045 40.500000000000000 C14.700000000000045 30.375000000000000 14.700000000000045 10.125000000000000 14.700000000000045 0.000000000000000 C12.325000000000045 0.000000000000000 7.575000000000045 0.000000000000000 5.200000000000045 0.000000000000000 C5.200000000000045 16.675000000000011 5.200000000000045 50.024999999999977 5.200000000000045 66.699999999999989 C7.450000000000045 66.699999999999989 11.950000000000045 66.699999999999989 14.200000000000045 66.699999999999989 C17.899999999999977 56.600000000000023 25.299999999999955 36.399999999999977 29.000000000000000 26.300000000000011 C29.000000000000000 36.399999999999977 29.000000000000000 56.600000000000023 29.000000000000000 66.699999999999989 C31.375000000000000 66.699999999999989 36.125000000000000 66.699999999999989 38.500000000000000 66.699999999999989 C38.500000000000000 50.024999999999977 38.500000000000000 16.675000000000011 38.500000000000000 0.000000000000000 C36.274999999999977 0.000000000000000 31.825000000000045 0.000000000000000 29.600000000000023 0.000000000000000 z" />
			<glyph
				unicode="O"
				horiz-adv-x="41"
				d="M7.400000000000000 60.399999999999999 Q9.700000000000045 63.600000000000023 13.200000000000045 65.449999999999989 Q16.700000000000045 67.300000000000011 20.500000000000000 67.300000000000011 Q24.200000000000045 67.300000000000011 27.450000000000045 65.800000000000011 Q30.700000000000045 64.300000000000011 32.799999999999955 61.699999999999989 Q35.000000000000000 59.100000000000023 35.799999999999955 56.399999999999977 Q36.600000000000023 53.699999999999989 36.600000000000023 50.500000000000000 C36.600000000000023 39.166666666666686 36.600000000000023 25.000000000000000 36.600000000000023 16.500000000000000 Q36.600000000000023 13.500000000000000 36.049999999999955 11.250000000000000 Q35.500000000000000 9.000000000000000 33.700000000000045 6.199999999999989 Q31.899999999999977 3.399999999999977 28.399999999999977 1.399999999999977 Q24.899999999999977 -0.600000000000023 20.799999999999955 -0.600000000000023 Q16.100000000000023 -0.600000000000023 12.149999999999977 1.800000000000011 Q8.200000000000045 4.199999999999989 6.600000000000023 7.199999999999989 Q5.100000000000023 10.300000000000011 4.799999999999955 12.149999999999977 Q4.500000000000000 14.000000000000000 4.500000000000000 16.500000000000000 C4.500000000000000 27.833333333333314 4.500000000000000 42.000000000000000 4.500000000000000 50.500000000000000 Q4.500000000000000 53.500000000000000 5.149999999999977 55.800000000000011 Q5.799999999999955 58.100000000000023 7.399999999999977 60.399999999999977 zM25.899999999999999 55.200000000000003 Q23.899999999999977 57.899999999999977 20.700000000000045 57.899999999999977 Q19.000000000000000 57.899999999999977 17.350000000000023 56.949999999999989 Q15.700000000000045 56.000000000000000 15.000000000000000 54.800000000000011 Q14.399999999999977 53.699999999999989 14.200000000000045 52.500000000000000 Q14.000000000000000 51.300000000000011 14.000000000000000 50.500000000000000 C14.000000000000000 39.166666666666686 14.000000000000000 25.000000000000000 14.000000000000000 16.500000000000000 Q14.000000000000000 15.500000000000000 14.149999999999977 14.300000000000011 Q14.299999999999955 13.100000000000023 15.700000000000045 11.000000000000000 Q17.200000000000045 9.000000000000000 20.700000000000045 9.000000000000000 Q22.500000000000000 9.000000000000000 23.950000000000045 9.850000000000023 Q25.399999999999977 10.699999999999989 26.000000000000000 11.800000000000011 Q26.700000000000045 12.899999999999977 26.899999999999977 13.899999999999977 Q27.100000000000023 14.899999999999977 27.100000000000023 16.500000000000000 C27.100000000000023 27.833333333333314 27.100000000000023 42.000000000000000 27.100000000000023 50.500000000000000 Q27.100000000000023 52.500000000000000 26.950000000000045 53.300000000000011 Q26.799999999999955 54.100000000000023 25.899999999999977 55.199999999999989 z" />
			<glyph
				unicode="P"
				horiz-adv-x="37"
				d="M5.200000000000000 0.000000000000000 C5.200000000000045 16.675000000000011 5.200000000000045 50.024999999999977 5.200000000000045 66.699999999999989 C9.100000000000023 66.699999999999989 16.899999999999977 66.699999999999989 20.799999999999955 66.699999999999989 Q23.700000000000045 66.699999999999989 26.600000000000023 65.500000000000000 Q29.500000000000000 64.300000000000011 31.399999999999977 62.300000000000011 Q33.399999999999977 60.399999999999977 34.750000000000000 57.699999999999989 Q36.100000000000023 55.000000000000000 36.100000000000023 52.500000000000000 C36.100000000000023 49.266666666666652 36.100000000000023 45.225000000000023 36.100000000000023 42.800000000000011 Q36.100000000000023 39.100000000000023 35.100000000000023 36.199999999999989 Q34.100000000000023 33.300000000000011 31.600000000000023 30.800000000000011 Q29.200000000000045 28.399999999999977 26.350000000000023 27.350000000000023 Q23.500000000000000 26.300000000000011 19.700000000000045 26.300000000000011 C18.033333333333303 26.300000000000011 15.950000000000045 26.300000000000011 14.700000000000045 26.300000000000011 C14.700000000000045 19.725000000000023 14.700000000000045 6.574999999999989 14.700000000000045 0.000000000000000 C12.325000000000045 0.000000000000000 7.575000000000045 0.000000000000000 5.200000000000045 0.000000000000000 zM25.399999999999999 37.200000000000003 Q26.299999999999955 38.100000000000023 26.549999999999955 39.100000000000023 Q26.799999999999955 40.100000000000023 26.799999999999955 41.600000000000023 C26.799999999999955 42.000000000000000 26.799999999999955 42.500000000000000 26.799999999999955 42.800000000000011 C26.799999999999955 44.975000000000023 26.799999999999955 49.324999999999989 26.799999999999955 51.500000000000000 Q26.799999999999955 54.300000000000011 25.100000000000023 56.100000000000023 Q23.399999999999977 57.899999999999977 20.500000000000000 57.899999999999977 C18.566666666666720 57.899999999999977 16.149999999999977 57.899999999999977 14.700000000000045 57.899999999999977 C14.700000000000045 52.250000000000000 14.700000000000045 40.949999999999989 14.700000000000045 35.300000000000011 C15.950000000000045 35.300000000000011 18.450000000000045 35.300000000000011 19.700000000000045 35.300000000000011 Q21.700000000000045 35.300000000000011 22.950000000000045 35.649999999999977 Q24.200000000000045 36.000000000000000 25.399999999999977 37.199999999999989 z" />
			<glyph
				unicode="Q"
				horiz-adv-x="40"
				d="M8.300000000000001 5.200000000000000 Q6.000000000000000 7.699999999999989 5.250000000000000 10.449999999999989 Q4.500000000000000 13.199999999999989 4.500000000000000 17.000000000000000 C4.500000000000000 28.066666666666663 4.500000000000000 41.899999999999977 4.500000000000000 50.199999999999989 Q4.500000000000000 57.399999999999977 9.049999999999955 62.350000000000023 Q13.600000000000023 67.300000000000011 20.799999999999955 67.300000000000011 Q27.299999999999955 67.300000000000011 32.049999999999955 62.649999999999977 Q36.799999999999955 58.000000000000000 36.799999999999955 51.500000000000000 C36.799999999999955 40.000000000000000 36.799999999999955 25.625000000000000 36.799999999999955 17.000000000000000 Q36.799999999999955 14.100000000000023 36.549999999999955 12.699999999999989 Q36.299999999999955 11.300000000000011 35.700000000000045 10.000000000000000 C37.799999999999955 8.233333333333348 40.424999999999955 6.024999999999977 42.000000000000000 4.699999999999989 C40.674999999999955 3.100000000000023 38.024999999999977 -0.100000000000023 36.700000000000045 -1.699999999999989 C35.225000000000023 -0.500000000000000 32.274999999999977 1.899999999999977 30.799999999999955 3.100000000000023 Q26.500000000000000 -0.500000000000000 20.200000000000045 -0.500000000000000 Q16.899999999999977 -0.500000000000000 13.700000000000045 1.100000000000023 Q10.500000000000000 2.699999999999989 8.299999999999955 5.199999999999989 zM24.100000000000001 19.500000000000000 C24.899999999999977 18.875000000000000 26.500000000000000 17.625000000000000 27.299999999999955 17.000000000000000 C27.299999999999955 25.300000000000011 27.299999999999955 41.899999999999977 27.299999999999955 50.199999999999989 Q27.299999999999955 53.399999999999977 25.500000000000000 55.600000000000023 Q23.700000000000045 57.800000000000011 20.500000000000000 57.800000000000011 Q18.500000000000000 57.800000000000011 17.000000000000000 56.800000000000011 Q15.500000000000000 55.800000000000011 14.799999999999955 54.399999999999977 Q14.200000000000045 53.100000000000023 14.100000000000023 52.350000000000023 Q14.000000000000000 51.600000000000023 14.000000000000000 50.199999999999989 C14.000000000000000 39.133333333333326 14.000000000000000 25.300000000000011 14.000000000000000 17.000000000000000 Q14.000000000000000 15.199999999999989 14.250000000000000 13.949999999999989 Q14.500000000000000 12.699999999999989 15.399999999999977 11.500000000000000 Q16.399999999999977 10.300000000000011 17.649999999999977 9.600000000000023 Q18.899999999999977 8.899999999999977 20.799999999999955 8.899999999999977 Q21.899999999999977 8.899999999999977 23.200000000000045 9.500000000000000 C21.733333333333348 10.699999999999989 19.899999999999977 12.199999999999989 18.799999999999955 13.100000000000023 C20.125000000000000 14.699999999999989 22.774999999999977 17.899999999999977 24.100000000000023 19.500000000000000 z" />
			<glyph
				unicode="R"
				horiz-adv-x="41"
				d="M5.100000000000000 0.000000000000000 C5.100000000000023 16.675000000000011 5.100000000000023 50.024999999999977 5.100000000000023 66.699999999999989 C9.274999999999977 66.699999999999989 17.625000000000000 66.699999999999989 21.799999999999955 66.699999999999989 Q28.399999999999977 66.699999999999989 32.899999999999977 62.100000000000023 Q37.399999999999977 57.500000000000000 37.399999999999977 50.899999999999977 C37.399999999999977 48.833333333333314 37.399999999999977 46.250000000000000 37.399999999999977 44.699999999999989 Q37.399999999999977 35.500000000000000 29.600000000000023 30.600000000000023 C32.966666666666697 20.399999999999977 37.174999999999955 7.649999999999977 39.700000000000045 0.000000000000000 C37.174999999999955 0.000000000000000 32.125000000000000 0.000000000000000 29.600000000000023 0.000000000000000 C27.350000000000023 7.149999999999977 22.850000000000023 21.449999999999989 20.600000000000023 28.600000000000023 C19.100000000000023 28.600000000000023 16.100000000000023 28.600000000000023 14.600000000000023 28.600000000000023 C14.600000000000023 21.449999999999989 14.600000000000023 7.149999999999977 14.600000000000023 0.000000000000000 C12.225000000000023 0.000000000000000 7.475000000000023 0.000000000000000 5.100000000000023 0.000000000000000 zM26.300000000000001 39.100000000000001 Q27.200000000000045 40.199999999999989 27.549999999999955 41.600000000000023 Q27.899999999999977 43.000000000000000 27.899999999999977 44.699999999999989 C27.899999999999977 46.766666666666652 27.899999999999977 49.350000000000023 27.899999999999977 50.899999999999977 Q27.899999999999977 54.000000000000000 26.200000000000045 55.899999999999977 Q24.500000000000000 57.800000000000011 21.399999999999977 57.800000000000011 C19.133333333333326 57.800000000000011 16.299999999999955 57.800000000000011 14.600000000000023 57.800000000000011 C14.600000000000023 52.600000000000023 14.600000000000023 42.199999999999989 14.600000000000023 37.000000000000000 C16.274999999999977 37.000000000000000 19.625000000000000 37.000000000000000 21.299999999999955 37.000000000000000 Q24.299999999999955 37.000000000000000 26.299999999999955 39.100000000000023 z" />
			<glyph
				unicode="S"
				horiz-adv-x="38"
				d="M12.199999999999999 16.600000000000001 Q12.200000000000045 14.699999999999989 12.350000000000023 13.750000000000000 Q12.500000000000000 12.800000000000011 13.799999999999955 10.800000000000011 Q15.200000000000045 8.899999999999977 18.799999999999955 8.899999999999977 Q20.799999999999955 8.899999999999977 22.500000000000000 9.750000000000000 Q24.200000000000045 10.600000000000023 25.000000000000000 11.899999999999977 Q25.799999999999955 13.300000000000011 25.850000000000023 14.750000000000000 Q25.899999999999977 16.199999999999989 25.899999999999977 16.699999999999989 C25.899999999999977 18.266666666666652 25.899999999999977 20.225000000000023 25.899999999999977 21.399999999999977 Q25.899999999999977 23.399999999999977 25.750000000000000 24.399999999999977 Q25.600000000000023 25.399999999999977 24.500000000000000 26.500000000000000 Q23.500000000000000 27.699999999999989 21.549999999999955 28.649999999999977 Q19.600000000000023 29.600000000000023 14.700000000000045 31.399999999999977 Q9.899999999999977 33.199999999999989 6.600000000000023 37.050000000000011 Q3.299999999999955 40.899999999999977 3.299999999999955 47.600000000000023 C3.299999999999955 48.600000000000023 3.299999999999955 49.850000000000023 3.299999999999955 50.600000000000023 Q3.299999999999955 57.399999999999977 7.850000000000023 62.350000000000023 Q12.399999999999977 67.300000000000011 19.200000000000045 67.300000000000011 Q26.100000000000023 67.300000000000011 30.750000000000000 62.449999999999989 Q35.399999999999977 57.600000000000023 35.399999999999977 50.600000000000023 C35.399999999999977 49.600000000000023 35.399999999999977 48.350000000000023 35.399999999999977 47.600000000000023 C33.024999999999977 47.600000000000023 28.274999999999977 47.600000000000023 25.899999999999977 47.600000000000023 C25.899999999999977 48.350000000000023 25.899999999999977 49.850000000000023 25.899999999999977 50.600000000000023 Q25.899999999999977 52.000000000000000 25.700000000000045 53.000000000000000 Q25.500000000000000 54.000000000000000 24.100000000000023 55.899999999999977 Q22.700000000000045 57.800000000000011 19.399999999999977 57.800000000000011 Q16.500000000000000 57.800000000000011 14.649999999999977 55.750000000000000 Q12.799999999999955 53.699999999999989 12.799999999999955 50.600000000000023 C12.799999999999955 49.600000000000023 12.799999999999955 48.350000000000023 12.799999999999955 47.600000000000023 Q12.799999999999955 45.699999999999989 12.950000000000045 44.850000000000023 Q13.100000000000023 44.000000000000000 14.000000000000000 42.899999999999977 Q14.899999999999977 41.800000000000011 16.600000000000023 41.000000000000000 Q18.299999999999955 40.199999999999989 23.100000000000023 38.399999999999977 Q28.000000000000000 36.699999999999989 31.700000000000045 32.750000000000000 Q35.399999999999977 28.800000000000011 35.399999999999977 22.000000000000000 C35.399999999999977 20.199999999999989 35.399999999999977 17.949999999999989 35.399999999999977 16.600000000000023 Q35.399999999999977 13.300000000000011 34.750000000000000 10.800000000000011 Q34.100000000000023 8.300000000000011 30.700000000000045 3.800000000000011 Q27.299999999999955 -0.600000000000023 19.000000000000000 -0.600000000000023 Q10.399999999999977 -0.600000000000023 6.500000000000000 5.050000000000011 Q2.600000000000023 10.699999999999989 2.600000000000023 16.600000000000023 C2.600000000000023 17.399999999999977 2.600000000000023 18.399999999999977 2.600000000000023 19.000000000000000 C5.000000000000000 19.000000000000000 9.799999999999955 19.000000000000000 12.200000000000045 19.000000000000000 C12.200000000000045 18.399999999999977 12.200000000000045 17.199999999999989 12.200000000000045 16.600000000000023 z" />
			<glyph
				unicode="T"
				horiz-adv-x="35"
				d="M12.800000000000001 0.000000000000000 C12.799999999999955 14.449999999999989 12.799999999999955 43.350000000000023 12.799999999999955 57.800000000000011 C10.000000000000000 57.800000000000011 4.399999999999977 57.800000000000011 1.600000000000023 57.800000000000011 C1.600000000000023 60.024999999999977 1.600000000000023 64.475000000000023 1.600000000000023 66.699999999999989 C9.625000000000000 66.699999999999989 25.674999999999955 66.699999999999989 33.700000000000045 66.699999999999989 C33.700000000000045 64.475000000000023 33.700000000000045 60.024999999999977 33.700000000000045 57.800000000000011 C30.850000000000023 57.800000000000011 25.149999999999977 57.800000000000011 22.299999999999955 57.800000000000011 C22.299999999999955 43.350000000000023 22.299999999999955 14.449999999999989 22.299999999999955 0.000000000000000 C19.924999999999955 0.000000000000000 15.174999999999955 0.000000000000000 12.799999999999955 0.000000000000000 z" />
			<glyph
				unicode="U"
				horiz-adv-x="41"
				d="M34.000000000000000 7.000000000000000 Q31.899999999999977 3.600000000000023 28.399999999999977 1.500000000000000 Q24.899999999999977 -0.600000000000023 20.799999999999955 -0.600000000000023 Q16.600000000000023 -0.600000000000023 12.850000000000023 1.550000000000011 Q9.100000000000023 3.699999999999989 7.600000000000023 6.399999999999977 Q6.100000000000023 9.199999999999989 5.649999999999977 11.250000000000000 Q5.200000000000045 13.300000000000011 5.200000000000045 15.699999999999989 C5.200000000000045 32.699999999999989 5.200000000000045 53.949999999999989 5.200000000000045 66.699999999999989 C7.575000000000045 66.699999999999989 12.325000000000045 66.699999999999989 14.700000000000045 66.699999999999989 C14.700000000000045 53.949999999999989 14.700000000000045 28.449999999999989 14.700000000000045 15.699999999999989 Q14.700000000000045 14.399999999999977 14.899999999999977 13.449999999999989 Q15.100000000000023 12.500000000000000 16.399999999999977 10.699999999999989 Q17.799999999999955 8.899999999999977 20.899999999999977 8.899999999999977 Q23.799999999999955 8.899999999999977 25.250000000000000 11.000000000000000 Q26.700000000000045 13.100000000000023 26.700000000000045 15.699999999999989 C26.700000000000045 32.699999999999989 26.700000000000045 53.949999999999989 26.700000000000045 66.699999999999989 C29.075000000000045 66.699999999999989 33.825000000000045 66.699999999999989 36.200000000000045 66.699999999999989 C36.200000000000045 53.949999999999989 36.200000000000045 28.449999999999989 36.200000000000045 15.699999999999989 Q36.200000000000045 13.300000000000011 35.700000000000045 11.149999999999977 Q35.200000000000045 9.000000000000000 34.000000000000000 7.000000000000000 z" />
			<glyph
				unicode="V"
				horiz-adv-x="36"
				d="M14.199999999999999 0.000000000000000 C10.799999999999955 16.675000000000011 4.000000000000000 50.024999999999977 0.600000000000023 66.699999999999989 C3.100000000000023 66.699999999999989 8.100000000000023 66.699999999999989 10.600000000000023 66.699999999999989 C12.524999999999977 55.125000000000000 16.375000000000000 31.975000000000023 18.299999999999955 20.399999999999977 C20.274999999999977 31.975000000000023 24.225000000000023 55.125000000000000 26.200000000000045 66.699999999999989 C28.725000000000023 66.699999999999989 33.774999999999977 66.699999999999989 36.299999999999955 66.699999999999989 C32.825000000000045 50.024999999999977 25.875000000000000 16.675000000000011 22.399999999999977 0.000000000000000 C20.350000000000023 0.000000000000000 16.250000000000000 0.000000000000000 14.200000000000045 0.000000000000000 z" />
			<glyph
				unicode="W"
				horiz-adv-x="53"
				d="M34.600000000000001 0.000000000000000 C32.649999999999977 10.149999999999977 28.750000000000000 30.449999999999989 26.799999999999955 40.600000000000023 C24.875000000000000 30.449999999999989 21.024999999999977 10.149999999999977 19.100000000000023 0.000000000000000 C16.899999999999977 0.000000000000000 12.500000000000000 0.000000000000000 10.299999999999955 0.000000000000000 C7.875000000000000 16.675000000000011 3.024999999999977 50.024999999999977 0.600000000000023 66.699999999999989 C3.149999999999977 66.699999999999989 8.250000000000000 66.699999999999989 10.799999999999955 66.699999999999989 C11.975000000000023 56.625000000000000 14.325000000000045 36.475000000000023 15.500000000000000 26.399999999999977 C17.424999999999955 36.475000000000023 21.274999999999977 56.625000000000000 23.200000000000045 66.699999999999989 C24.975000000000023 66.699999999999989 28.524999999999977 66.699999999999989 30.299999999999955 66.699999999999989 C32.250000000000000 56.625000000000000 36.149999999999977 36.475000000000023 38.100000000000023 26.399999999999977 C39.299999999999955 36.475000000000023 41.700000000000045 56.625000000000000 42.899999999999977 66.699999999999989 C45.424999999999955 66.699999999999989 50.475000000000023 66.699999999999989 53.000000000000000 66.699999999999989 C50.649999999999977 50.024999999999977 45.950000000000045 16.675000000000011 43.600000000000023 0.000000000000000 C41.350000000000023 0.000000000000000 36.850000000000023 0.000000000000000 34.600000000000023 0.000000000000000 z" />
			<glyph
				unicode="X"
				horiz-adv-x="38"
				d="M27.699999999999999 0.000000000000000 C25.625000000000000 5.649999999999977 21.475000000000023 16.949999999999989 19.399999999999977 22.600000000000023 C17.299999999999955 16.949999999999989 13.100000000000023 5.649999999999977 11.000000000000000 0.000000000000000 C8.475000000000023 0.000000000000000 3.424999999999955 0.000000000000000 0.899999999999977 0.000000000000000 C4.325000000000045 8.800000000000011 11.174999999999955 26.399999999999977 14.600000000000023 35.199999999999989 C11.500000000000000 43.074999999999989 5.299999999999955 58.824999999999989 2.200000000000045 66.699999999999989 C4.700000000000045 66.699999999999989 9.700000000000045 66.699999999999989 12.200000000000045 66.699999999999989 C14.000000000000000 61.800000000000011 17.600000000000023 52.000000000000000 19.399999999999977 47.100000000000023 C21.200000000000045 52.000000000000000 24.799999999999955 61.800000000000011 26.600000000000023 66.699999999999989 C29.100000000000023 66.699999999999989 34.100000000000023 66.699999999999989 36.600000000000023 66.699999999999989 C33.475000000000023 58.824999999999989 27.225000000000023 43.074999999999989 24.100000000000023 35.199999999999989 C27.524999999999977 26.399999999999977 34.375000000000000 8.800000000000011 37.799999999999955 0.000000000000000 C35.274999999999977 0.000000000000000 30.225000000000023 0.000000000000000 27.700000000000045 0.000000000000000 z" />
			<glyph
				unicode="Y"
				horiz-adv-x="34"
				d="M12.500000000000000 0.000000000000000 C12.500000000000000 7.175000000000011 12.500000000000000 21.524999999999977 12.500000000000000 28.699999999999989 C9.274999999999977 38.199999999999989 2.825000000000045 57.199999999999989 -0.399999999999977 66.699999999999989 C2.100000000000023 66.699999999999989 7.100000000000023 66.699999999999989 9.600000000000023 66.699999999999989 C11.524999999999977 60.175000000000011 15.375000000000000 47.125000000000000 17.299999999999955 40.600000000000023 C19.274999999999977 47.125000000000000 23.225000000000023 60.175000000000011 25.200000000000045 66.699999999999989 C27.700000000000045 66.699999999999989 32.700000000000045 66.699999999999989 35.200000000000045 66.699999999999989 C31.899999999999977 57.199999999999989 25.299999999999955 38.199999999999989 22.000000000000000 28.699999999999989 C22.000000000000000 21.524999999999977 22.000000000000000 7.175000000000011 22.000000000000000 0.000000000000000 C19.625000000000000 0.000000000000000 14.875000000000000 0.000000000000000 12.500000000000000 0.000000000000000 z" />
			<glyph
				unicode="Z"
				horiz-adv-x="34"
				d="M3.200000000000000 0.000000000000000 C3.200000000000045 2.149999999999977 3.200000000000045 6.449999999999989 3.200000000000045 8.600000000000023 C7.674999999999955 20.899999999999977 16.625000000000000 45.500000000000000 21.100000000000023 57.800000000000011 C16.950000000000045 57.800000000000011 8.649999999999977 57.800000000000011 4.500000000000000 57.800000000000011 C4.500000000000000 60.024999999999977 4.500000000000000 64.475000000000023 4.500000000000000 66.699999999999989 C11.325000000000045 66.699999999999989 24.975000000000023 66.699999999999989 31.799999999999955 66.699999999999989 C31.799999999999955 64.774999999999977 31.799999999999955 60.925000000000011 31.799999999999955 59.000000000000000 C27.325000000000045 46.649999999999977 18.375000000000000 21.949999999999989 13.899999999999977 9.600000000000023 C18.375000000000000 9.600000000000023 27.325000000000045 9.600000000000023 31.799999999999955 9.600000000000023 C31.799999999999955 7.199999999999989 31.799999999999955 2.399999999999977 31.799999999999955 0.000000000000000 C24.649999999999977 0.000000000000000 10.350000000000023 0.000000000000000 3.200000000000045 0.000000000000000 z" />
			<glyph
				unicode="["
				horiz-adv-x="28"
				d="M13.400000000000000 59.500000000000000 C13.399999999999977 42.350000000000023 13.399999999999977 8.050000000000011 13.399999999999977 -9.100000000000023 C15.799999999999955 -9.100000000000023 20.600000000000023 -9.100000000000023 23.000000000000000 -9.100000000000023 C23.000000000000000 -10.875000000000000 23.000000000000000 -14.424999999999955 23.000000000000000 -16.200000000000045 C18.549999999999955 -16.200000000000045 9.649999999999977 -16.200000000000045 5.200000000000045 -16.200000000000045 C5.200000000000045 4.500000000000000 5.200000000000045 45.899999999999977 5.200000000000045 66.600000000000023 C9.649999999999977 66.600000000000023 18.549999999999955 66.600000000000023 23.000000000000000 66.600000000000023 C23.000000000000000 64.824999999999989 23.000000000000000 61.274999999999977 23.000000000000000 59.500000000000000 C20.600000000000023 59.500000000000000 15.799999999999955 59.500000000000000 13.399999999999977 59.500000000000000 z" />
			<glyph
				unicode="\"
				horiz-adv-x="31"
				d="M25.500000000000000 0.000000000000000 C23.850000000000023 0.000000000000000 20.549999999999955 0.000000000000000 18.899999999999977 0.000000000000000 C15.674999999999955 16.675000000000011 9.225000000000023 50.024999999999977 6.000000000000000 66.699999999999989 C7.625000000000000 66.699999999999989 10.875000000000000 66.699999999999989 12.500000000000000 66.699999999999989 C15.750000000000000 50.024999999999977 22.250000000000000 16.675000000000011 25.500000000000000 0.000000000000000 z" />
			<glyph
				unicode="]"
				horiz-adv-x="28"
				d="M14.800000000000001 -9.000000000000000 C14.799999999999955 8.125000000000000 14.799999999999955 42.375000000000000 14.799999999999955 59.500000000000000 C12.399999999999977 59.500000000000000 7.600000000000023 59.500000000000000 5.200000000000045 59.500000000000000 C5.200000000000045 61.274999999999977 5.200000000000045 64.824999999999989 5.200000000000045 66.600000000000023 C9.649999999999977 66.600000000000023 18.549999999999955 66.600000000000023 23.000000000000000 66.600000000000023 C23.000000000000000 45.899999999999977 23.000000000000000 4.500000000000000 23.000000000000000 -16.200000000000045 C18.549999999999955 -16.200000000000045 9.649999999999977 -16.200000000000045 5.200000000000045 -16.200000000000045 C5.200000000000045 -14.399999999999977 5.200000000000045 -10.800000000000011 5.200000000000045 -9.000000000000000 C7.600000000000023 -9.000000000000000 12.399999999999977 -9.000000000000000 14.799999999999955 -9.000000000000000 z" />
			<glyph
				unicode="^"
				horiz-adv-x="50"
				d="M19.199999999999999 66.900000000000006 C22.100000000000023 66.899999999999977 27.899999999999977 66.899999999999977 30.799999999999955 66.899999999999977 C34.975000000000023 59.324999999999989 43.325000000000045 44.175000000000011 47.500000000000000 36.600000000000023 C45.125000000000000 36.600000000000023 40.375000000000000 36.600000000000023 38.000000000000000 36.600000000000023 C34.750000000000000 42.425000000000011 28.250000000000000 54.074999999999989 25.000000000000000 59.899999999999977 C21.750000000000000 54.074999999999989 15.250000000000000 42.425000000000011 12.000000000000000 36.600000000000023 C9.649999999999977 36.600000000000023 4.950000000000045 36.600000000000023 2.600000000000023 36.600000000000023 C6.750000000000000 44.175000000000011 15.049999999999955 59.324999999999989 19.200000000000045 66.899999999999977 z" />
			<glyph
				unicode="_"
				horiz-adv-x="50"
				d="M51.000000000000000 -13.100000000000000 C38.000000000000000 -13.100000000000023 12.000000000000000 -13.100000000000023 -1.000000000000000 -13.100000000000023 C-1.000000000000000 -11.475000000000023 -1.000000000000000 -8.225000000000023 -1.000000000000000 -6.600000000000023 C12.000000000000000 -6.600000000000023 38.000000000000000 -6.600000000000023 51.000000000000000 -6.600000000000023 C51.000000000000000 -8.225000000000023 51.000000000000000 -11.475000000000023 51.000000000000000 -13.100000000000023 z" />
			<glyph
				unicode="`"
				horiz-adv-x="50"
				d="M25.600000000000001 54.799999999999997 C22.174999999999955 58.199999999999989 15.325000000000045 65.000000000000000 11.899999999999977 68.399999999999977 C14.250000000000000 68.399999999999977 18.950000000000045 68.399999999999977 21.299999999999955 68.399999999999977 C23.899999999999977 65.000000000000000 29.100000000000023 58.199999999999989 31.700000000000045 54.800000000000011 C30.174999999999955 54.800000000000011 27.125000000000000 54.800000000000011 25.600000000000023 54.800000000000011 z" />
			<glyph
				unicode="a"
				horiz-adv-x="36"
				d="M4.500000000000000 5.000000000000000 Q3.799999999999955 6.199999999999989 3.600000000000023 7.649999999999977 Q3.399999999999977 9.100000000000023 3.399999999999977 10.899999999999977 C3.399999999999977 12.699999999999989 3.399999999999977 14.949999999999989 3.399999999999977 16.300000000000011 Q3.399999999999977 21.600000000000023 6.049999999999955 24.199999999999989 Q8.700000000000045 26.800000000000011 10.799999999999955 27.699999999999989 Q13.000000000000000 28.699999999999989 16.000000000000000 28.699999999999989 C18.133333333333326 28.699999999999989 20.799999999999955 28.699999999999989 22.399999999999977 28.699999999999989 C22.399999999999977 29.725000000000023 22.399999999999977 31.774999999999977 22.399999999999977 32.800000000000011 Q22.399999999999977 34.199999999999989 22.250000000000000 35.100000000000023 Q22.100000000000023 36.000000000000000 21.000000000000000 37.399999999999977 Q19.899999999999977 38.800000000000011 18.000000000000000 38.800000000000011 Q16.000000000000000 38.800000000000011 14.600000000000023 37.500000000000000 Q13.200000000000045 36.199999999999989 12.899999999999977 34.100000000000023 C9.733333333333348 34.100000000000023 5.774999999999977 34.100000000000023 3.399999999999977 34.100000000000023 Q3.399999999999977 39.899999999999977 7.549999999999955 44.050000000000011 Q11.700000000000045 48.199999999999989 17.600000000000023 48.199999999999989 Q23.399999999999977 48.199999999999989 27.700000000000045 44.100000000000023 Q32.000000000000000 40.000000000000000 32.000000000000000 34.100000000000023 C32.000000000000000 22.733333333333348 32.000000000000000 8.524999999999977 32.000000000000000 0.000000000000000 C29.600000000000023 0.000000000000000 24.799999999999955 0.000000000000000 22.399999999999977 0.000000000000000 C22.399999999999977 1.199999999999989 22.399999999999977 3.600000000000023 22.399999999999977 4.800000000000011 Q20.899999999999977 2.300000000000011 18.649999999999977 0.850000000000023 Q16.399999999999977 -0.600000000000023 13.600000000000023 -0.600000000000023 Q7.299999999999955 -0.600000000000023 4.500000000000000 5.000000000000000 zM13.000000000000000 16.399999999999999 C13.000000000000000 15.800000000000011 13.000000000000000 14.600000000000023 13.000000000000000 14.000000000000000 Q13.000000000000000 12.100000000000023 14.350000000000023 10.550000000000011 Q15.700000000000045 9.000000000000000 17.899999999999977 9.000000000000000 Q19.100000000000023 9.000000000000000 20.149999999999977 9.600000000000023 Q21.200000000000045 10.199999999999989 21.700000000000045 11.199999999999989 Q22.299999999999955 12.300000000000011 22.350000000000023 13.949999999999989 Q22.399999999999977 15.600000000000023 22.399999999999977 16.300000000000011 C22.399999999999977 17.833333333333314 22.399999999999977 19.750000000000000 22.399999999999977 20.899999999999977 C21.500000000000000 20.899999999999977 19.700000000000045 20.899999999999977 18.799999999999955 20.899999999999977 Q16.200000000000045 20.899999999999977 14.600000000000023 19.899999999999977 Q13.000000000000000 18.899999999999977 13.000000000000000 16.399999999999977 z" />
			<glyph
				unicode="b"
				horiz-adv-x="36"
				d="M22.800000000000001 48.200000000000003 Q28.700000000000045 48.199999999999989 30.500000000000000 45.149999999999977 Q32.299999999999955 42.100000000000023 32.600000000000023 40.300000000000011 Q32.899999999999977 38.600000000000023 32.899999999999977 37.199999999999989 C32.899999999999977 28.500000000000000 32.899999999999977 17.625000000000000 32.899999999999977 11.100000000000023 Q32.899999999999977 8.600000000000023 32.549999999999955 6.899999999999977 Q32.200000000000045 5.199999999999989 30.000000000000000 2.300000000000011 Q27.899999999999977 -0.600000000000023 22.700000000000045 -0.600000000000023 Q19.899999999999977 -0.600000000000023 17.649999999999977 0.850000000000023 Q15.399999999999977 2.300000000000011 13.899999999999977 4.800000000000011 C13.899999999999977 3.199999999999989 13.899999999999977 1.199999999999989 13.899999999999977 0.000000000000000 C11.500000000000000 0.000000000000000 6.700000000000045 0.000000000000000 4.299999999999955 0.000000000000000 C4.299999999999955 16.675000000000011 4.299999999999955 50.024999999999977 4.299999999999955 66.699999999999989 C6.700000000000045 66.699999999999989 11.500000000000000 66.699999999999989 13.899999999999977 66.699999999999989 C13.899999999999977 60.774999999999977 13.899999999999977 48.925000000000011 13.899999999999977 43.000000000000000 Q17.100000000000023 48.199999999999989 22.799999999999955 48.199999999999989 zM18.500000000000000 38.799999999999997 Q16.500000000000000 38.800000000000011 15.200000000000045 37.199999999999989 Q13.899999999999977 35.600000000000023 13.899999999999977 33.500000000000000 C13.899999999999977 27.233333333333348 13.899999999999977 19.399999999999977 13.899999999999977 14.699999999999989 Q13.899999999999977 12.399999999999977 14.750000000000000 10.699999999999989 Q15.600000000000023 9.000000000000000 18.500000000000000 9.000000000000000 Q20.600000000000023 9.000000000000000 21.950000000000045 10.250000000000000 Q23.299999999999955 11.500000000000000 23.299999999999955 13.100000000000023 C23.299999999999955 19.899999999999977 23.299999999999955 28.399999999999977 23.299999999999955 33.500000000000000 Q23.299999999999955 35.800000000000011 22.000000000000000 37.300000000000011 Q20.700000000000045 38.800000000000011 18.500000000000000 38.800000000000011 z" />
			<glyph
				unicode="c"
				horiz-adv-x="34"
				d="M32.000000000000000 13.699999999999999 Q32.000000000000000 7.800000000000011 27.700000000000045 3.600000000000023 Q23.399999999999977 -0.600000000000023 17.500000000000000 -0.600000000000023 Q14.299999999999955 -0.600000000000023 11.149999999999977 1.050000000000011 Q8.000000000000000 2.699999999999989 6.399999999999977 5.000000000000000 Q4.799999999999955 7.300000000000011 4.149999999999977 9.699999999999989 Q3.500000000000000 12.100000000000023 3.500000000000000 14.600000000000023 C3.500000000000000 20.800000000000011 3.500000000000000 28.550000000000011 3.500000000000000 33.199999999999989 Q3.500000000000000 39.100000000000023 7.549999999999955 43.649999999999977 Q11.600000000000023 48.199999999999989 17.600000000000023 48.199999999999989 Q23.799999999999955 48.199999999999989 27.899999999999977 43.800000000000011 Q32.000000000000000 39.399999999999977 32.000000000000000 33.199999999999989 C28.833333333333371 33.199999999999989 24.875000000000000 33.199999999999989 22.500000000000000 33.199999999999989 Q22.500000000000000 35.399999999999977 21.250000000000000 37.100000000000023 Q20.000000000000000 38.800000000000011 17.799999999999955 38.800000000000011 Q16.500000000000000 38.800000000000011 15.549999999999955 38.250000000000000 Q14.600000000000023 37.699999999999989 13.799999999999955 36.500000000000000 Q13.100000000000023 35.399999999999977 13.100000000000023 33.199999999999989 C13.100000000000023 27.000000000000000 13.100000000000023 19.250000000000000 13.100000000000023 14.600000000000023 Q13.100000000000023 12.000000000000000 14.200000000000045 10.500000000000000 Q15.299999999999955 9.000000000000000 17.899999999999977 9.000000000000000 Q20.000000000000000 9.000000000000000 21.250000000000000 10.550000000000011 Q22.500000000000000 12.100000000000023 22.500000000000000 14.300000000000011 C25.666666666666629 14.300000000000011 29.625000000000000 14.300000000000011 32.000000000000000 14.300000000000011 C32.000000000000000 14.149999999999977 32.000000000000000 13.850000000000023 32.000000000000000 13.699999999999989 z" />
			<glyph
				unicode="d"
				horiz-adv-x="36"
				d="M22.899999999999999 0.000000000000000 C22.899999999999977 1.225000000000023 22.899999999999977 3.675000000000011 22.899999999999977 4.899999999999977 Q21.500000000000000 2.500000000000000 19.200000000000045 0.949999999999989 Q16.899999999999977 -0.600000000000023 14.100000000000023 -0.600000000000023 Q7.600000000000023 -0.600000000000023 5.899999999999977 2.949999999999989 Q4.200000000000045 6.500000000000000 4.000000000000000 8.000000000000000 Q3.899999999999977 9.600000000000023 3.899999999999977 12.199999999999989 C3.899999999999977 20.766666666666652 3.899999999999977 31.475000000000023 3.899999999999977 37.899999999999977 Q3.899999999999977 42.199999999999989 6.799999999999955 45.199999999999989 Q9.700000000000045 48.199999999999989 14.100000000000023 48.199999999999989 Q16.799999999999955 48.199999999999989 19.149999999999977 46.800000000000011 Q21.500000000000000 45.399999999999977 22.899999999999977 43.100000000000023 C22.899999999999977 50.966666666666697 22.899999999999977 60.800000000000011 22.899999999999977 66.699999999999989 C25.299999999999955 66.699999999999989 30.100000000000023 66.699999999999989 32.500000000000000 66.699999999999989 C32.500000000000000 50.024999999999977 32.500000000000000 16.675000000000011 32.500000000000000 0.000000000000000 C30.100000000000023 0.000000000000000 25.299999999999955 0.000000000000000 22.899999999999977 0.000000000000000 zM22.199999999999999 36.500000000000000 Q20.799999999999955 38.899999999999977 18.100000000000023 38.899999999999977 Q16.700000000000045 38.899999999999977 15.549999999999955 38.149999999999977 Q14.399999999999977 37.399999999999977 14.000000000000000 36.300000000000011 Q13.600000000000023 35.300000000000011 13.549999999999955 34.149999999999977 Q13.500000000000000 33.000000000000000 13.500000000000000 32.399999999999977 C13.500000000000000 26.699999999999989 13.500000000000000 19.574999999999989 13.500000000000000 15.300000000000011 Q13.500000000000000 14.300000000000011 13.549999999999955 13.300000000000011 Q13.600000000000023 12.300000000000011 14.500000000000000 10.699999999999989 Q15.399999999999977 9.100000000000023 18.200000000000045 9.100000000000023 Q21.100000000000023 9.100000000000023 22.000000000000000 10.699999999999989 Q22.899999999999977 12.300000000000011 22.899999999999977 13.899999999999977 C22.899999999999977 14.366666666666674 22.899999999999977 14.949999999999989 22.899999999999977 15.300000000000011 C22.899999999999977 19.574999999999989 22.899999999999977 28.125000000000000 22.899999999999977 32.399999999999977 Q22.899999999999977 33.399999999999977 22.850000000000023 34.449999999999989 Q22.799999999999955 35.500000000000000 22.200000000000045 36.500000000000000 z" />
			<glyph
				unicode="e"
				horiz-adv-x="35"
				d="M17.500000000000000 9.100000000000000 Q19.600000000000023 9.100000000000023 20.899999999999977 10.399999999999977 Q22.200000000000045 11.699999999999989 22.500000000000000 13.800000000000011 C25.666666666666629 13.800000000000011 29.625000000000000 13.800000000000011 32.000000000000000 13.800000000000011 C32.000000000000000 13.524999999999977 32.000000000000000 12.975000000000023 32.000000000000000 12.699999999999989 Q32.000000000000000 10.500000000000000 31.049999999999955 8.300000000000011 Q30.100000000000023 6.100000000000023 27.100000000000023 2.699999999999989 Q24.100000000000023 -0.600000000000023 17.700000000000045 -0.600000000000023 Q13.600000000000023 -0.600000000000023 10.149999999999977 1.600000000000023 Q6.700000000000045 3.800000000000011 5.399999999999977 6.399999999999977 Q4.100000000000023 9.100000000000023 3.750000000000000 11.250000000000000 Q3.399999999999977 13.399999999999977 3.399999999999977 15.500000000000000 C3.399999999999977 21.533333333333360 3.399999999999977 29.074999999999989 3.399999999999977 33.600000000000023 Q3.399999999999977 39.500000000000000 7.649999999999977 43.850000000000023 Q11.899999999999977 48.199999999999989 17.799999999999955 48.199999999999989 Q23.899999999999977 48.199999999999989 27.950000000000045 43.949999999999989 Q32.000000000000000 39.699999999999989 32.000000000000000 33.600000000000023 C32.000000000000000 29.199999999999989 32.000000000000000 23.699999999999989 32.000000000000000 20.399999999999977 C27.250000000000000 20.399999999999977 17.750000000000000 20.399999999999977 13.000000000000000 20.399999999999977 C13.000000000000000 18.625000000000000 13.000000000000000 15.074999999999989 13.000000000000000 13.300000000000011 Q13.000000000000000 11.800000000000011 14.450000000000045 10.449999999999989 Q15.899999999999977 9.100000000000023 17.500000000000000 9.100000000000023 zM17.699999999999999 38.799999999999997 Q15.799999999999955 38.800000000000011 14.399999999999977 37.500000000000000 Q13.000000000000000 36.199999999999989 13.000000000000000 32.899999999999977 C13.000000000000000 31.333333333333314 13.000000000000000 29.375000000000000 13.000000000000000 28.199999999999989 C15.350000000000023 28.199999999999989 20.049999999999955 28.199999999999989 22.399999999999977 28.199999999999989 C22.399999999999977 29.375000000000000 22.399999999999977 31.725000000000023 22.399999999999977 32.899999999999977 Q22.399999999999977 35.500000000000000 21.299999999999955 37.149999999999977 Q20.200000000000045 38.800000000000011 17.700000000000045 38.800000000000011 z" />
			<glyph
				unicode="f"
				horiz-adv-x="23"
				d="M6.300000000000000 0.000000000000000 C6.299999999999955 10.000000000000000 6.299999999999955 30.000000000000000 6.299999999999955 40.000000000000000 C5.125000000000000 40.000000000000000 2.774999999999977 40.000000000000000 1.600000000000023 40.000000000000000 C1.600000000000023 41.899999999999977 1.600000000000023 45.699999999999989 1.600000000000023 47.600000000000023 C2.774999999999977 47.600000000000023 5.125000000000000 47.600000000000023 6.299999999999955 47.600000000000023 C6.299999999999955 49.250000000000000 6.299999999999955 52.550000000000011 6.299999999999955 54.199999999999989 Q6.299999999999955 59.800000000000011 9.100000000000023 62.500000000000000 Q11.899999999999977 65.199999999999989 14.299999999999955 65.899999999999977 Q16.700000000000045 66.699999999999989 19.600000000000023 66.699999999999989 C20.700000000000045 66.699999999999989 22.075000000000045 66.699999999999989 22.899999999999977 66.699999999999989 C22.899999999999977 64.500000000000000 22.899999999999977 60.100000000000023 22.899999999999977 57.899999999999977 C22.024999999999977 57.899999999999977 20.274999999999977 57.899999999999977 19.399999999999977 57.899999999999977 Q15.899999999999977 57.899999999999977 15.899999999999977 54.199999999999989 C15.899999999999977 52.000000000000000 15.899999999999977 49.250000000000000 15.899999999999977 47.600000000000023 C17.649999999999977 47.600000000000023 21.149999999999977 47.600000000000023 22.899999999999977 47.600000000000023 C22.899999999999977 45.699999999999989 22.899999999999977 41.899999999999977 22.899999999999977 40.000000000000000 C21.149999999999977 40.000000000000000 17.649999999999977 40.000000000000000 15.899999999999977 40.000000000000000 C15.899999999999977 30.000000000000000 15.899999999999977 10.000000000000000 15.899999999999977 0.000000000000000 C13.500000000000000 0.000000000000000 8.700000000000045 0.000000000000000 6.299999999999955 0.000000000000000 z" />
			<glyph
				unicode="g"
				horiz-adv-x="36"
				d="M29.899999999999999 -13.100000000000000 Q27.899999999999977 -16.100000000000023 24.799999999999955 -17.850000000000023 Q21.700000000000045 -19.600000000000023 18.200000000000045 -19.600000000000023 Q12.100000000000023 -19.600000000000023 7.750000000000000 -15.450000000000045 Q3.399999999999977 -11.300000000000011 3.399999999999977 -5.100000000000023 C6.600000000000023 -5.100000000000023 10.600000000000023 -5.100000000000023 13.000000000000000 -5.100000000000023 Q13.000000000000000 -7.100000000000023 14.299999999999955 -8.500000000000000 Q15.600000000000023 -9.899999999999977 17.700000000000045 -9.899999999999977 Q20.700000000000045 -9.899999999999977 22.100000000000023 -7.199999999999989 Q22.500000000000000 -6.199999999999989 22.500000000000000 -4.000000000000000 C22.500000000000000 -1.033333333333360 22.500000000000000 2.675000000000011 22.500000000000000 4.899999999999977 Q21.100000000000023 2.500000000000000 18.700000000000045 0.949999999999989 Q16.299999999999955 -0.600000000000023 13.600000000000023 -0.600000000000023 Q10.700000000000045 -0.600000000000023 8.250000000000000 0.949999999999989 Q5.799999999999955 2.500000000000000 4.700000000000045 4.500000000000000 Q3.700000000000045 6.500000000000000 3.549999999999955 7.699999999999989 Q3.399999999999977 8.899999999999977 3.399999999999977 11.399999999999977 C3.399999999999977 20.199999999999989 3.399999999999977 31.199999999999989 3.399999999999977 37.800000000000011 Q3.399999999999977 39.600000000000023 3.850000000000023 41.100000000000023 Q4.299999999999955 42.600000000000023 6.299999999999955 45.399999999999977 Q8.399999999999977 48.300000000000011 13.500000000000000 48.300000000000011 Q16.200000000000045 48.300000000000011 18.500000000000000 46.949999999999989 Q20.799999999999955 45.600000000000023 22.500000000000000 43.199999999999989 C22.500000000000000 44.666666666666686 22.500000000000000 46.500000000000000 22.500000000000000 47.600000000000023 C24.899999999999977 47.600000000000023 29.700000000000045 47.600000000000023 32.100000000000023 47.600000000000023 C32.100000000000023 34.699999999999989 32.100000000000023 8.899999999999977 32.100000000000023 -4.000000000000000 Q32.100000000000023 -6.800000000000011 31.649999999999977 -8.949999999999989 Q31.200000000000045 -11.100000000000023 29.899999999999977 -13.100000000000023 zM21.600000000000001 37.000000000000000 Q20.100000000000023 39.000000000000000 17.700000000000045 39.000000000000000 Q14.899999999999977 39.000000000000000 14.049999999999955 37.350000000000023 Q13.200000000000045 35.699999999999989 13.100000000000023 34.800000000000011 Q13.000000000000000 34.000000000000000 13.000000000000000 33.100000000000023 C13.000000000000000 27.066666666666663 13.000000000000000 19.524999999999977 13.000000000000000 15.000000000000000 Q13.000000000000000 13.600000000000023 13.149999999999977 12.750000000000000 Q13.299999999999955 11.899999999999977 14.299999999999955 10.500000000000000 Q15.299999999999955 9.100000000000023 17.899999999999977 9.100000000000023 Q21.000000000000000 9.100000000000023 21.700000000000045 10.850000000000023 Q22.399999999999977 12.600000000000023 22.399999999999977 13.500000000000000 Q22.399999999999977 14.399999999999977 22.500000000000000 15.000000000000000 C22.500000000000000 21.033333333333360 22.500000000000000 28.574999999999989 22.500000000000000 33.100000000000023 Q22.500000000000000 34.500000000000000 22.350000000000023 35.300000000000011 Q22.200000000000045 36.100000000000023 21.600000000000023 37.000000000000000 z" />
			<glyph
				unicode="h"
				horiz-adv-x="37"
				d="M23.100000000000001 48.200000000000003 Q25.700000000000045 48.199999999999989 28.000000000000000 46.800000000000011 Q30.299999999999955 45.399999999999977 31.299999999999955 43.500000000000000 Q32.299999999999955 41.699999999999989 32.549999999999955 40.399999999999977 Q32.799999999999955 39.100000000000023 32.799999999999955 37.000000000000000 C32.799999999999955 24.666666666666686 32.799999999999955 9.250000000000000 32.799999999999955 0.000000000000000 C30.399999999999977 0.000000000000000 25.600000000000023 0.000000000000000 23.200000000000045 0.000000000000000 C23.200000000000045 8.350000000000023 23.200000000000045 25.050000000000011 23.200000000000045 33.399999999999977 Q23.200000000000045 35.800000000000011 22.100000000000023 37.300000000000011 Q21.000000000000000 38.800000000000011 18.600000000000023 38.800000000000011 Q16.500000000000000 38.800000000000011 15.149999999999977 37.149999999999977 Q13.799999999999955 35.500000000000000 13.799999999999955 33.399999999999977 C13.799999999999955 22.266666666666652 13.799999999999955 8.350000000000023 13.799999999999955 0.000000000000000 C11.399999999999977 0.000000000000000 6.600000000000023 0.000000000000000 4.200000000000045 0.000000000000000 C4.200000000000045 16.675000000000011 4.200000000000045 50.024999999999977 4.200000000000045 66.699999999999989 C6.600000000000023 66.699999999999989 11.399999999999977 66.699999999999989 13.799999999999955 66.699999999999989 C13.799999999999955 60.774999999999977 13.799999999999955 48.925000000000011 13.799999999999955 43.000000000000000 Q17.100000000000023 48.199999999999989 23.100000000000023 48.199999999999989 z" />
			<glyph
				unicode="i"
				horiz-adv-x="18"
				d="M4.200000000000000 0.000000000000000 C4.200000000000045 11.899999999999977 4.200000000000045 35.699999999999989 4.200000000000045 47.600000000000023 C6.600000000000023 47.600000000000023 11.399999999999977 47.600000000000023 13.799999999999955 47.600000000000023 C13.799999999999955 35.699999999999989 13.799999999999955 11.899999999999977 13.799999999999955 0.000000000000000 C11.399999999999977 0.000000000000000 6.600000000000023 0.000000000000000 4.200000000000045 0.000000000000000 zM4.200000000000000 57.299999999999997 C4.200000000000045 59.649999999999977 4.200000000000045 64.350000000000023 4.200000000000045 66.699999999999989 C6.600000000000023 66.699999999999989 11.399999999999977 66.699999999999989 13.799999999999955 66.699999999999989 C13.799999999999955 64.350000000000023 13.799999999999955 59.649999999999977 13.799999999999955 57.300000000000011 C11.399999999999977 57.300000000000011 6.600000000000023 57.300000000000011 4.200000000000045 57.300000000000011 z" />
			<glyph
				unicode="j"
				horiz-adv-x="18"
				d="M10.199999999999999 -15.000000000000000 Q8.399999999999977 -17.000000000000000 5.750000000000000 -18.000000000000000 Q3.100000000000023 -19.000000000000000 0.299999999999955 -19.000000000000000 C-0.266666666666652 -19.000000000000000 -0.975000000000023 -19.000000000000000 -1.399999999999977 -19.000000000000000 C-1.399999999999977 -16.725000000000023 -1.399999999999977 -12.175000000000011 -1.399999999999977 -9.899999999999977 C-1.174999999999955 -9.899999999999977 -0.725000000000023 -9.899999999999977 -0.500000000000000 -9.899999999999977 Q2.200000000000045 -9.899999999999977 3.200000000000045 -8.300000000000011 Q4.200000000000045 -6.699999999999989 4.200000000000045 -3.899999999999977 C4.200000000000045 13.266666666666652 4.200000000000045 34.725000000000023 4.200000000000045 47.600000000000023 C6.600000000000023 47.600000000000023 11.399999999999977 47.600000000000023 13.799999999999955 47.600000000000023 C13.799999999999955 34.524999999999977 13.799999999999955 8.375000000000000 13.799999999999955 -4.699999999999989 Q13.799999999999955 -8.000000000000000 13.049999999999955 -10.350000000000023 Q12.299999999999955 -12.699999999999989 10.200000000000045 -15.000000000000000 zM4.200000000000000 57.500000000000000 C4.200000000000045 59.800000000000011 4.200000000000045 64.399999999999977 4.200000000000045 66.699999999999989 C6.600000000000023 66.699999999999989 11.399999999999977 66.699999999999989 13.799999999999955 66.699999999999989 C13.799999999999955 64.399999999999977 13.799999999999955 59.800000000000011 13.799999999999955 57.500000000000000 C11.399999999999977 57.500000000000000 6.600000000000023 57.500000000000000 4.200000000000045 57.500000000000000 z" />
			<glyph
				unicode="k"
				horiz-adv-x="38"
				d="M4.200000000000000 0.000000000000000 C4.200000000000045 16.675000000000011 4.200000000000045 50.024999999999977 4.200000000000045 66.699999999999989 C6.600000000000023 66.699999999999989 11.399999999999977 66.699999999999989 13.799999999999955 66.699999999999989 C13.799999999999955 56.774999999999977 13.799999999999955 36.925000000000011 13.799999999999955 27.000000000000000 C16.799999999999955 32.149999999999977 22.799999999999955 42.449999999999989 25.799999999999955 47.600000000000023 C28.174999999999955 47.600000000000023 32.924999999999955 47.600000000000023 35.299999999999955 47.600000000000023 C32.475000000000023 42.875000000000000 26.825000000000045 33.425000000000011 24.000000000000000 28.699999999999989 C27.399999999999977 21.524999999999977 34.200000000000045 7.175000000000011 37.600000000000023 0.000000000000000 C34.924999999999955 0.000000000000000 29.575000000000045 0.000000000000000 26.899999999999977 0.000000000000000 C24.825000000000045 5.074999999999989 20.674999999999955 15.225000000000023 18.600000000000023 20.300000000000011 C17.399999999999977 18.524999999999977 15.000000000000000 14.975000000000023 13.799999999999955 13.199999999999989 C13.799999999999955 9.899999999999977 13.799999999999955 3.300000000000011 13.799999999999955 0.000000000000000 C11.399999999999977 0.000000000000000 6.600000000000023 0.000000000000000 4.200000000000045 0.000000000000000 z" />
			<glyph
				unicode="l"
				horiz-adv-x="20"
				d="M13.800000000000001 66.700000000000003 C13.799999999999955 53.449999999999989 13.799999999999955 26.949999999999989 13.799999999999955 13.699999999999989 Q13.799999999999955 11.300000000000011 14.600000000000023 10.199999999999989 Q15.399999999999977 9.100000000000023 17.799999999999955 9.100000000000023 C18.033333333333303 9.100000000000023 18.325000000000045 9.100000000000023 18.500000000000000 9.100000000000023 C18.500000000000000 6.824999999999989 18.500000000000000 2.274999999999977 18.500000000000000 0.000000000000000 C17.975000000000023 0.000000000000000 16.924999999999955 0.000000000000000 16.399999999999977 0.000000000000000 Q14.100000000000023 0.000000000000000 12.100000000000023 0.500000000000000 Q10.100000000000023 1.000000000000000 8.100000000000023 2.500000000000000 Q6.100000000000023 4.100000000000023 5.149999999999977 6.550000000000011 Q4.200000000000045 9.000000000000000 4.200000000000045 11.800000000000011 C4.200000000000045 30.100000000000023 4.200000000000045 52.975000000000023 4.200000000000045 66.699999999999989 C6.600000000000023 66.699999999999989 11.399999999999977 66.699999999999989 13.799999999999955 66.699999999999989 z" />
			<glyph
				unicode="m"
				horiz-adv-x="56"
				d="M31.300000000000001 43.299999999999997 Q33.200000000000045 45.699999999999989 35.500000000000000 46.949999999999989 Q37.799999999999955 48.199999999999989 40.700000000000045 48.199999999999989 Q45.600000000000023 48.199999999999989 48.750000000000000 44.750000000000000 Q51.899999999999977 41.300000000000011 51.899999999999977 36.399999999999977 C51.899999999999977 24.266666666666652 51.899999999999977 9.100000000000023 51.899999999999977 0.000000000000000 C49.500000000000000 0.000000000000000 44.700000000000045 0.000000000000000 42.299999999999955 0.000000000000000 C42.299999999999955 8.425000000000011 42.299999999999955 25.274999999999977 42.299999999999955 33.699999999999989 Q42.299999999999955 36.000000000000000 41.149999999999977 37.449999999999989 Q40.000000000000000 38.899999999999977 37.600000000000023 38.899999999999977 Q35.600000000000023 38.899999999999977 34.250000000000000 37.350000000000023 Q32.899999999999977 35.800000000000011 32.899999999999977 33.699999999999989 C32.899999999999977 22.466666666666697 32.899999999999977 8.425000000000011 32.899999999999977 0.000000000000000 C30.500000000000000 0.000000000000000 25.700000000000045 0.000000000000000 23.299999999999955 0.000000000000000 C23.299999999999955 8.425000000000011 23.299999999999955 25.274999999999977 23.299999999999955 33.699999999999989 Q23.299999999999955 35.899999999999977 22.000000000000000 37.399999999999977 Q20.700000000000045 38.899999999999977 18.500000000000000 38.899999999999977 Q16.500000000000000 38.899999999999977 15.149999999999977 37.350000000000023 Q13.799999999999955 35.800000000000011 13.799999999999955 33.699999999999989 C13.799999999999955 22.466666666666697 13.799999999999955 8.425000000000011 13.799999999999955 0.000000000000000 C11.399999999999977 0.000000000000000 6.600000000000023 0.000000000000000 4.200000000000045 0.000000000000000 C4.200000000000045 11.899999999999977 4.200000000000045 35.699999999999989 4.200000000000045 47.600000000000023 C6.600000000000023 47.600000000000023 11.399999999999977 47.600000000000023 13.799999999999955 47.600000000000023 C13.799999999999955 46.524999999999977 13.799999999999955 44.375000000000000 13.799999999999955 43.300000000000011 Q17.100000000000023 48.199999999999989 22.799999999999955 48.199999999999989 Q25.500000000000000 48.199999999999989 27.649999999999977 46.949999999999989 Q29.799999999999955 45.699999999999989 31.299999999999955 43.300000000000011 z" />
			<glyph
				unicode="n"
				horiz-adv-x="37"
				d="M31.300000000000001 43.299999999999997 Q32.100000000000023 42.100000000000023 32.399999999999977 40.399999999999977 Q32.700000000000045 38.699999999999989 32.700000000000045 37.000000000000000 C32.700000000000045 24.666666666666686 32.700000000000045 9.250000000000000 32.700000000000045 0.000000000000000 C30.299999999999955 0.000000000000000 25.500000000000000 0.000000000000000 23.100000000000023 0.000000000000000 C23.100000000000023 8.375000000000000 23.100000000000023 25.125000000000000 23.100000000000023 33.500000000000000 Q23.100000000000023 38.800000000000011 18.399999999999977 38.800000000000011 Q16.299999999999955 38.800000000000011 15.000000000000000 37.199999999999989 Q13.700000000000045 35.600000000000023 13.700000000000045 33.500000000000000 C13.700000000000045 22.333333333333314 13.700000000000045 8.375000000000000 13.700000000000045 0.000000000000000 C11.299999999999955 0.000000000000000 6.500000000000000 0.000000000000000 4.100000000000023 0.000000000000000 C4.100000000000023 11.899999999999977 4.100000000000023 35.699999999999989 4.100000000000023 47.600000000000023 C6.500000000000000 47.600000000000023 11.299999999999955 47.600000000000023 13.700000000000045 47.600000000000023 C13.700000000000045 46.449999999999989 13.700000000000045 44.149999999999977 13.700000000000045 43.000000000000000 Q16.899999999999977 48.199999999999989 22.600000000000023 48.199999999999989 Q28.399999999999977 48.199999999999989 31.299999999999955 43.300000000000011 z" />
			<glyph
				unicode="o"
				horiz-adv-x="35"
				d="M6.600000000000000 42.700000000000003 Q8.700000000000045 45.300000000000011 11.549999999999955 46.750000000000000 Q14.399999999999977 48.199999999999989 17.700000000000045 48.199999999999989 Q21.399999999999977 48.199999999999989 24.250000000000000 46.850000000000023 Q27.100000000000023 45.500000000000000 29.600000000000023 42.199999999999989 Q32.100000000000023 38.899999999999977 32.100000000000023 33.600000000000023 C32.100000000000023 27.266666666666652 32.100000000000023 19.350000000000023 32.100000000000023 14.600000000000023 Q32.100000000000023 9.199999999999989 29.700000000000045 5.949999999999989 Q27.299999999999955 2.699999999999989 24.299999999999955 1.000000000000000 Q21.299999999999955 -0.600000000000023 18.200000000000045 -0.600000000000023 Q13.899999999999977 -0.600000000000023 10.350000000000023 1.550000000000011 Q6.799999999999955 3.699999999999989 5.399999999999977 6.300000000000011 Q4.100000000000023 9.000000000000000 3.799999999999955 10.750000000000000 Q3.500000000000000 12.500000000000000 3.500000000000000 14.600000000000023 C3.500000000000000 20.933333333333337 3.500000000000000 28.850000000000023 3.500000000000000 33.600000000000023 Q3.500000000000000 39.000000000000000 6.600000000000023 42.699999999999989 zM17.899999999999999 38.899999999999999 Q15.700000000000045 38.899999999999977 14.399999999999977 37.399999999999977 Q13.100000000000023 35.899999999999977 13.100000000000023 33.600000000000023 C13.100000000000023 27.266666666666652 13.100000000000023 19.350000000000023 13.100000000000023 14.600000000000023 Q13.100000000000023 12.300000000000011 14.350000000000023 10.649999999999977 Q15.600000000000023 9.000000000000000 17.899999999999977 9.000000000000000 Q21.000000000000000 9.000000000000000 21.750000000000000 10.800000000000011 Q22.500000000000000 12.600000000000023 22.500000000000000 14.800000000000011 C22.500000000000000 21.066666666666663 22.500000000000000 28.899999999999977 22.500000000000000 33.600000000000023 Q22.500000000000000 35.800000000000011 21.250000000000000 37.350000000000023 Q20.000000000000000 38.899999999999977 17.899999999999977 38.899999999999977 z" />
			<glyph
				unicode="p"
				horiz-adv-x="36"
				d="M4.300000000000000 -19.000000000000000 C4.299999999999955 -2.350000000000023 4.299999999999955 30.949999999999989 4.299999999999955 47.600000000000023 C6.700000000000045 47.600000000000023 11.500000000000000 47.600000000000023 13.899999999999977 47.600000000000023 C13.899999999999977 46.449999999999989 13.899999999999977 44.149999999999977 13.899999999999977 43.000000000000000 Q15.399999999999977 45.399999999999977 17.799999999999955 46.850000000000023 Q20.200000000000045 48.300000000000011 23.000000000000000 48.300000000000011 Q27.200000000000045 48.300000000000011 30.049999999999955 45.149999999999977 Q32.899999999999977 42.000000000000000 32.899999999999977 37.699999999999989 C32.899999999999977 28.566666666666663 32.899999999999977 17.149999999999977 32.899999999999977 10.300000000000011 Q32.899999999999977 8.199999999999989 32.500000000000000 6.649999999999977 Q32.100000000000023 5.100000000000023 30.000000000000000 2.300000000000011 Q27.899999999999977 -0.500000000000000 23.200000000000045 -0.500000000000000 Q16.899999999999977 -0.500000000000000 13.899999999999977 4.800000000000011 C13.899999999999977 -3.133333333333326 13.899999999999977 -13.049999999999955 13.899999999999977 -19.000000000000000 C11.500000000000000 -19.000000000000000 6.700000000000045 -19.000000000000000 4.299999999999955 -19.000000000000000 zM18.600000000000001 38.799999999999997 Q16.399999999999977 38.800000000000011 15.149999999999977 37.250000000000000 Q13.899999999999977 35.699999999999989 13.899999999999977 33.500000000000000 C13.899999999999977 27.300000000000011 13.899999999999977 19.550000000000011 13.899999999999977 14.899999999999977 Q13.899999999999977 12.300000000000011 15.100000000000023 10.649999999999977 Q16.299999999999955 9.000000000000000 19.000000000000000 9.000000000000000 Q21.799999999999955 9.000000000000000 22.549999999999955 10.899999999999977 Q23.299999999999955 12.800000000000011 23.299999999999955 14.899999999999977 C23.299999999999955 21.100000000000023 23.299999999999955 28.850000000000023 23.299999999999955 33.500000000000000 Q23.299999999999955 35.699999999999989 22.049999999999955 37.250000000000000 Q20.799999999999955 38.800000000000011 18.600000000000023 38.800000000000011 z" />
			<glyph
				unicode="q"
				horiz-adv-x="36"
				d="M22.800000000000001 -19.000000000000000 C22.799999999999955 -13.075000000000045 22.799999999999955 -1.225000000000023 22.799999999999955 4.699999999999989 Q21.100000000000023 2.300000000000011 18.899999999999977 0.899999999999977 Q16.700000000000045 -0.500000000000000 13.899999999999977 -0.500000000000000 Q11.200000000000045 -0.500000000000000 8.700000000000045 1.000000000000000 Q6.200000000000045 2.500000000000000 5.200000000000045 4.300000000000011 Q4.200000000000045 6.100000000000023 4.000000000000000 7.449999999999989 Q3.799999999999955 8.800000000000011 3.799999999999955 10.500000000000000 C3.799999999999955 19.666666666666686 3.799999999999955 31.125000000000000 3.799999999999955 38.000000000000000 Q3.799999999999955 42.199999999999989 6.649999999999977 45.250000000000000 Q9.500000000000000 48.300000000000011 13.700000000000045 48.300000000000011 Q19.500000000000000 48.300000000000011 22.799999999999955 43.000000000000000 C22.799999999999955 44.533333333333303 22.799999999999955 46.449999999999989 22.799999999999955 47.600000000000023 C25.200000000000045 47.600000000000023 30.000000000000000 47.600000000000023 32.399999999999977 47.600000000000023 C32.399999999999977 30.949999999999989 32.399999999999977 -2.350000000000023 32.399999999999977 -19.000000000000000 C30.000000000000000 -19.000000000000000 25.200000000000045 -19.000000000000000 22.799999999999955 -19.000000000000000 zM17.899999999999999 38.799999999999997 Q15.700000000000045 38.800000000000011 14.549999999999955 37.300000000000011 Q13.399999999999977 35.800000000000011 13.399999999999977 33.500000000000000 C13.399999999999977 27.433333333333337 13.399999999999977 19.850000000000023 13.399999999999977 15.300000000000011 Q13.399999999999977 14.199999999999989 13.450000000000045 13.199999999999989 Q13.500000000000000 12.199999999999989 14.399999999999977 10.600000000000023 Q15.399999999999977 9.000000000000000 18.000000000000000 9.000000000000000 Q20.899999999999977 9.000000000000000 21.799999999999955 10.600000000000023 Q22.700000000000045 12.199999999999989 22.700000000000045 13.399999999999977 Q22.799999999999955 14.699999999999989 22.799999999999955 15.300000000000011 C22.799999999999955 21.366666666666674 22.799999999999955 28.949999999999989 22.799999999999955 33.500000000000000 Q22.799999999999955 35.800000000000011 21.500000000000000 37.300000000000011 Q20.200000000000045 38.800000000000011 17.899999999999977 38.800000000000011 z" />
			<glyph
				unicode="r"
				horiz-adv-x="28"
				d="M26.199999999999999 48.200000000000003 C26.200000000000045 45.750000000000000 26.200000000000045 40.850000000000023 26.200000000000045 38.399999999999977 Q25.500000000000000 38.600000000000023 24.799999999999955 38.699999999999989 Q24.100000000000023 38.800000000000011 23.500000000000000 38.800000000000011 Q18.799999999999955 38.800000000000011 16.299999999999955 35.600000000000023 Q13.799999999999955 32.399999999999977 13.799999999999955 27.899999999999977 C13.799999999999955 18.600000000000023 13.799999999999955 6.975000000000023 13.799999999999955 0.000000000000000 C11.399999999999977 0.000000000000000 6.600000000000023 0.000000000000000 4.200000000000045 0.000000000000000 C4.200000000000045 11.899999999999977 4.200000000000045 35.699999999999989 4.200000000000045 47.600000000000023 C6.600000000000023 47.600000000000023 11.399999999999977 47.600000000000023 13.799999999999955 47.600000000000023 C13.799999999999955 46.324999999999989 13.799999999999955 43.774999999999977 13.799999999999955 42.500000000000000 Q16.299999999999955 45.600000000000023 19.950000000000045 46.899999999999977 Q23.600000000000023 48.199999999999989 26.200000000000045 48.199999999999989 z" />
			<glyph
				unicode="s"
				horiz-adv-x="33"
				d="M16.399999999999999 8.400000000000000 Q18.600000000000023 8.399999999999977 20.200000000000045 9.800000000000011 Q21.799999999999955 11.199999999999989 21.799999999999955 13.399999999999977 Q21.799999999999955 16.000000000000000 20.450000000000045 17.250000000000000 Q19.100000000000023 18.500000000000000 16.200000000000045 19.500000000000000 C15.566666666666720 19.733333333333348 14.774999999999977 20.024999999999977 14.299999999999955 20.199999999999989 Q11.299999999999955 21.300000000000011 9.299999999999955 22.350000000000023 Q7.299999999999955 23.399999999999977 5.000000000000000 26.100000000000023 Q2.700000000000045 28.899999999999977 2.700000000000045 34.100000000000023 Q2.700000000000045 40.000000000000000 6.799999999999955 44.100000000000023 Q10.899999999999977 48.199999999999989 16.899999999999977 48.199999999999989 Q22.399999999999977 48.199999999999989 26.200000000000045 44.000000000000000 Q30.000000000000000 39.800000000000011 30.000000000000000 34.500000000000000 C27.066666666666720 34.500000000000000 23.399999999999977 34.500000000000000 21.200000000000045 34.500000000000000 Q21.200000000000045 36.600000000000023 19.850000000000023 37.949999999999989 Q18.500000000000000 39.300000000000011 16.299999999999955 39.300000000000011 Q14.299999999999955 39.300000000000011 13.000000000000000 37.800000000000011 Q11.700000000000045 36.300000000000011 11.700000000000045 34.199999999999989 Q11.700000000000045 32.000000000000000 13.000000000000000 30.800000000000011 Q14.299999999999955 29.600000000000023 16.799999999999955 28.699999999999989 C17.833333333333371 28.366666666666674 19.125000000000000 27.949999999999989 19.899999999999977 27.699999999999989 Q22.600000000000023 26.699999999999989 24.149999999999977 25.800000000000011 Q25.700000000000045 24.899999999999977 27.200000000000045 23.100000000000023 Q28.799999999999955 21.300000000000011 29.799999999999955 18.899999999999977 Q30.799999999999955 16.500000000000000 30.799999999999955 13.800000000000011 Q30.799999999999955 8.000000000000000 26.649999999999977 3.649999999999977 Q22.500000000000000 -0.699999999999989 16.700000000000045 -0.699999999999989 Q13.200000000000045 -0.699999999999989 9.649999999999977 1.199999999999989 Q6.100000000000023 3.100000000000023 4.100000000000023 6.300000000000011 Q2.200000000000045 9.600000000000023 2.200000000000045 13.699999999999989 C5.166666666666629 13.699999999999989 8.875000000000000 13.699999999999989 11.100000000000023 13.699999999999989 Q11.100000000000023 11.500000000000000 12.649999999999977 9.949999999999989 Q14.200000000000045 8.399999999999977 16.399999999999977 8.399999999999977 z" />
			<glyph
				unicode="t"
				horiz-adv-x="23"
				d="M18.500000000000000 9.100000000000000 C19.049999999999955 9.100000000000023 20.149999999999977 9.100000000000023 20.700000000000045 9.100000000000023 C20.700000000000045 6.824999999999989 20.700000000000045 2.274999999999977 20.700000000000045 0.000000000000000 C19.950000000000045 0.000000000000000 18.450000000000045 0.000000000000000 17.700000000000045 0.000000000000000 Q15.000000000000000 0.000000000000000 12.899999999999977 0.550000000000011 Q10.799999999999955 1.100000000000023 8.799999999999955 2.800000000000011 Q6.799999999999955 4.500000000000000 6.000000000000000 6.550000000000011 Q5.200000000000045 8.600000000000023 5.200000000000045 11.600000000000023 C5.200000000000045 21.100000000000023 5.200000000000045 32.975000000000023 5.200000000000045 40.100000000000023 C4.024999999999977 40.100000000000023 1.674999999999955 40.100000000000023 0.500000000000000 40.100000000000023 C0.500000000000000 41.975000000000023 0.500000000000000 45.725000000000023 0.500000000000000 47.600000000000023 C1.674999999999955 47.600000000000023 4.024999999999977 47.600000000000023 5.200000000000045 47.600000000000023 C5.200000000000045 51.199999999999989 5.200000000000045 58.399999999999977 5.200000000000045 62.000000000000000 C7.600000000000023 62.000000000000000 12.399999999999977 62.000000000000000 14.799999999999955 62.000000000000000 C14.799999999999955 58.399999999999977 14.799999999999955 51.199999999999989 14.799999999999955 47.600000000000023 C16.274999999999977 47.600000000000023 19.225000000000023 47.600000000000023 20.700000000000045 47.600000000000023 C20.700000000000045 45.725000000000023 20.700000000000045 41.975000000000023 20.700000000000045 40.100000000000023 C19.225000000000023 40.100000000000023 16.274999999999977 40.100000000000023 14.799999999999955 40.100000000000023 C14.799999999999955 33.399999999999977 14.799999999999955 20.000000000000000 14.799999999999955 13.300000000000011 Q14.799999999999955 10.899999999999977 15.450000000000045 10.000000000000000 Q16.100000000000023 9.100000000000023 18.500000000000000 9.100000000000023 z" />
			<glyph
				unicode="u"
				horiz-adv-x="37"
				d="M23.300000000000001 0.000000000000000 C23.299999999999955 1.199999999999989 23.299999999999955 3.600000000000023 23.299999999999955 4.800000000000011 Q21.600000000000023 2.199999999999989 19.549999999999955 0.800000000000011 Q17.500000000000000 -0.600000000000023 14.600000000000023 -0.600000000000023 Q11.700000000000045 -0.600000000000023 9.149999999999977 1.000000000000000 Q6.600000000000023 2.600000000000023 5.600000000000023 4.600000000000023 Q4.600000000000023 6.699999999999989 4.450000000000045 8.000000000000000 Q4.299999999999955 9.300000000000011 4.299999999999955 11.800000000000011 C4.299999999999955 23.733333333333348 4.299999999999955 38.649999999999977 4.299999999999955 47.600000000000023 C6.700000000000045 47.600000000000023 11.500000000000000 47.600000000000023 13.899999999999977 47.600000000000023 C13.899999999999977 39.550000000000011 13.899999999999977 23.449999999999989 13.899999999999977 15.399999999999977 Q13.899999999999977 14.300000000000011 13.950000000000045 13.149999999999977 Q14.000000000000000 12.000000000000000 15.000000000000000 10.500000000000000 Q16.100000000000023 9.000000000000000 18.700000000000045 9.000000000000000 Q20.000000000000000 9.000000000000000 21.100000000000023 9.699999999999989 Q22.200000000000045 10.399999999999977 22.600000000000023 11.300000000000011 Q23.100000000000023 12.300000000000011 23.200000000000045 13.399999999999977 Q23.299999999999955 14.500000000000000 23.299999999999955 15.399999999999977 C23.299999999999955 26.133333333333326 23.299999999999955 39.550000000000011 23.299999999999955 47.600000000000023 C25.700000000000045 47.600000000000023 30.500000000000000 47.600000000000023 32.899999999999977 47.600000000000023 C32.899999999999977 35.699999999999989 32.899999999999977 11.899999999999977 32.899999999999977 0.000000000000000 C30.500000000000000 0.000000000000000 25.700000000000045 0.000000000000000 23.299999999999955 0.000000000000000 z" />
			<glyph
				unicode="v"
				horiz-adv-x="32"
				d="M12.300000000000001 0.000000000000000 C9.200000000000045 11.899999999999977 3.000000000000000 35.699999999999989 -0.100000000000023 47.600000000000023 C2.424999999999955 47.600000000000023 7.475000000000023 47.600000000000023 10.000000000000000 47.600000000000023 C11.625000000000000 39.899999999999977 14.875000000000000 24.500000000000000 16.500000000000000 16.800000000000011 C18.149999999999977 24.500000000000000 21.450000000000045 39.899999999999977 23.100000000000023 47.600000000000023 C25.625000000000000 47.600000000000023 30.674999999999955 47.600000000000023 33.200000000000045 47.600000000000023 C30.075000000000045 35.699999999999989 23.825000000000045 11.899999999999977 20.700000000000045 0.000000000000000 C18.600000000000023 0.000000000000000 14.399999999999977 0.000000000000000 12.299999999999955 0.000000000000000 z" />
			<glyph
				unicode="w"
				horiz-adv-x="50"
				d="M30.899999999999999 0.000000000000000 C29.549999999999955 7.149999999999977 26.850000000000023 21.449999999999989 25.500000000000000 28.600000000000023 C24.149999999999977 21.449999999999989 21.450000000000045 7.149999999999977 20.100000000000023 0.000000000000000 C18.024999999999977 0.000000000000000 13.875000000000000 0.000000000000000 11.799999999999955 0.000000000000000 C8.950000000000045 11.899999999999977 3.250000000000000 35.699999999999989 0.399999999999977 47.600000000000023 C2.924999999999955 47.600000000000023 7.975000000000023 47.600000000000023 10.500000000000000 47.600000000000023 C12.000000000000000 40.199999999999989 15.000000000000000 25.399999999999977 16.500000000000000 18.000000000000000 C17.850000000000023 25.399999999999977 20.549999999999955 40.199999999999989 21.899999999999977 47.600000000000023 C23.649999999999977 47.600000000000023 27.149999999999977 47.600000000000023 28.899999999999977 47.600000000000023 C30.274999999999977 40.199999999999989 33.024999999999977 25.399999999999977 34.399999999999977 18.000000000000000 C35.875000000000000 25.399999999999977 38.825000000000045 40.199999999999989 40.299999999999955 47.600000000000023 C42.825000000000045 47.600000000000023 47.875000000000000 47.600000000000023 50.399999999999977 47.600000000000023 C47.575000000000045 35.699999999999989 41.924999999999955 11.899999999999977 39.100000000000023 0.000000000000000 C37.049999999999955 0.000000000000000 32.950000000000045 0.000000000000000 30.899999999999977 0.000000000000000 z" />
			<glyph
				unicode="x"
				horiz-adv-x="31"
				d="M22.500000000000000 0.000000000000000 C20.924999999999955 3.725000000000023 17.774999999999977 11.175000000000011 16.200000000000045 14.899999999999977 C14.524999999999977 11.175000000000011 11.174999999999955 3.725000000000023 9.500000000000000 0.000000000000000 C6.975000000000023 0.000000000000000 1.924999999999955 0.000000000000000 -0.600000000000023 0.000000000000000 C2.424999999999955 6.149999999999977 8.475000000000023 18.449999999999989 11.500000000000000 24.600000000000023 C8.674999999999955 30.350000000000023 3.024999999999977 41.850000000000023 0.200000000000045 47.600000000000023 C2.750000000000000 47.600000000000023 7.850000000000023 47.600000000000023 10.399999999999977 47.600000000000023 C11.850000000000023 44.250000000000000 14.750000000000000 37.550000000000011 16.200000000000045 34.199999999999989 C17.750000000000000 37.550000000000011 20.850000000000023 44.250000000000000 22.399999999999977 47.600000000000023 C24.924999999999955 47.600000000000023 29.975000000000023 47.600000000000023 32.500000000000000 47.600000000000023 C29.625000000000000 41.850000000000023 23.875000000000000 30.350000000000023 21.000000000000000 24.600000000000023 C23.899999999999977 18.449999999999989 29.700000000000045 6.149999999999977 32.600000000000023 0.000000000000000 C30.075000000000045 0.000000000000000 25.024999999999977 0.000000000000000 22.500000000000000 0.000000000000000 z" />
			<glyph
				unicode="y"
				horiz-adv-x="32"
				d="M5.600000000000000 -19.000000000000000 C5.049999999999955 -19.000000000000000 3.950000000000045 -19.000000000000000 3.399999999999977 -19.000000000000000 C3.399999999999977 -16.750000000000000 3.399999999999977 -12.250000000000000 3.399999999999977 -10.000000000000000 C3.899999999999977 -10.000000000000000 4.899999999999977 -10.000000000000000 5.399999999999977 -10.000000000000000 Q7.299999999999955 -10.000000000000000 8.850000000000023 -9.000000000000000 Q10.399999999999977 -8.000000000000000 10.799999999999955 -6.199999999999989 C11.500000000000000 -3.500000000000000 12.375000000000000 -0.125000000000000 12.899999999999977 1.899999999999977 C9.600000000000023 13.324999999999989 3.000000000000000 36.175000000000011 -0.299999999999955 47.600000000000023 C2.225000000000023 47.600000000000023 7.274999999999977 47.600000000000023 9.799999999999955 47.600000000000023 C11.450000000000045 40.225000000000023 14.750000000000000 25.475000000000023 16.399999999999977 18.100000000000023 C18.024999999999977 25.475000000000023 21.274999999999977 40.225000000000023 22.899999999999977 47.600000000000023 C25.424999999999955 47.600000000000023 30.475000000000023 47.600000000000023 33.000000000000000 47.600000000000023 C29.575000000000045 33.699999999999989 22.725000000000023 5.899999999999977 19.299999999999955 -8.000000000000000 Q17.899999999999977 -13.299999999999955 14.500000000000000 -16.149999999999977 Q11.100000000000023 -19.000000000000000 5.600000000000023 -19.000000000000000 z" />
			<glyph
				unicode="z"
				horiz-adv-x="30"
				d="M2.200000000000000 0.000000000000000 C2.200000000000045 1.975000000000023 2.200000000000045 5.925000000000011 2.200000000000045 7.899999999999977 C6.024999999999977 15.774999999999977 13.674999999999955 31.524999999999977 17.500000000000000 39.399999999999977 C13.950000000000045 39.399999999999977 6.850000000000023 39.399999999999977 3.299999999999955 39.399999999999977 C3.299999999999955 41.449999999999989 3.299999999999955 45.550000000000011 3.299999999999955 47.600000000000023 C9.524999999999977 47.600000000000023 21.975000000000023 47.600000000000023 28.200000000000045 47.600000000000023 C28.200000000000045 45.875000000000000 28.200000000000045 42.425000000000011 28.200000000000045 40.699999999999989 C24.375000000000000 32.800000000000011 16.725000000000023 17.000000000000000 12.899999999999977 9.100000000000023 C16.725000000000023 9.100000000000023 24.375000000000000 9.100000000000023 28.200000000000045 9.100000000000023 C28.200000000000045 6.824999999999989 28.200000000000045 2.274999999999977 28.200000000000045 0.000000000000000 C21.700000000000045 0.000000000000000 8.700000000000045 0.000000000000000 2.200000000000045 0.000000000000000 z" />
			<glyph
				unicode="{"
				horiz-adv-x="31"
				d="M17.699999999999999 -0.800000000000000 Q17.700000000000045 -6.399999999999977 19.700000000000045 -8.149999999999977 Q21.700000000000045 -9.899999999999977 27.299999999999955 -9.899999999999977 C27.299999999999955 -12.866666666666674 27.299999999999955 -16.575000000000045 27.299999999999955 -18.799999999999955 C25.850000000000023 -18.799999999999955 22.950000000000045 -18.799999999999955 21.500000000000000 -18.799999999999955 Q13.899999999999977 -18.799999999999955 10.700000000000045 -15.399999999999977 Q7.500000000000000 -12.000000000000000 7.500000000000000 -4.899999999999977 C7.500000000000000 0.500000000000000 7.500000000000000 7.250000000000000 7.500000000000000 11.300000000000011 Q7.500000000000000 15.199999999999989 6.350000000000023 17.500000000000000 Q5.200000000000045 19.800000000000011 1.799999999999955 20.699999999999989 C1.799999999999955 23.366666666666674 1.799999999999955 26.699999999999989 1.799999999999955 28.699999999999989 Q4.899999999999977 29.600000000000023 6.200000000000045 31.850000000000023 Q7.500000000000000 34.100000000000023 7.500000000000000 37.699999999999989 C7.500000000000000 43.466666666666697 7.500000000000000 50.675000000000011 7.500000000000000 55.000000000000000 Q7.500000000000000 61.800000000000011 11.000000000000000 64.850000000000023 Q14.500000000000000 67.899999999999977 22.600000000000023 67.899999999999977 C24.166666666666629 67.899999999999977 26.125000000000000 67.899999999999977 27.299999999999955 67.899999999999977 C27.299999999999955 65.574999999999989 27.299999999999955 60.925000000000011 27.299999999999955 58.600000000000023 Q21.799999999999955 58.600000000000023 19.750000000000000 56.899999999999977 Q17.700000000000045 55.199999999999989 17.700000000000045 49.800000000000011 C17.700000000000045 45.199999999999989 17.700000000000045 39.449999999999989 17.700000000000045 36.000000000000000 Q17.700000000000045 31.699999999999989 16.600000000000023 29.050000000000011 Q15.500000000000000 26.399999999999977 12.100000000000023 24.500000000000000 Q15.299999999999955 22.699999999999989 16.500000000000000 19.800000000000011 Q17.700000000000045 16.899999999999977 17.700000000000045 12.699999999999989 C17.700000000000045 8.199999999999989 17.700000000000045 2.574999999999989 17.700000000000045 -0.800000000000011 z" />
			<glyph
				unicode="|"
				horiz-adv-x="20"
				d="M15.600000000000000 -16.699999999999999 C13.000000000000000 -16.700000000000045 7.799999999999955 -16.700000000000045 5.200000000000045 -16.700000000000045 C5.200000000000045 4.125000000000000 5.200000000000045 45.774999999999977 5.200000000000045 66.600000000000023 C7.799999999999955 66.600000000000023 13.000000000000000 66.600000000000023 15.600000000000023 66.600000000000023 C15.600000000000023 45.774999999999977 15.600000000000023 4.125000000000000 15.600000000000023 -16.700000000000045 z" />
			<glyph
				unicode="}"
				horiz-adv-x="31"
				d="M13.800000000000001 49.899999999999999 Q13.799999999999955 55.500000000000000 11.799999999999955 57.250000000000000 Q9.799999999999955 59.000000000000000 4.200000000000045 59.000000000000000 C4.200000000000045 61.966666666666697 4.200000000000045 65.675000000000011 4.200000000000045 67.899999999999977 C5.649999999999977 67.899999999999977 8.549999999999955 67.899999999999977 10.000000000000000 67.899999999999977 Q17.600000000000023 67.899999999999977 20.799999999999955 64.500000000000000 Q24.000000000000000 61.100000000000023 24.000000000000000 54.000000000000000 C24.000000000000000 48.600000000000023 24.000000000000000 41.850000000000023 24.000000000000000 37.800000000000011 Q24.000000000000000 33.899999999999977 25.149999999999977 31.600000000000023 Q26.299999999999955 29.300000000000011 29.700000000000045 28.399999999999977 C29.700000000000045 25.733333333333348 29.700000000000045 22.399999999999977 29.700000000000045 20.399999999999977 Q26.600000000000023 19.500000000000000 25.299999999999955 17.250000000000000 Q24.000000000000000 15.000000000000000 24.000000000000000 11.399999999999977 C24.000000000000000 5.633333333333326 24.000000000000000 -1.574999999999989 24.000000000000000 -5.899999999999977 Q24.000000000000000 -12.699999999999989 20.500000000000000 -15.750000000000000 Q17.000000000000000 -18.799999999999955 8.899999999999977 -18.799999999999955 C7.333333333333371 -18.799999999999955 5.375000000000000 -18.799999999999955 4.200000000000045 -18.799999999999955 C4.200000000000045 -16.475000000000023 4.200000000000045 -11.824999999999989 4.200000000000045 -9.500000000000000 Q9.700000000000045 -9.500000000000000 11.750000000000000 -7.800000000000011 Q13.799999999999955 -6.100000000000023 13.799999999999955 -0.699999999999989 C13.799999999999955 3.899999999999977 13.799999999999955 9.649999999999977 13.799999999999955 13.100000000000023 Q13.799999999999955 17.399999999999977 14.899999999999977 20.050000000000011 Q16.000000000000000 22.699999999999989 19.399999999999977 24.600000000000023 Q16.200000000000045 26.399999999999977 15.000000000000000 29.300000000000011 Q13.799999999999955 32.199999999999989 13.799999999999955 36.399999999999977 C13.799999999999955 40.899999999999977 13.799999999999955 46.524999999999977 13.799999999999955 49.899999999999977 z" />
			<glyph
				unicode="~"
				horiz-adv-x="66"
				d="M23.899999999999999 43.299999999999997 Q27.000000000000000 43.300000000000011 34.100000000000023 39.949999999999989 Q41.200000000000045 36.600000000000023 44.000000000000000 36.600000000000023 Q46.600000000000023 36.600000000000023 48.500000000000000 38.500000000000000 Q50.399999999999977 40.399999999999977 52.200000000000045 43.600000000000023 C53.933333333333394 42.166666666666686 56.100000000000023 40.375000000000000 57.399999999999977 39.300000000000011 Q55.700000000000045 34.899999999999977 52.250000000000000 31.100000000000023 Q48.799999999999955 27.300000000000011 43.100000000000023 27.300000000000011 Q40.100000000000023 27.300000000000011 32.600000000000023 30.649999999999977 Q25.100000000000023 34.000000000000000 23.600000000000023 34.000000000000000 Q20.299999999999955 34.000000000000000 18.399999999999977 32.149999999999977 Q16.500000000000000 30.300000000000011 14.700000000000045 27.000000000000000 C12.933333333333280 28.433333333333337 10.725000000000023 30.225000000000023 9.399999999999977 31.300000000000011 Q11.799999999999955 36.699999999999989 15.250000000000000 40.000000000000000 Q18.700000000000045 43.300000000000011 23.899999999999977 43.300000000000011 z" />
			<glyph
				unicode=" "
				horiz-adv-x="25"
				d="" />
			<glyph
				unicode="¡"
				horiz-adv-x="21"
				d="M13.199999999999999 29.699999999999999 C14.100000000000023 17.199999999999989 15.899999999999977 -7.800000000000011 16.799999999999955 -20.299999999999955 C13.850000000000023 -20.299999999999955 7.950000000000045 -20.299999999999955 5.000000000000000 -20.299999999999955 C5.899999999999977 -7.800000000000011 7.700000000000045 17.199999999999989 8.600000000000023 29.699999999999989 C9.750000000000000 29.699999999999989 12.049999999999955 29.699999999999989 13.200000000000045 29.699999999999989 zM15.699999999999999 46.399999999999999 C15.700000000000045 44.024999999999977 15.700000000000045 39.274999999999977 15.700000000000045 36.899999999999977 C13.325000000000045 36.899999999999977 8.575000000000045 36.899999999999977 6.200000000000045 36.899999999999977 C6.200000000000045 39.274999999999977 6.200000000000045 44.024999999999977 6.200000000000045 46.399999999999977 C8.575000000000045 46.399999999999977 13.325000000000045 46.399999999999977 15.700000000000045 46.399999999999977 z" />
			<glyph
				unicode="¢"
				horiz-adv-x="50"
				d="M39.000000000000000 43.399999999999999 C36.625000000000000 43.399999999999977 31.875000000000000 43.399999999999977 29.500000000000000 43.399999999999977 Q29.500000000000000 45.600000000000023 28.250000000000000 47.300000000000011 Q27.000000000000000 49.000000000000000 24.799999999999955 49.000000000000000 Q22.299999999999955 49.000000000000000 21.149999999999977 47.300000000000011 Q20.000000000000000 45.600000000000023 20.000000000000000 43.399999999999977 C20.000000000000000 37.199999999999989 20.000000000000000 29.449999999999989 20.000000000000000 24.800000000000011 Q20.000000000000000 22.199999999999989 21.149999999999977 20.699999999999989 Q22.299999999999955 19.199999999999989 24.899999999999977 19.199999999999989 Q27.000000000000000 19.199999999999989 28.250000000000000 20.750000000000000 Q29.500000000000000 22.300000000000011 29.500000000000000 24.500000000000000 C32.666666666666629 24.500000000000000 36.625000000000000 24.500000000000000 39.000000000000000 24.500000000000000 C39.000000000000000 24.350000000000023 39.000000000000000 24.050000000000011 39.000000000000000 23.899999999999977 Q39.000000000000000 18.600000000000023 35.549999999999955 14.649999999999977 Q32.100000000000023 10.699999999999989 26.899999999999977 9.800000000000011 C26.899999999999977 6.333333333333314 26.899999999999977 2.000000000000000 26.899999999999977 -0.600000000000023 C25.750000000000000 -0.600000000000023 23.450000000000045 -0.600000000000023 22.299999999999955 -0.600000000000023 C22.299999999999955 2.000000000000000 22.299999999999955 7.199999999999989 22.299999999999955 9.800000000000011 Q19.600000000000023 10.300000000000011 17.149999999999977 11.899999999999977 Q14.700000000000045 13.500000000000000 13.200000000000045 15.500000000000000 Q11.799999999999955 17.500000000000000 11.149999999999977 19.899999999999977 Q10.500000000000000 22.300000000000011 10.500000000000000 24.800000000000011 C10.500000000000000 31.000000000000000 10.500000000000000 38.750000000000000 10.500000000000000 43.399999999999977 Q10.500000000000000 48.699999999999989 13.850000000000023 53.000000000000000 Q17.200000000000045 57.300000000000011 22.299999999999955 58.199999999999989 C22.299999999999955 61.199999999999989 22.299999999999955 64.949999999999989 22.299999999999955 67.199999999999989 C23.450000000000045 67.199999999999989 25.750000000000000 67.199999999999989 26.899999999999977 67.199999999999989 C26.899999999999977 64.949999999999989 26.899999999999977 60.449999999999989 26.899999999999977 58.199999999999989 Q32.200000000000045 57.500000000000000 35.600000000000023 53.300000000000011 Q39.000000000000000 49.100000000000023 39.000000000000000 43.399999999999977 z" />
			<glyph
				unicode="£"
				horiz-adv-x="61"
				d="M25.399999999999999 29.800000000000001 Q25.700000000000045 28.699999999999989 25.950000000000045 27.100000000000023 Q26.200000000000045 25.500000000000000 26.200000000000045 23.000000000000000 Q26.200000000000045 17.800000000000011 23.500000000000000 14.500000000000000 Q20.799999999999955 11.199999999999989 18.000000000000000 8.800000000000011 Q19.500000000000000 9.399999999999977 21.950000000000045 10.300000000000011 Q24.399999999999977 11.199999999999989 26.399999999999977 11.199999999999989 Q30.200000000000045 11.199999999999989 35.200000000000045 9.399999999999977 Q40.200000000000045 7.600000000000023 42.000000000000000 7.600000000000023 Q45.600000000000023 7.600000000000023 48.649999999999977 9.300000000000011 Q51.700000000000045 11.000000000000000 54.000000000000000 13.800000000000011 C55.266666666666652 11.033333333333360 56.850000000000023 7.574999999999989 57.799999999999955 5.500000000000000 Q54.500000000000000 2.199999999999989 50.799999999999955 0.300000000000011 Q47.100000000000023 -1.600000000000023 43.000000000000000 -1.600000000000023 Q39.100000000000023 -1.600000000000023 31.549999999999955 0.850000000000023 Q24.000000000000000 3.300000000000011 23.000000000000000 3.300000000000011 Q20.000000000000000 3.300000000000011 17.549999999999955 2.300000000000011 Q15.100000000000023 1.300000000000011 12.299999999999955 -0.899999999999977 C10.533333333333303 1.699999999999989 8.325000000000045 4.949999999999989 7.000000000000000 6.899999999999977 Q11.200000000000045 9.600000000000023 13.950000000000045 13.750000000000000 Q16.700000000000045 17.899999999999977 16.700000000000045 22.500000000000000 Q16.700000000000045 24.300000000000011 16.250000000000000 26.000000000000000 Q15.799999999999955 27.699999999999989 14.899999999999977 29.800000000000011 C12.066666666666720 29.800000000000011 8.524999999999977 29.800000000000011 6.399999999999977 29.800000000000011 C6.399999999999977 30.824999999999989 6.399999999999977 32.875000000000000 6.399999999999977 33.899999999999977 C7.950000000000045 33.899999999999977 11.049999999999955 33.899999999999977 12.600000000000023 33.899999999999977 Q9.500000000000000 39.000000000000000 8.450000000000045 41.949999999999989 Q7.399999999999977 44.899999999999977 7.399999999999977 47.500000000000000 Q7.399999999999977 51.800000000000011 9.549999999999955 55.750000000000000 Q11.700000000000045 59.699999999999989 15.200000000000045 62.100000000000023 Q18.799999999999955 64.600000000000023 23.049999999999955 65.649999999999977 Q27.299999999999955 66.699999999999989 31.799999999999955 66.699999999999989 Q38.600000000000023 66.699999999999989 44.100000000000023 64.500000000000000 Q49.600000000000023 62.300000000000011 52.100000000000023 58.300000000000011 Q54.600000000000023 54.399999999999977 55.450000000000045 50.500000000000000 Q56.299999999999955 46.600000000000023 56.299999999999955 42.899999999999977 C53.133333333333326 42.899999999999977 49.174999999999955 42.899999999999977 46.799999999999955 42.899999999999977 Q46.799999999999955 46.199999999999989 46.250000000000000 48.600000000000023 Q45.700000000000045 51.000000000000000 43.799999999999955 53.399999999999977 Q42.000000000000000 55.899999999999977 38.899999999999977 57.149999999999977 Q35.799999999999955 58.399999999999977 32.200000000000045 58.399999999999977 Q26.700000000000045 58.399999999999977 22.450000000000045 55.500000000000000 Q18.200000000000045 52.600000000000023 18.200000000000045 47.300000000000011 Q18.200000000000045 44.800000000000011 19.000000000000000 43.000000000000000 Q19.799999999999955 41.199999999999989 20.899999999999977 39.399999999999977 Q22.000000000000000 37.600000000000023 22.649999999999977 36.600000000000023 Q23.299999999999955 35.600000000000023 24.100000000000023 33.899999999999977 C28.100000000000023 33.899999999999977 33.100000000000023 33.899999999999977 36.100000000000023 33.899999999999977 C36.100000000000023 32.875000000000000 36.100000000000023 30.824999999999989 36.100000000000023 29.800000000000011 C33.424999999999955 29.800000000000011 28.075000000000045 29.800000000000011 25.399999999999977 29.800000000000011 z" />
			<glyph
				unicode="¤"
				horiz-adv-x="69"
				d="M10.900000000000000 34.100000000000001 Q10.899999999999977 37.800000000000011 12.049999999999955 40.949999999999989 Q13.200000000000045 44.100000000000023 15.600000000000023 47.800000000000011 C12.333333333333371 51.033333333333303 8.250000000000000 55.074999999999989 5.799999999999955 57.500000000000000 C7.174999999999955 58.850000000000023 9.924999999999955 61.550000000000011 11.299999999999955 62.899999999999977 C13.725000000000023 60.475000000000023 18.575000000000045 55.625000000000000 21.000000000000000 53.199999999999989 Q24.899999999999977 55.500000000000000 28.100000000000023 56.649999999999977 Q31.299999999999955 57.800000000000011 35.100000000000023 57.800000000000011 Q38.600000000000023 57.800000000000011 41.700000000000045 56.649999999999977 Q44.799999999999955 55.500000000000000 48.399999999999977 53.199999999999989 C51.666666666666629 56.433333333333337 55.750000000000000 60.475000000000023 58.200000000000045 62.899999999999977 C59.549999999999955 61.550000000000011 62.250000000000000 58.850000000000023 63.600000000000023 57.500000000000000 C61.200000000000045 55.100000000000023 56.399999999999977 50.300000000000011 54.000000000000000 47.899999999999977 Q56.200000000000045 44.800000000000011 57.450000000000045 41.199999999999989 Q58.700000000000045 37.600000000000023 58.700000000000045 34.000000000000000 Q58.700000000000045 30.399999999999977 57.600000000000023 27.300000000000011 Q56.500000000000000 24.199999999999989 54.299999999999955 20.399999999999977 C57.500000000000000 17.233333333333348 61.500000000000000 13.274999999999977 63.899999999999977 10.899999999999977 C62.549999999999955 9.524999999999977 59.850000000000023 6.774999999999977 58.500000000000000 5.399999999999977 C56.100000000000023 7.774999999999977 51.299999999999955 12.524999999999977 48.899999999999977 14.899999999999977 Q45.600000000000023 12.600000000000023 42.200000000000045 11.449999999999989 Q38.799999999999955 10.300000000000011 34.700000000000045 10.300000000000011 Q31.100000000000023 10.300000000000011 27.850000000000023 11.449999999999989 Q24.600000000000023 12.600000000000023 20.899999999999977 14.899999999999977 C17.733333333333348 11.733333333333348 13.774999999999977 7.774999999999977 11.399999999999977 5.399999999999977 C10.049999999999955 6.750000000000000 7.350000000000023 9.449999999999989 6.000000000000000 10.800000000000011 C8.350000000000023 13.199999999999989 13.049999999999955 18.000000000000000 15.399999999999977 20.399999999999977 Q10.899999999999977 26.800000000000011 10.899999999999977 34.100000000000023 zM34.899999999999999 19.199999999999999 Q40.899999999999977 19.199999999999989 45.299999999999955 23.600000000000023 Q49.700000000000045 28.000000000000000 49.700000000000045 34.100000000000023 Q49.700000000000045 40.199999999999989 45.399999999999977 44.600000000000023 Q41.100000000000023 49.000000000000000 34.899999999999977 49.000000000000000 Q28.799999999999955 49.000000000000000 24.399999999999977 44.600000000000023 Q20.000000000000000 40.199999999999989 20.000000000000000 34.100000000000023 Q20.000000000000000 28.000000000000000 24.399999999999977 23.600000000000023 Q28.799999999999955 19.199999999999989 34.899999999999977 19.199999999999989 z" />
			<glyph
				unicode="¥"
				horiz-adv-x="50"
				d="M29.899999999999999 28.699999999999999 C32.125000000000000 28.625000000000000 36.575000000000045 28.475000000000023 38.799999999999955 28.399999999999977 C38.799999999999955 27.324999999999989 38.799999999999955 25.175000000000011 38.799999999999955 24.100000000000023 C36.575000000000045 24.100000000000023 32.125000000000000 24.100000000000023 29.899999999999977 24.100000000000023 C29.899999999999977 18.074999999999989 29.899999999999977 6.024999999999977 29.899999999999977 0.000000000000000 C27.500000000000000 0.000000000000000 22.700000000000045 0.000000000000000 20.299999999999955 0.000000000000000 C20.299999999999955 6.024999999999977 20.299999999999955 18.074999999999989 20.299999999999955 24.100000000000023 C18.100000000000023 24.100000000000023 13.700000000000045 24.100000000000023 11.500000000000000 24.100000000000023 C11.500000000000000 25.175000000000011 11.500000000000000 27.324999999999989 11.500000000000000 28.399999999999977 C13.700000000000045 28.399999999999977 18.100000000000023 28.399999999999977 20.299999999999955 28.399999999999977 C19.350000000000023 31.300000000000011 17.450000000000045 37.100000000000023 16.500000000000000 40.000000000000000 C13.924999999999955 40.000000000000000 8.774999999999977 40.000000000000000 6.200000000000045 40.000000000000000 C6.200000000000045 41.074999999999989 6.200000000000045 43.225000000000023 6.200000000000045 44.300000000000011 C8.399999999999977 44.300000000000011 12.799999999999955 44.300000000000011 15.000000000000000 44.300000000000011 C13.100000000000023 49.899999999999977 9.299999999999955 61.100000000000023 7.399999999999977 66.699999999999989 C9.899999999999977 66.699999999999989 14.899999999999977 66.699999999999989 17.399999999999977 66.699999999999989 C19.325000000000045 60.175000000000011 23.174999999999955 47.125000000000000 25.100000000000023 40.600000000000023 C27.075000000000045 47.125000000000000 31.024999999999977 60.175000000000011 33.000000000000000 66.699999999999989 C35.500000000000000 66.699999999999989 40.500000000000000 66.699999999999989 43.000000000000000 66.699999999999989 C41.075000000000045 61.100000000000023 37.225000000000023 49.899999999999977 35.299999999999955 44.300000000000011 C37.500000000000000 44.300000000000011 41.899999999999977 44.300000000000011 44.100000000000023 44.300000000000011 C44.100000000000023 43.225000000000023 44.100000000000023 41.074999999999989 44.100000000000023 40.000000000000000 C41.524999999999977 40.000000000000000 36.375000000000000 40.000000000000000 33.799999999999955 40.000000000000000 C32.825000000000045 37.175000000000011 30.875000000000000 31.524999999999977 29.899999999999977 28.699999999999989 z" />
			<glyph
				unicode="¦"
				horiz-adv-x="50"
				d="M30.199999999999999 32.600000000000001 C27.600000000000023 32.600000000000023 22.399999999999977 32.600000000000023 19.799999999999955 32.600000000000023 C19.799999999999955 41.100000000000023 19.799999999999955 58.100000000000023 19.799999999999955 66.600000000000023 C22.399999999999977 66.600000000000023 27.600000000000023 66.600000000000023 30.200000000000045 66.600000000000023 C30.200000000000045 58.100000000000023 30.200000000000045 41.100000000000023 30.200000000000045 32.600000000000023 zM30.199999999999999 -16.699999999999999 C27.600000000000023 -16.700000000000045 22.399999999999977 -16.700000000000045 19.799999999999955 -16.700000000000045 C19.799999999999955 -8.699999999999989 19.799999999999955 7.300000000000011 19.799999999999955 15.300000000000011 C22.399999999999977 15.300000000000011 27.600000000000023 15.300000000000011 30.200000000000045 15.300000000000011 C30.200000000000045 7.300000000000011 30.200000000000045 -8.699999999999989 30.200000000000045 -16.700000000000045 z" />
			<glyph
				unicode="§"
				horiz-adv-x="57"
				d="M29.199999999999999 59.000000000000000 Q25.500000000000000 59.000000000000000 22.700000000000045 57.199999999999989 Q19.899999999999977 55.399999999999977 19.899999999999977 51.600000000000023 Q19.899999999999977 48.500000000000000 22.100000000000023 46.800000000000011 Q24.299999999999955 45.100000000000023 29.200000000000045 42.600000000000023 Q32.700000000000045 41.000000000000000 36.450000000000045 39.050000000000011 Q40.200000000000045 37.100000000000023 43.899999999999977 34.699999999999989 Q47.700000000000045 32.399999999999977 50.100000000000023 29.300000000000011 Q52.500000000000000 26.199999999999989 52.500000000000000 21.800000000000011 Q52.500000000000000 17.600000000000023 49.700000000000045 14.000000000000000 Q46.899999999999977 10.399999999999977 42.299999999999955 9.000000000000000 Q45.000000000000000 6.600000000000023 46.299999999999955 4.199999999999989 Q47.600000000000023 1.800000000000011 47.600000000000023 -1.600000000000023 Q47.600000000000023 -8.500000000000000 42.049999999999955 -12.350000000000023 Q36.500000000000000 -16.200000000000045 29.200000000000045 -16.200000000000045 Q24.500000000000000 -16.200000000000045 20.950000000000045 -15.100000000000023 Q17.399999999999977 -14.000000000000000 14.899999999999977 -11.500000000000000 Q12.500000000000000 -9.000000000000000 11.250000000000000 -5.699999999999989 Q10.000000000000000 -2.399999999999977 10.000000000000000 0.800000000000011 C10.000000000000000 1.233333333333348 10.000000000000000 1.774999999999977 10.000000000000000 2.100000000000023 C12.000000000000000 2.100000000000023 16.000000000000000 2.100000000000023 18.000000000000000 2.100000000000023 Q18.000000000000000 -0.199999999999989 18.350000000000023 -1.699999999999989 Q18.700000000000045 -3.199999999999989 19.899999999999977 -5.100000000000023 Q21.200000000000045 -7.000000000000000 23.700000000000045 -8.050000000000011 Q26.200000000000045 -9.100000000000023 29.100000000000023 -9.100000000000023 Q32.899999999999977 -9.100000000000023 35.799999999999955 -7.149999999999977 Q38.700000000000045 -5.199999999999989 38.700000000000045 -1.500000000000000 Q38.700000000000045 1.100000000000023 37.500000000000000 2.850000000000023 Q36.299999999999955 4.600000000000023 34.299999999999955 5.899999999999977 Q32.399999999999977 7.199999999999989 29.450000000000045 8.800000000000011 Q26.500000000000000 10.399999999999977 20.000000000000000 13.600000000000023 Q13.500000000000000 16.800000000000011 9.600000000000023 20.100000000000023 Q5.700000000000045 23.399999999999977 5.700000000000045 29.399999999999977 Q5.700000000000045 34.399999999999977 8.549999999999955 37.699999999999989 Q11.399999999999977 41.000000000000000 15.700000000000045 42.600000000000023 Q11.100000000000023 46.600000000000023 11.100000000000023 52.300000000000011 Q11.100000000000023 58.899999999999977 16.700000000000045 62.350000000000023 Q22.299999999999955 65.800000000000011 29.100000000000023 65.800000000000011 Q37.200000000000045 65.800000000000011 42.299999999999955 61.199999999999989 Q47.399999999999977 56.600000000000023 47.399999999999977 48.699999999999989 C44.733333333333348 48.699999999999989 41.399999999999977 48.699999999999989 39.399999999999977 48.699999999999989 Q39.399999999999977 53.399999999999977 36.700000000000045 56.199999999999989 Q34.000000000000000 59.000000000000000 29.200000000000045 59.000000000000000 zM20.300000000000001 22.100000000000001 Q25.600000000000023 19.199999999999989 31.149999999999977 16.199999999999989 Q36.700000000000045 13.199999999999989 37.399999999999977 13.000000000000000 Q40.299999999999955 13.699999999999989 42.399999999999977 15.899999999999977 Q44.500000000000000 18.100000000000023 44.500000000000000 21.000000000000000 Q44.500000000000000 23.399999999999977 42.000000000000000 26.050000000000011 Q39.500000000000000 28.699999999999989 36.700000000000045 30.000000000000000 Q31.700000000000045 32.600000000000023 26.500000000000000 35.300000000000011 Q21.299999999999955 38.000000000000000 20.399999999999977 38.300000000000011 Q17.500000000000000 37.500000000000000 15.500000000000000 35.350000000000023 Q13.500000000000000 33.199999999999989 13.500000000000000 30.300000000000011 Q13.500000000000000 28.100000000000023 15.649999999999977 25.800000000000011 Q17.799999999999955 23.500000000000000 20.299999999999955 22.100000000000023 z" />
			<glyph
				unicode="¨"
				horiz-adv-x="50"
				d="M29.899999999999999 56.799999999999997 C29.899999999999977 59.574999999999989 29.899999999999977 65.125000000000000 29.899999999999977 67.899999999999977 C31.975000000000023 67.899999999999977 36.125000000000000 67.899999999999977 38.200000000000045 67.899999999999977 C38.200000000000045 65.125000000000000 38.200000000000045 59.574999999999989 38.200000000000045 56.800000000000011 C36.125000000000000 56.800000000000011 31.975000000000023 56.800000000000011 29.899999999999977 56.800000000000011 zM11.900000000000000 56.799999999999997 C11.899999999999977 59.574999999999989 11.899999999999977 65.125000000000000 11.899999999999977 67.899999999999977 C13.975000000000023 67.899999999999977 18.125000000000000 67.899999999999977 20.200000000000045 67.899999999999977 C20.200000000000045 65.125000000000000 20.200000000000045 59.574999999999989 20.200000000000045 56.800000000000011 C18.125000000000000 56.800000000000011 13.975000000000023 56.800000000000011 11.899999999999977 56.800000000000011 z" />
			<glyph
				unicode="©"
				horiz-adv-x="77"
				d="M39.000000000000000 -1.200000000000000 Q24.700000000000045 -1.199999999999989 14.549999999999955 8.949999999999989 Q4.399999999999977 19.100000000000023 4.399999999999977 33.399999999999977 Q4.399999999999977 47.699999999999989 14.500000000000000 57.800000000000011 Q24.600000000000023 67.899999999999977 39.000000000000000 67.899999999999977 Q53.100000000000023 67.899999999999977 63.250000000000000 57.750000000000000 Q73.399999999999977 47.600000000000023 73.399999999999977 33.399999999999977 Q73.399999999999977 19.199999999999989 63.299999999999955 9.000000000000000 Q53.200000000000045 -1.199999999999989 39.000000000000000 -1.199999999999989 zM39.000000000000000 5.900000000000000 Q50.200000000000045 5.899999999999977 58.049999999999955 14.050000000000011 Q65.899999999999977 22.199999999999989 65.899999999999977 33.399999999999977 Q65.899999999999977 44.600000000000023 58.000000000000000 52.699999999999989 Q50.100000000000023 60.800000000000011 39.000000000000000 60.800000000000011 Q27.799999999999955 60.800000000000011 19.850000000000023 52.750000000000000 Q11.899999999999977 44.699999999999989 11.899999999999977 33.399999999999977 Q11.899999999999977 22.199999999999989 19.850000000000023 14.050000000000011 Q27.799999999999955 5.899999999999977 39.000000000000000 5.899999999999977 zM48.200000000000003 23.699999999999999 Q48.200000000000045 21.300000000000011 48.049999999999955 20.300000000000011 Q47.899999999999977 19.300000000000011 46.799999999999955 17.500000000000000 Q45.700000000000045 15.699999999999989 43.799999999999955 14.449999999999989 Q41.899999999999977 13.199999999999989 39.600000000000023 13.199999999999989 Q37.100000000000023 13.199999999999989 34.700000000000045 14.399999999999977 Q32.299999999999955 15.600000000000023 31.299999999999955 17.199999999999989 Q30.299999999999955 18.899999999999977 30.000000000000000 20.550000000000011 Q29.700000000000045 22.199999999999989 29.700000000000045 23.699999999999989 C29.700000000000045 30.566666666666663 29.700000000000045 39.149999999999977 29.700000000000045 44.300000000000011 Q29.700000000000045 47.600000000000023 31.899999999999977 50.750000000000000 Q34.100000000000023 53.899999999999977 38.600000000000023 53.899999999999977 Q42.799999999999955 53.899999999999977 45.500000000000000 51.199999999999989 Q48.200000000000045 48.500000000000000 48.200000000000045 44.300000000000011 C48.200000000000045 43.566666666666663 48.200000000000045 42.649999999999977 48.200000000000045 42.100000000000023 C46.799999999999955 42.100000000000023 44.000000000000000 42.100000000000023 42.600000000000023 42.100000000000023 C42.600000000000023 42.649999999999977 42.600000000000023 43.750000000000000 42.600000000000023 44.300000000000011 Q42.600000000000023 48.199999999999989 38.899999999999977 48.199999999999989 Q37.200000000000045 48.199999999999989 36.299999999999955 47.100000000000023 Q35.399999999999977 46.000000000000000 35.399999999999977 44.300000000000011 C35.399999999999977 37.433333333333337 35.399999999999977 28.850000000000023 35.399999999999977 23.699999999999989 Q35.399999999999977 21.500000000000000 36.200000000000045 20.199999999999989 Q37.000000000000000 18.899999999999977 39.000000000000000 18.899999999999977 Q41.000000000000000 18.899999999999977 41.799999999999955 20.199999999999989 Q42.600000000000023 21.500000000000000 42.600000000000023 23.699999999999989 C42.600000000000023 24.133333333333326 42.600000000000023 24.675000000000011 42.600000000000023 25.000000000000000 C44.000000000000000 25.000000000000000 46.799999999999955 25.000000000000000 48.200000000000045 25.000000000000000 C48.200000000000045 24.675000000000011 48.200000000000045 24.024999999999977 48.200000000000045 23.699999999999989 z" />
			</font>
</defs>
</svg>
